<svg id="svg" version="1.1" xmlns="http://www.w3.org/2000/svg" xmlns:xlink="http://www.w3.org/1999/xlink" width="400" height="369.811320754717" viewBox="0, 0, 400,369.811320754717"><g id="svgg"><path id="path0" d="M137.881 72.852 C 118.361 77.926,119.123 105.028,138.897 109.023 C 151.920 111.654,163.666 99.269,160.354 86.399 C 157.845 76.651,147.427 70.370,137.881 72.852 M248.041 72.467 C 240.309 74.077,234.846 78.589,232.978 84.906 C 232.695 85.864,232.344 87.026,232.197 87.489 C 232.050 87.952,231.934 89.454,231.939 90.827 C 231.946 93.084,232.157 94.193,233.295 97.968 C 233.391 98.287,234.051 99.463,234.761 100.581 C 244.823 116.419,269.107 109.547,269.124 90.856 C 269.132 83.104,264.032 75.577,257.442 73.612 C 253.461 72.425,250.168 72.024,248.041 72.467 M237.155 112.795 C 224.613 113.619,215.453 117.663,205.088 126.951 L 203.645 128.244 205.669 130.381 C 212.003 137.071,216.462 144.265,218.952 151.814 C 220.479 156.443,221.190 159.939,221.190 162.814 C 221.190 165.436,221.295 165.552,222.515 164.272 C 223.949 162.766,228.213 160.322,232.656 158.457 C 241.236 154.857,254.373 156.401,263.570 162.092 C 271.566 167.038,276.915 174.653,280.005 185.486 C 280.255 186.364,280.578 187.484,280.723 187.974 C 280.868 188.464,280.987 189.183,280.987 189.571 C 280.987 189.959,281.181 191.190,281.417 192.308 C 281.932 194.738,282.012 204.082,281.550 207.837 C 281.383 209.194,281.130 211.415,280.987 212.772 C 280.643 216.055,280.242 218.832,279.869 220.527 C 279.701 221.291,279.417 222.700,279.239 223.657 C 279.060 224.615,278.717 226.183,278.476 227.141 C 278.235 228.099,277.923 229.340,277.782 229.898 C 277.534 230.884,276.559 234.188,275.554 237.446 C 275.284 238.324,274.958 239.166,274.832 239.318 C 274.705 239.470,274.601 239.796,274.602 240.044 C 274.602 240.291,274.286 241.277,273.898 242.235 C 273.511 243.193,272.775 245.022,272.263 246.299 C 269.968 252.027,267.692 256.590,263.040 264.797 C 262.410 265.908,260.475 269.021,259.291 270.827 C 258.925 271.386,258.499 272.039,258.345 272.279 C 254.777 277.820,248.487 285.402,242.921 290.871 C 237.470 296.227,236.977 296.968,238.480 297.540 C 239.503 297.929,242.859 297.897,243.633 297.491 C 246.964 295.745,261.841 285.158,263.570 283.303 C 263.650 283.217,264.956 282.107,266.473 280.837 C 276.421 272.503,289.798 256.808,294.797 247.605 C 295.101 247.046,295.496 246.393,295.676 246.154 C 296.440 245.135,300.486 237.284,302.108 233.672 C 303.650 230.240,306.307 223.307,306.725 221.626 C 306.805 221.306,306.975 220.784,307.104 220.464 C 307.233 220.145,307.563 219.035,307.838 217.997 C 308.113 216.959,308.443 215.784,308.571 215.385 C 308.699 214.985,309.019 213.745,309.281 212.627 C 309.543 211.509,309.881 210.194,310.031 209.704 C 310.182 209.213,310.304 208.560,310.304 208.252 C 310.304 207.944,310.491 206.843,310.720 205.806 C 310.949 204.768,311.267 203.004,311.427 201.887 C 311.586 200.769,311.863 198.875,312.041 197.678 C 312.965 191.461,313.126 174.872,312.320 168.940 C 312.157 167.743,311.896 165.784,311.738 164.586 C 311.249 160.866,310.876 159.159,309.519 154.427 C 309.130 153.070,308.690 151.733,308.542 151.455 C 308.394 151.178,308.273 150.828,308.273 150.678 C 308.273 150.528,307.806 149.383,307.236 148.134 C 300.273 132.886,289.195 123.200,271.843 117.192 C 269.194 116.274,268.201 115.982,265.747 115.394 C 264.630 115.127,263.258 114.794,262.700 114.655 C 261.584 114.378,257.677 113.708,254.282 113.211 C 252.091 112.890,240.128 112.600,237.155 112.795 M147.460 113.634 C 147.221 113.692,145.457 113.889,143.541 114.072 C 140.130 114.398,139.246 114.539,135.123 115.420 C 132.118 116.061,127.306 117.494,124.953 118.447 C 124.480 118.638,123.832 118.895,123.512 119.018 C 118.170 121.070,110.415 126.016,105.997 130.189 C 102.741 133.264,97.533 139.591,97.533 140.470 C 97.533 140.616,97.417 140.779,97.276 140.832 C 95.439 141.526,90.131 155.843,88.578 164.296 C 86.875 173.566,86.556 193.662,87.947 204.105 C 88.124 205.440,88.406 207.642,88.572 208.999 C 88.738 210.356,89.066 212.511,89.299 213.788 C 89.533 215.065,89.856 216.829,90.018 217.707 C 90.179 218.585,90.499 219.968,90.729 220.780 C 90.959 221.593,91.147 222.498,91.147 222.792 C 91.147 223.085,91.265 223.727,91.410 224.217 C 91.555 224.708,91.870 225.827,92.109 226.705 C 92.944 229.766,94.104 233.530,94.366 234.031 C 94.511 234.308,94.630 234.728,94.630 234.964 C 94.630 235.201,94.844 235.888,95.106 236.492 C 95.367 237.096,95.682 237.852,95.805 238.171 C 98.810 245.975,102.476 253.387,105.925 258.636 C 106.816 259.993,107.598 261.234,107.662 261.393 C 107.725 261.553,108.698 262.925,109.823 264.441 C 118.717 276.431,130.926 287.376,142.760 293.968 C 143.509 294.385,144.514 294.959,144.993 295.244 C 149.416 297.877,152.324 298.474,153.876 297.070 C 155.014 296.040,154.635 295.472,149.597 290.670 C 144.040 285.373,138.905 279.629,134.916 274.251 C 133.037 271.716,128.302 264.792,128.302 264.578 C 128.302 264.509,127.864 263.764,127.329 262.923 C 124.772 258.901,121.285 251.919,119.026 246.299 C 118.512 245.022,117.983 243.716,117.850 243.396 C 114.974 236.494,112.461 226.019,111.299 216.085 C 110.749 211.387,110.850 196.792,111.458 193.179 C 112.363 187.802,113.199 184.350,114.271 181.567 C 118.170 171.447,124.830 164.931,134.688 161.594 C 142.510 158.946,150.181 158.700,159.959 160.783 C 160.686 160.938,161.601 161.191,161.991 161.345 C 168.467 163.908,170.515 164.976,174.240 167.728 C 178.820 171.111,185.776 180.593,185.776 183.452 C 185.776 183.617,185.896 183.979,186.041 184.256 C 186.464 185.062,187.131 187.241,187.484 188.970 C 188.429 193.593,188.679 195.173,188.679 196.504 C 188.679 198.365,188.165 198.717,193.650 193.106 C 196.265 190.432,201.453 185.153,205.181 181.374 C 211.408 175.063,211.945 174.438,211.797 173.682 C 211.709 173.229,211.560 171.684,211.467 170.247 C 211.287 167.482,210.954 165.154,210.263 161.829 C 209.599 158.630,208.518 154.624,208.092 153.778 C 207.952 153.500,207.837 153.080,207.837 152.844 C 207.837 152.449,207.260 150.937,206.641 149.714 C 206.501 149.436,206.386 149.073,206.386 148.907 C 206.386 148.598,203.698 143.031,202.532 140.925 C 197.238 131.364,187.535 122.858,177.213 118.730 C 175.936 118.220,174.630 117.694,174.311 117.561 C 173.564 117.252,171.157 116.522,169.666 116.153 C 169.028 115.995,167.917 115.710,167.199 115.519 C 163.550 114.548,149.309 113.189,147.460 113.634 " stroke="none" fill="#fafbfb" fill-rule="evenodd"></path><path id="path1" d="M0.000 184.906 L 0.000 369.811 200.000 369.811 L 400.000 369.811 400.000 184.906 L 400.000 0.000 200.000 0.000 L 0.000 0.000 0.000 184.906 M147.190 72.449 C 161.883 76.746,166.198 94.411,155.091 104.799 C 144.766 114.456,128.603 109.990,123.742 96.139 C 123.138 94.416,123.053 87.810,123.612 86.067 C 126.942 75.696,137.480 69.610,147.190 72.449 M255.463 72.441 C 270.852 76.863,274.863 96.223,262.379 105.829 C 246.070 118.379,224.580 100.383,233.754 81.858 C 237.326 74.644,247.607 70.184,255.463 72.441 M250.363 112.338 C 254.754 112.697,257.746 113.115,261.248 113.856 C 262.765 114.177,264.332 114.502,264.731 114.578 C 282.481 117.963,299.970 131.083,306.821 146.154 C 307.329 147.271,307.864 148.413,308.009 148.690 C 308.307 149.259,309.628 152.958,310.006 154.282 C 311.307 158.840,311.826 161.300,312.454 165.893 C 314.092 177.862,313.842 190.733,311.724 203.483 C 311.440 205.193,311.234 206.227,310.246 210.885 C 310.077 211.684,309.776 212.925,309.577 213.643 C 309.378 214.361,309.053 215.537,308.855 216.255 C 308.151 218.811,306.463 224.143,305.961 225.399 C 305.833 225.718,305.058 227.691,304.238 229.782 C 293.943 256.038,274.483 278.120,244.580 297.479 C 241.905 299.210,237.165 298.559,237.152 296.458 C 237.150 296.163,239.278 293.852,242.042 291.147 C 247.308 285.992,250.924 281.798,255.053 276.052 C 257.743 272.310,261.248 267.134,261.248 266.905 C 261.248 266.833,261.686 266.086,262.222 265.245 C 265.231 260.517,271.456 247.822,272.863 243.541 C 272.994 243.142,273.644 241.313,274.308 239.478 C 274.971 237.642,275.624 235.747,275.758 235.269 C 275.893 234.790,276.216 233.679,276.478 232.801 C 276.988 231.087,277.192 230.301,277.947 227.141 C 278.458 225.000,278.604 224.295,279.362 220.319 C 281.796 207.538,281.868 193.066,279.536 185.486 C 279.364 184.927,279.090 184.013,278.926 183.454 C 278.665 182.559,278.330 181.644,277.494 179.536 C 272.009 165.701,258.691 157.039,242.905 157.039 C 236.082 157.039,225.650 161.128,222.293 165.117 C 221.563 165.985,220.918 166.306,220.885 165.820 C 220.877 165.700,220.820 164.607,220.759 163.390 C 220.196 152.128,214.745 140.601,205.264 130.624 C 204.127 129.427,203.195 128.361,203.194 128.256 C 203.190 127.624,212.521 120.140,214.936 118.838 C 221.397 115.356,224.689 114.152,230.739 113.061 C 236.087 112.096,243.896 111.808,250.363 112.338 M159.024 113.653 C 189.403 117.336,208.420 137.222,211.896 168.940 C 212.062 170.457,212.269 172.337,212.355 173.117 L 212.513 174.537 206.899 180.229 C 195.249 192.041,190.444 196.977,189.840 197.750 C 188.913 198.939,188.452 198.770,188.252 197.170 C 187.688 192.669,187.403 190.917,186.918 188.970 C 186.621 187.772,186.296 186.466,186.198 186.067 C 186.099 185.668,185.914 185.080,185.787 184.761 C 185.660 184.441,185.326 183.592,185.046 182.874 C 175.124 157.441,135.633 151.415,119.446 172.864 C 109.687 185.794,108.587 213.605,116.828 239.042 C 117.397 240.798,117.975 242.496,118.113 242.816 C 118.250 243.135,118.592 243.984,118.872 244.702 C 119.152 245.421,119.690 246.698,120.068 247.541 C 120.446 248.383,120.755 249.155,120.755 249.255 C 120.755 249.747,125.489 258.924,127.390 262.119 C 133.811 272.906,139.311 279.875,148.824 289.273 C 155.147 295.519,155.337 295.772,154.554 296.889 C 153.227 298.784,150.778 298.892,147.568 297.197 C 130.200 288.026,115.694 274.852,105.752 259.216 C 104.260 256.869,100.145 249.733,100.145 249.492 C 100.145 249.448,99.572 248.190,98.872 246.695 C 97.800 244.405,96.946 242.388,95.512 238.752 C 95.386 238.433,95.126 237.784,94.934 237.311 C 94.532 236.317,93.157 232.101,92.612 230.189 C 92.407 229.470,92.068 228.295,91.858 227.576 C 90.867 224.179,89.731 219.210,89.006 215.094 C 87.237 205.049,86.501 196.436,86.501 185.776 C 86.501 174.221,87.395 165.487,89.283 158.585 C 89.537 157.655,89.847 156.502,89.971 156.023 C 90.289 154.797,91.673 150.751,91.982 150.144 C 92.124 149.865,92.374 149.311,92.539 148.911 C 98.799 133.708,111.960 121.885,128.447 116.655 C 133.167 115.157,136.256 114.479,142.671 113.534 C 145.616 113.100,155.028 113.169,159.024 113.653 " stroke="none" fill="#0473bb" fill-rule="evenodd"></path><path id="path2" d="M137.446 72.722 C 135.900 73.232,136.771 73.231,138.607 72.721 C 139.407 72.499,139.733 72.323,139.332 72.329 C 138.933 72.335,138.084 72.512,137.446 72.722 M145.138 72.570 C 147.661 73.127,148.234 73.178,146.880 72.725 C 146.161 72.484,145.247 72.301,144.848 72.316 C 144.277 72.339,144.339 72.393,145.138 72.570 M246.444 72.565 C 246.148 72.754,246.379 72.786,247.170 72.665 C 248.605 72.445,248.849 72.277,247.726 72.283 C 247.261 72.286,246.684 72.412,246.444 72.565 M254.717 72.850 C 255.835 73.139,257.010 73.465,257.329 73.575 C 257.854 73.755,257.860 73.742,257.397 73.445 C 256.791 73.055,253.887 72.269,253.179 72.302 C 252.907 72.315,253.599 72.561,254.717 72.850 M149.806 73.844 C 150.133 74.151,152.187 75.196,152.280 75.102 C 152.339 75.043,151.854 74.710,151.203 74.363 C 150.123 73.786,149.499 73.555,149.806 73.844 M131.930 75.099 C 130.362 76.118,126.761 79.747,126.160 80.914 C 125.453 82.288,125.745 82.070,126.806 80.431 C 127.859 78.807,130.436 76.354,132.365 75.143 C 133.084 74.691,133.541 74.327,133.382 74.333 C 133.222 74.340,132.569 74.684,131.930 75.099 M154.632 77.040 C 155.783 78.107,157.143 79.628,157.656 80.419 C 158.680 81.999,159.028 82.307,158.382 81.060 C 157.778 79.894,155.804 77.732,154.061 76.326 C 153.015 75.483,153.193 75.706,154.632 77.040 M261.974 76.095 C 263.420 77.293,264.635 78.509,265.704 79.826 L 266.528 80.842 265.730 79.681 C 264.569 77.993,263.697 77.107,262.169 76.061 L 260.813 75.133 261.974 76.095 M238.003 76.905 C 237.272 77.532,236.315 78.543,235.876 79.153 L 235.079 80.261 236.104 79.100 C 236.668 78.462,237.690 77.453,238.376 76.859 C 239.062 76.265,239.557 75.776,239.478 75.773 C 239.398 75.769,238.734 76.279,238.003 76.905 M234.408 81.157 C 234.137 81.570,233.966 81.958,234.027 82.019 C 234.088 82.080,234.367 81.742,234.647 81.268 C 235.273 80.209,235.086 80.123,234.408 81.157 M124.801 83.495 C 124.483 84.236,124.273 84.893,124.334 84.954 C 124.395 85.015,124.718 84.408,125.051 83.606 C 125.385 82.804,125.595 82.148,125.518 82.148 C 125.441 82.148,125.119 82.754,124.801 83.495 M158.781 82.174 C 158.781 82.259,159.042 82.870,159.361 83.531 C 159.681 84.192,159.942 84.891,159.942 85.085 C 159.942 85.279,160.025 85.355,160.126 85.254 C 160.330 85.050,159.765 83.487,159.165 82.591 C 158.954 82.277,158.781 82.089,158.781 82.174 M232.857 84.280 C 232.667 84.807,232.517 85.424,232.525 85.652 C 232.532 85.880,232.737 85.499,232.981 84.805 C 233.224 84.111,233.373 83.494,233.313 83.434 C 233.252 83.373,233.047 83.754,232.857 84.280 M268.671 85.922 C 268.766 86.321,268.945 87.496,269.069 88.534 L 269.293 90.421 269.313 88.824 C 269.323 87.946,269.144 86.771,268.914 86.212 C 268.685 85.653,268.575 85.522,268.671 85.922 M160.409 86.647 C 160.648 87.715,160.814 87.946,160.808 87.204 C 160.806 86.898,160.671 86.451,160.509 86.212 C 160.294 85.894,160.267 86.011,160.409 86.647 M232.096 86.958 C 231.989 87.384,231.958 87.788,232.026 87.856 C 232.095 87.925,232.238 87.633,232.345 87.207 C 232.452 86.782,232.483 86.378,232.415 86.309 C 232.346 86.241,232.203 86.533,232.096 86.958 M123.477 90.856 C 123.477 92.692,123.524 93.443,123.582 92.525 C 123.639 91.607,123.639 90.105,123.582 89.187 C 123.524 88.269,123.477 89.020,123.477 90.856 M160.920 90.856 C 160.920 92.533,160.968 93.218,161.027 92.380 C 161.085 91.542,161.085 90.171,161.027 89.332 C 160.968 88.494,160.920 89.180,160.920 90.856 M231.733 90.856 C 231.733 91.894,231.786 92.319,231.850 91.800 C 231.914 91.281,231.914 90.432,231.850 89.913 C 231.786 89.394,231.733 89.819,231.733 90.856 M269.044 93.033 C 268.941 94.151,268.775 95.392,268.675 95.791 C 268.575 96.190,268.697 95.994,268.946 95.356 C 269.215 94.664,269.364 93.548,269.315 92.598 L 269.231 91.001 269.044 93.033 M231.971 94.049 C 231.971 94.289,232.083 94.746,232.221 95.065 C 232.378 95.431,232.470 95.485,232.470 95.210 C 232.470 94.971,232.358 94.514,232.221 94.194 C 232.063 93.829,231.971 93.775,231.971 94.049 M123.698 94.630 C 123.698 94.869,123.811 95.327,123.948 95.646 C 124.105 96.012,124.197 96.065,124.197 95.791 C 124.197 95.552,124.085 95.094,123.948 94.775 C 123.791 94.409,123.698 94.355,123.698 94.630 M160.398 95.086 C 160.291 95.511,160.260 95.915,160.328 95.984 C 160.397 96.052,160.540 95.760,160.647 95.335 C 160.754 94.909,160.785 94.505,160.717 94.437 C 160.648 94.369,160.505 94.661,160.398 95.086 M232.522 96.266 C 232.516 96.447,232.702 97.035,232.935 97.572 C 233.168 98.109,233.364 98.400,233.370 98.219 C 233.377 98.038,233.191 97.450,232.958 96.913 C 232.724 96.376,232.528 96.084,232.522 96.266 M159.965 96.603 C 159.952 96.811,159.682 97.519,159.363 98.178 C 159.045 98.836,158.833 99.423,158.891 99.481 C 159.088 99.678,160.263 96.898,160.125 96.561 C 160.033 96.336,159.980 96.349,159.965 96.603 M124.238 96.735 C 124.238 97.054,125.378 99.565,125.524 99.565 C 125.603 99.565,125.404 98.947,125.080 98.192 C 124.508 96.855,124.238 96.389,124.238 96.735 M267.540 98.556 C 267.432 98.871,267.265 99.325,267.169 99.565 C 267.072 99.804,267.213 99.703,267.481 99.339 C 267.749 98.976,267.916 98.522,267.852 98.331 C 267.787 98.136,267.650 98.234,267.540 98.556 M233.962 99.667 C 233.962 99.998,235.365 102.113,235.737 102.343 C 235.928 102.460,235.651 101.916,235.121 101.133 C 233.957 99.412,233.962 99.418,233.962 99.667 M125.691 100.024 C 125.692 100.171,126.029 100.682,126.441 101.161 L 127.189 102.032 126.533 101.016 C 125.692 99.713,125.689 99.709,125.691 100.024 M129.194 104.256 C 130.268 105.320,131.454 106.339,131.829 106.522 C 132.314 106.758,132.259 106.663,131.640 106.194 C 131.161 105.831,129.975 104.811,129.005 103.928 C 127.295 102.372,127.300 102.382,129.194 104.256 M155.360 103.962 C 154.356 104.938,153.580 105.781,153.634 105.836 C 153.689 105.890,154.571 105.089,155.596 104.056 C 157.955 101.675,157.782 101.607,155.360 103.962 M237.143 103.991 C 237.855 104.750,238.475 105.370,238.522 105.370 C 238.740 105.370,238.509 105.109,237.228 103.907 L 235.849 102.612 237.143 103.991 M262.833 104.809 C 262.728 104.979,262.113 105.501,261.466 105.970 C 260.819 106.438,260.424 106.821,260.587 106.821 C 260.921 106.821,263.537 104.530,263.225 104.511 C 263.114 104.505,262.938 104.639,262.833 104.809 M238.897 105.476 C 238.897 105.556,239.289 105.900,239.768 106.241 C 240.247 106.582,240.639 106.796,240.639 106.716 C 240.639 106.636,240.247 106.292,239.768 105.951 C 239.289 105.610,238.897 105.396,238.897 105.476 M132.656 106.966 C 132.656 107.104,134.970 108.273,135.242 108.273 C 135.498 108.273,134.312 107.546,133.454 107.177 C 133.015 106.988,132.656 106.893,132.656 106.966 M240.953 106.935 C 241.279 107.243,243.333 108.288,243.427 108.194 C 243.486 108.135,243.001 107.802,242.349 107.454 C 241.270 106.878,240.646 106.646,240.953 106.935 M258.636 107.561 C 257.917 107.934,257.411 108.246,257.512 108.256 C 257.874 108.290,259.761 107.404,259.939 107.116 C 260.161 106.757,260.229 106.734,258.636 107.561 M136.430 108.678 C 136.829 108.923,137.547 109.113,138.026 109.100 C 138.882 109.077,138.879 109.073,137.881 108.859 C 137.322 108.739,136.604 108.550,136.284 108.437 C 135.904 108.303,135.954 108.386,136.430 108.678 M147.947 108.463 C 147.842 108.568,147.265 108.749,146.665 108.865 C 145.669 109.058,145.649 109.079,146.444 109.100 C 146.923 109.113,147.642 108.936,148.041 108.708 C 148.440 108.480,148.625 108.289,148.452 108.283 C 148.279 108.277,148.052 108.358,147.947 108.463 M247.170 109.270 C 249.005 109.709,251.899 109.804,253.120 109.465 C 253.519 109.354,252.605 109.267,251.088 109.273 C 249.572 109.278,247.678 109.186,246.880 109.068 C 245.543 108.870,245.566 108.886,247.170 109.270 M254.354 109.054 C 254.634 109.127,255.091 109.127,255.370 109.054 C 255.649 108.980,255.421 108.921,254.862 108.921 C 254.303 108.921,254.075 108.980,254.354 109.054 M139.678 109.478 C 140.047 109.581,141.197 109.666,142.235 109.666 C 143.273 109.666,144.424 109.581,144.792 109.478 C 145.161 109.374,144.010 109.289,142.235 109.289 C 140.460 109.289,139.309 109.374,139.678 109.478 M241.147 112.552 C 242.304 112.607,244.198 112.607,245.356 112.552 C 246.513 112.497,245.566 112.452,243.251 112.452 C 240.936 112.452,239.989 112.497,241.147 112.552 M235.349 112.840 C 236.031 112.901,237.076 112.900,237.671 112.838 C 238.265 112.776,237.707 112.725,236.430 112.727 C 235.152 112.728,234.666 112.779,235.349 112.840 M249.274 112.840 C 249.953 112.901,251.063 112.901,251.742 112.840 C 252.420 112.778,251.865 112.728,250.508 112.728 C 249.151 112.728,248.596 112.778,249.274 112.840 M231.640 113.208 C 230.661 113.414,230.655 113.422,231.495 113.425 C 231.974 113.427,232.758 113.329,233.237 113.208 C 234.441 112.901,233.096 112.901,231.640 113.208 M253.846 113.196 C 254.733 113.433,257.090 113.585,256.870 113.391 C 256.803 113.332,255.900 113.212,254.862 113.124 C 253.673 113.023,253.297 113.050,253.846 113.196 M143.541 113.799 C 142.861 113.926,143.462 113.953,144.993 113.864 C 146.430 113.780,147.660 113.663,147.726 113.604 C 147.933 113.422,144.763 113.569,143.541 113.799 M151.838 113.603 C 151.905 113.661,153.462 113.776,155.298 113.859 C 157.443 113.956,158.117 113.928,157.184 113.779 C 155.713 113.545,151.617 113.410,151.838 113.603 M228.592 113.788 C 228.226 113.945,228.173 114.038,228.447 114.038 C 228.687 114.038,229.144 113.925,229.463 113.788 C 229.829 113.631,229.883 113.539,229.608 113.539 C 229.369 113.539,228.911 113.651,228.592 113.788 M258.345 113.788 C 258.745 113.916,259.332 114.021,259.652 114.021 C 260.111 114.021,260.081 113.972,259.507 113.788 C 259.107 113.660,258.520 113.556,258.200 113.556 C 257.741 113.556,257.771 113.604,258.345 113.788 M140.280 114.287 C 140.721 114.353,141.374 114.352,141.731 114.283 C 142.088 114.214,141.727 114.159,140.929 114.161 C 140.131 114.164,139.839 114.220,140.280 114.287 M159.434 114.286 C 159.873 114.353,160.591 114.353,161.030 114.286 C 161.470 114.220,161.110 114.165,160.232 114.165 C 159.354 114.165,158.995 114.220,159.434 114.286 M225.544 114.514 C 224.216 115.025,224.730 115.029,226.560 114.521 C 227.400 114.287,227.706 114.119,227.286 114.120 C 226.887 114.121,226.103 114.299,225.544 114.514 M260.740 114.278 C 261.020 114.351,261.477 114.351,261.756 114.278 C 262.036 114.205,261.807 114.146,261.248 114.146 C 260.689 114.146,260.461 114.205,260.740 114.278 M137.591 114.659 C 136.599 114.868,136.595 114.873,137.446 114.891 C 137.925 114.900,138.578 114.796,138.897 114.659 C 139.595 114.359,139.016 114.359,137.591 114.659 M162.554 114.645 C 163.280 114.891,165.081 115.045,164.852 114.841 C 164.786 114.782,164.078 114.658,163.280 114.566 C 162.301 114.453,162.065 114.478,162.554 114.645 M262.700 114.646 C 262.939 114.808,263.385 114.942,263.691 114.945 C 264.434 114.951,264.202 114.785,263.135 114.546 C 262.499 114.404,262.382 114.430,262.700 114.646 M134.688 115.239 C 134.111 115.612,134.836 115.612,135.704 115.239 L 136.284 114.990 135.704 114.974 C 135.385 114.965,134.927 115.085,134.688 115.239 M166.183 115.273 C 167.116 115.566,168.833 115.981,170.247 116.254 C 171.435 116.483,169.226 115.729,167.412 115.287 C 165.781 114.889,164.931 114.879,166.183 115.273 M264.756 115.054 C 264.822 115.111,265.269 115.245,265.747 115.353 C 266.383 115.495,266.501 115.468,266.183 115.253 C 265.791 114.987,264.464 114.802,264.756 115.054 M127.942 117.065 C 127.025 117.394,126.324 117.713,126.384 117.773 C 126.515 117.903,130.334 116.692,130.334 116.521 C 130.334 116.299,129.620 116.462,127.942 117.065 M218.215 117.296 C 217.297 117.756,216.546 118.194,216.546 118.269 C 216.546 118.413,218.893 117.355,219.884 116.764 C 220.981 116.110,219.883 116.460,218.215 117.296 M272.530 117.428 C 273.067 117.661,273.655 117.847,273.836 117.841 C 274.017 117.834,273.726 117.638,273.189 117.405 C 272.652 117.172,272.064 116.986,271.882 116.992 C 271.701 116.999,271.993 117.195,272.530 117.428 M124.673 118.298 C 124.194 118.517,123.999 118.698,124.238 118.699 C 124.478 118.701,125.000 118.516,125.399 118.287 C 126.317 117.763,125.827 117.770,124.673 118.298 M177.033 118.584 C 177.892 118.992,178.649 119.271,178.714 119.205 C 178.780 119.140,178.273 118.859,177.588 118.582 C 175.602 117.779,175.339 117.780,177.033 118.584 M274.891 118.287 C 275.290 118.516,275.813 118.702,276.052 118.701 C 276.292 118.701,276.048 118.509,275.511 118.276 C 274.275 117.739,273.943 117.745,274.891 118.287 M214.529 119.325 C 212.537 120.633,212.408 120.969,214.369 119.742 C 216.345 118.506,216.454 118.424,216.086 118.455 C 215.940 118.467,215.239 118.859,214.529 119.325 M120.816 119.936 C 120.132 120.268,119.619 120.587,119.677 120.645 C 119.808 120.775,122.206 119.634,122.206 119.442 C 122.206 119.258,122.239 119.246,120.816 119.936 M279.641 120.321 C 280.700 120.873,280.969 120.877,280.244 120.329 C 279.934 120.094,279.485 119.899,279.245 119.895 C 279.006 119.891,279.184 120.083,279.641 120.321 M117.781 121.411 C 117.183 121.744,116.744 122.065,116.804 122.125 C 116.899 122.220,118.949 121.179,119.279 120.869 C 119.604 120.563,118.749 120.872,117.781 121.411 M182.293 121.060 C 183.050 121.575,184.325 122.226,184.325 122.097 C 184.325 121.936,182.322 120.753,182.059 120.759 C 181.948 120.762,182.054 120.897,182.293 121.060 M211.453 121.422 C 209.650 122.727,206.513 125.343,205.951 126.011 C 205.631 126.391,205.962 126.180,206.686 125.542 C 207.410 124.905,208.763 123.795,209.692 123.077 C 212.184 121.151,212.643 120.774,212.482 120.779 C 212.402 120.781,211.939 121.071,211.453 121.422 M282.729 121.756 C 282.729 121.836,283.120 122.104,283.599 122.351 C 284.078 122.599,284.470 122.736,284.470 122.656 C 284.470 122.577,284.078 122.309,283.599 122.061 C 283.120 121.813,282.729 121.676,282.729 121.756 M186.938 123.763 C 186.938 123.843,187.329 124.187,187.808 124.528 C 188.287 124.869,188.679 125.083,188.679 125.003 C 188.679 124.923,188.287 124.579,187.808 124.238 C 187.329 123.897,186.938 123.683,186.938 123.763 M110.299 126.292 C 107.032 128.731,103.655 131.976,101.261 134.978 C 100.306 136.176,100.089 136.502,100.778 135.704 C 103.764 132.247,107.170 128.962,109.869 126.935 C 112.884 124.671,113.417 124.238,113.188 124.238 C 113.113 124.238,111.813 125.162,110.299 126.292 M189.840 125.979 C 193.030 128.922,195.793 131.267,193.896 129.420 C 192.854 128.406,191.287 127.006,190.413 126.309 C 189.539 125.612,189.282 125.464,189.840 125.979 M288.534 125.214 C 288.534 125.294,288.926 125.639,289.405 125.980 C 289.884 126.321,290.276 126.534,290.276 126.455 C 290.276 126.375,289.884 126.030,289.405 125.689 C 288.926 125.348,288.534 125.135,288.534 125.214 M292.308 128.165 C 293.345 129.086,295.559 131.224,297.226 132.916 C 299.555 135.281,299.836 135.509,298.438 133.899 C 296.496 131.663,294.549 129.806,292.000 127.760 C 290.764 126.768,290.831 126.856,292.308 128.165 M203.917 127.723 C 203.376 128.321,204.203 129.410,208.102 133.237 C 209.328 134.440,207.340 132.157,205.394 130.126 C 203.694 128.352,203.674 128.312,204.200 127.731 C 204.494 127.407,204.669 127.141,204.589 127.141 C 204.509 127.141,204.207 127.403,203.917 127.723 M196.915 133.031 C 197.693 133.942,198.390 134.688,198.466 134.688 C 198.661 134.688,196.243 131.829,195.837 131.580 C 195.652 131.466,196.137 132.119,196.915 133.031 M199.129 135.849 C 199.470 136.328,199.815 136.720,199.894 136.720 C 199.974 136.720,199.760 136.328,199.419 135.849 C 199.078 135.370,198.734 134.978,198.654 134.978 C 198.574 134.978,198.788 135.370,199.129 135.849 M211.156 137.314 C 212.795 139.604,213.378 140.099,211.892 137.938 C 211.200 136.931,210.497 136.023,210.329 135.919 C 210.161 135.815,210.533 136.443,211.156 137.314 M200.871 138.316 C 201.365 139.035,201.835 139.623,201.915 139.623 C 201.995 139.623,201.655 139.035,201.161 138.316 C 200.667 137.598,200.197 137.010,200.117 137.010 C 200.037 137.010,200.377 137.598,200.871 138.316 M301.597 138.171 C 301.938 138.650,302.282 139.042,302.362 139.042 C 302.442 139.042,302.228 138.650,301.887 138.171 C 301.546 137.692,301.201 137.300,301.122 137.300 C 301.042 137.300,301.255 137.692,301.597 138.171 M98.113 139.042 C 97.772 139.521,97.558 139.913,97.638 139.913 C 97.718 139.913,98.062 139.521,98.403 139.042 C 98.745 138.563,98.958 138.171,98.878 138.171 C 98.799 138.171,98.454 138.563,98.113 139.042 M303.361 140.731 C 303.875 141.558,304.350 142.235,304.416 142.235 C 304.625 142.235,303.231 139.895,302.819 139.553 C 302.603 139.374,302.846 139.904,303.361 140.731 M213.488 140.765 C 213.731 141.234,214.061 141.699,214.222 141.799 C 214.383 141.898,214.240 141.515,213.905 140.946 C 213.170 139.700,212.870 139.570,213.488 140.765 M96.044 142.308 C 95.853 142.667,95.450 143.401,95.149 143.938 C 94.848 144.476,94.649 144.964,94.708 145.022 C 94.766 145.081,95.234 144.347,95.747 143.392 C 96.259 142.436,96.614 141.655,96.535 141.655 C 96.457 141.655,96.235 141.948,96.044 142.308 M203.483 142.551 C 203.483 142.824,204.653 145.138,204.790 145.138 C 204.863 145.138,204.768 144.779,204.579 144.340 C 204.210 143.482,203.483 142.296,203.483 142.551 M305.225 143.977 C 305.473 144.456,305.741 144.848,305.820 144.848 C 305.900 144.848,305.763 144.456,305.515 143.977 C 305.268 143.498,305.000 143.106,304.920 143.106 C 304.840 143.106,304.977 143.498,305.225 143.977 M215.986 144.993 C 215.986 145.152,216.172 145.610,216.401 146.009 C 216.629 146.408,216.815 146.604,216.815 146.444 C 216.815 146.284,216.629 145.827,216.401 145.428 C 216.172 145.029,215.986 144.833,215.986 144.993 M305.971 145.283 C 305.971 145.443,306.158 145.900,306.386 146.299 C 306.614 146.698,306.801 146.894,306.801 146.734 C 306.801 146.575,306.614 146.118,306.386 145.718 C 306.158 145.319,305.971 145.123,305.971 145.283 M93.766 146.644 C 93.443 147.312,93.179 147.929,93.179 148.015 C 93.179 148.270,93.905 147.084,94.274 146.226 C 94.815 144.969,94.417 145.296,93.766 146.644 M306.821 147.226 C 306.821 147.318,307.017 147.768,307.255 148.225 C 307.494 148.682,307.685 148.861,307.681 148.621 C 307.677 148.382,307.482 147.932,307.248 147.622 C 307.013 147.312,306.821 147.134,306.821 147.226 M92.589 149.218 C 92.414 149.546,92.313 149.944,92.366 150.101 C 92.418 150.259,92.611 149.990,92.795 149.505 C 93.176 148.494,93.062 148.335,92.589 149.218 M206.988 150.363 C 206.987 150.781,207.806 152.443,207.827 152.065 C 207.833 151.964,207.647 151.441,207.413 150.904 C 207.180 150.367,206.989 150.123,206.988 150.363 M308.866 152.144 C 308.859 152.405,309.044 153.058,309.277 153.595 C 309.826 154.858,309.839 154.334,309.297 152.830 C 309.067 152.192,308.873 151.883,308.866 152.144 M90.793 154.136 C 90.694 154.536,90.530 155.189,90.428 155.588 C 90.314 156.039,90.418 155.935,90.705 155.313 C 90.959 154.762,91.123 154.109,91.070 153.861 C 91.009 153.578,90.906 153.681,90.793 154.136 M208.437 154.456 C 208.415 154.990,209.016 156.828,209.165 156.680 C 209.219 156.625,209.082 155.998,208.860 155.286 C 208.638 154.574,208.448 154.200,208.437 154.456 M219.916 155.733 C 220.155 156.800,220.321 157.032,220.315 156.289 C 220.312 155.983,220.178 155.537,220.016 155.298 C 219.801 154.980,219.774 155.097,219.916 155.733 M241.147 156.674 C 242.144 156.730,243.777 156.730,244.775 156.674 C 245.773 156.617,244.956 156.570,242.961 156.570 C 240.965 156.570,240.149 156.617,241.147 156.674 M89.732 157.809 C 88.950 160.789,88.755 161.711,88.883 161.839 C 88.959 161.915,89.187 161.225,89.390 160.306 C 89.592 159.388,89.875 158.255,90.018 157.790 C 90.161 157.325,90.222 156.888,90.152 156.819 C 90.083 156.749,89.894 157.195,89.732 157.809 M237.591 157.039 C 237.225 157.196,237.171 157.289,237.446 157.289 C 237.685 157.289,238.142 157.176,238.462 157.039 C 238.827 156.882,238.881 156.790,238.607 156.790 C 238.367 156.790,237.910 156.902,237.591 157.039 M247.750 157.039 C 248.229 157.161,248.948 157.263,249.347 157.266 L 250.073 157.272 249.347 157.039 C 248.948 156.911,248.229 156.809,247.750 156.812 L 246.880 156.818 247.750 157.039 M310.346 157.329 C 310.348 157.729,310.525 158.512,310.740 159.071 C 311.252 160.399,311.255 159.885,310.747 158.055 C 310.514 157.215,310.345 156.909,310.346 157.329 M209.293 157.789 C 209.296 158.095,209.430 158.541,209.592 158.781 C 209.808 159.099,209.834 158.981,209.692 158.345 C 209.453 157.278,209.287 157.046,209.293 157.789 M234.543 157.783 C 233.984 157.995,233.740 158.175,234.002 158.184 C 234.263 158.193,234.916 158.009,235.453 157.776 C 236.662 157.251,235.934 157.257,234.543 157.783 M250.822 157.433 C 250.889 157.490,251.401 157.620,251.959 157.723 C 252.674 157.854,252.846 157.825,252.540 157.624 C 252.146 157.366,250.535 157.187,250.822 157.433 M220.369 157.910 C 220.383 158.664,220.840 159.903,220.851 159.216 C 220.855 158.897,220.747 158.374,220.610 158.055 C 220.457 157.699,220.363 157.643,220.369 157.910 M230.769 159.216 C 230.370 159.444,230.174 159.631,230.334 159.631 C 230.493 159.631,230.951 159.444,231.350 159.216 C 231.749 158.988,231.945 158.801,231.785 158.801 C 231.626 158.801,231.168 158.988,230.769 159.216 M257.886 159.519 C 258.831 159.911,259.650 160.185,259.707 160.128 C 259.842 159.993,256.914 158.777,256.492 158.793 C 256.314 158.800,256.941 159.126,257.886 159.519 M146.965 159.577 C 148.210 159.632,150.169 159.632,151.320 159.577 C 152.470 159.522,151.451 159.477,149.057 159.477 C 146.662 159.478,145.721 159.523,146.965 159.577 M141.800 159.942 C 140.593 160.249,141.781 160.263,143.251 159.959 C 144.227 159.757,144.274 159.719,143.541 159.719 C 143.062 159.720,142.279 159.820,141.800 159.942 M154.282 159.942 C 154.761 160.064,155.479 160.164,155.878 160.164 C 156.525 160.164,156.510 160.140,155.733 159.942 C 155.254 159.820,154.536 159.720,154.136 159.720 C 153.489 159.720,153.505 159.744,154.282 159.942 M220.997 161.974 C 220.997 163.171,221.049 163.661,221.111 163.062 C 221.174 162.464,221.174 161.484,221.111 160.885 C 221.049 160.287,220.997 160.776,220.997 161.974 M137.591 160.682 C 136.872 160.888,136.546 161.061,136.865 161.067 C 137.184 161.073,138.099 160.896,138.897 160.674 C 139.695 160.453,140.022 160.280,139.623 160.290 C 139.224 160.300,138.309 160.476,137.591 160.682 M157.063 160.336 C 157.130 160.393,157.642 160.523,158.200 160.626 C 158.915 160.757,159.087 160.727,158.781 160.527 C 158.387 160.269,156.775 160.089,157.063 160.336 M260.540 160.658 C 260.849 160.893,261.204 161.089,261.328 161.094 C 261.647 161.107,265.316 163.403,266.174 164.127 C 266.750 164.613,266.810 164.626,266.477 164.194 C 266.249 163.898,265.403 163.235,264.597 162.719 C 261.752 160.899,259.030 159.517,260.540 160.658 M160.087 161.111 C 162.194 161.688,162.464 161.716,161.538 161.264 C 161.060 161.030,160.341 160.846,159.942 160.856 C 159.274 160.871,159.286 160.891,160.087 161.111 M210.209 161.393 C 210.224 162.148,210.681 163.386,210.691 162.700 C 210.696 162.380,210.587 161.858,210.450 161.538 C 210.297 161.183,210.204 161.127,210.209 161.393 M311.225 161.393 C 311.240 162.148,311.697 163.386,311.707 162.700 C 311.712 162.380,311.603 161.858,311.466 161.538 C 311.313 161.183,311.220 161.127,311.225 161.393 M163.386 162.130 C 163.923 162.364,164.511 162.549,164.692 162.543 C 164.873 162.537,164.582 162.341,164.045 162.108 C 163.508 161.874,162.920 161.689,162.739 161.695 C 162.558 161.701,162.849 161.897,163.386 162.130 M222.993 163.861 C 221.355 165.334,221.284 165.363,221.100 164.659 C 220.997 164.267,220.960 164.296,220.934 164.787 C 220.876 165.866,221.272 165.742,223.051 164.119 C 223.995 163.259,224.695 162.554,224.607 162.554 C 224.518 162.554,223.792 163.142,222.993 163.861 M88.389 163.716 C 88.279 164.217,88.254 164.693,88.334 164.773 C 88.414 164.853,88.569 164.508,88.679 164.006 C 88.789 163.504,88.814 163.028,88.734 162.948 C 88.655 162.869,88.499 163.214,88.389 163.716 M129.390 163.735 C 128.792 164.051,128.302 164.375,128.302 164.454 C 128.302 164.583,130.595 163.512,130.890 163.244 C 131.224 162.942,130.352 163.228,129.390 163.735 M166.352 163.237 C 166.711 163.539,170.200 165.171,169.956 164.923 C 169.621 164.581,166.788 163.135,166.455 163.135 C 166.332 163.135,166.286 163.181,166.352 163.237 M311.835 164.877 C 311.835 165.595,311.892 165.889,311.961 165.530 C 312.030 165.171,312.030 164.583,311.961 164.224 C 311.892 163.864,311.835 164.158,311.835 164.877 M210.803 164.586 C 210.801 164.985,210.903 165.639,211.030 166.038 C 211.343 167.013,211.343 165.959,211.030 164.731 C 210.831 163.949,210.808 163.935,210.803 164.586 M267.054 164.667 C 267.054 164.743,267.929 165.573,269.000 166.510 C 270.070 167.448,270.854 168.065,270.743 167.882 C 270.493 167.472,267.054 164.475,267.054 164.667 M87.855 166.909 C 87.596 169.080,87.368 172.089,87.503 171.553 C 87.806 170.345,88.305 166.078,88.184 165.721 C 88.108 165.496,87.960 166.030,87.855 166.909 M124.746 166.768 C 123.828 167.489,123.077 168.141,123.077 168.219 C 123.077 168.296,123.861 167.751,124.819 167.007 C 126.362 165.808,126.741 165.457,126.488 165.457 C 126.448 165.457,125.664 166.047,124.746 166.768 M312.258 168.215 C 312.345 169.332,312.464 170.301,312.522 170.368 C 312.715 170.590,312.561 167.936,312.329 167.054 C 312.190 166.526,312.162 166.982,312.258 168.215 M211.414 168.650 C 211.414 169.688,211.466 170.112,211.531 169.594 C 211.595 169.075,211.595 168.226,211.531 167.707 C 211.466 167.188,211.414 167.612,211.414 168.650 M173.875 167.553 C 173.875 167.610,174.496 168.166,175.254 168.790 C 176.012 169.413,176.372 169.622,176.052 169.255 C 175.488 168.606,173.875 167.345,173.875 167.553 M272.812 170.827 C 274.461 173.027,274.668 173.245,274.022 172.102 C 273.697 171.526,273.145 170.807,272.795 170.505 C 272.160 169.958,272.161 169.959,272.812 170.827 M211.750 172.569 L 211.855 174.601 205.132 181.422 L 198.409 188.244 205.028 181.713 C 212.707 174.136,212.191 174.835,211.885 172.424 L 211.645 170.537 211.750 172.569 M178.124 171.291 C 178.262 171.546,179.013 172.460,179.794 173.323 C 180.574 174.185,180.938 174.499,180.602 174.020 C 179.827 172.916,177.790 170.672,178.124 171.291 M312.772 182.003 C 312.772 187.511,312.855 191.168,312.956 190.131 C 313.057 189.093,313.140 185.435,313.140 182.003 C 313.140 178.570,313.057 174.913,312.956 173.875 C 312.855 172.837,312.772 176.495,312.772 182.003 M117.679 174.625 C 117.109 175.516,116.687 176.291,116.743 176.346 C 116.798 176.401,117.326 175.672,117.916 174.725 C 118.505 173.779,118.927 173.004,118.852 173.004 C 118.777 173.004,118.249 173.734,117.679 174.625 M275.214 174.452 C 275.572 175.089,275.913 175.563,275.971 175.505 C 276.095 175.380,274.895 173.295,274.699 173.295 C 274.624 173.295,274.857 173.816,275.214 174.452 M86.983 176.705 C 86.756 180.135,86.799 192.626,87.048 195.646 C 87.147 196.843,87.228 192.435,87.228 185.849 C 87.228 179.263,87.215 173.875,87.199 173.875 C 87.183 173.875,87.086 175.149,86.983 176.705 M182.210 176.764 C 182.804 177.714,183.334 178.446,183.389 178.392 C 183.508 178.272,181.463 175.036,181.267 175.036 C 181.192 175.036,181.616 175.814,182.210 176.764 M115.528 178.571 C 115.050 179.557,114.662 180.504,114.666 180.676 C 114.669 180.847,114.888 180.530,115.152 179.971 C 115.417 179.412,115.873 178.465,116.168 177.866 C 116.462 177.268,116.634 176.778,116.549 176.778 C 116.465 176.778,116.005 177.585,115.528 178.571 M277.236 178.246 C 277.224 178.495,277.416 178.952,277.665 179.262 C 278.109 179.817,278.112 179.817,277.849 179.245 C 277.702 178.926,277.509 178.469,277.421 178.229 C 277.281 177.853,277.256 177.856,277.236 178.246 M114.369 181.160 C 114.369 181.229,114.107 182.000,113.788 182.874 C 113.469 183.747,113.213 184.660,113.220 184.902 C 113.227 185.143,113.545 184.430,113.928 183.315 C 114.310 182.201,114.566 181.232,114.496 181.163 C 114.426 181.093,114.369 181.092,114.369 181.160 M278.688 181.858 C 278.686 182.177,278.872 182.765,279.100 183.164 C 279.630 184.091,279.633 183.893,279.109 182.438 C 278.878 181.800,278.689 181.538,278.688 181.858 M186.372 185.690 C 186.364 185.882,186.475 186.339,186.620 186.706 C 186.764 187.073,187.046 188.125,187.247 189.044 C 187.448 189.963,187.670 190.656,187.741 190.585 C 187.813 190.514,187.709 189.762,187.512 188.914 C 187.107 187.175,186.395 185.160,186.372 185.690 M112.215 188.679 C 111.920 190.449,111.735 192.083,111.871 191.727 C 112.199 190.865,112.682 188.120,112.567 187.775 C 112.493 187.554,112.335 187.961,112.215 188.679 M280.594 188.679 C 280.823 189.931,280.988 190.167,280.982 189.236 C 280.980 188.850,280.850 188.338,280.693 188.099 C 280.492 187.792,280.462 187.964,280.594 188.679 M193.901 192.961 L 189.405 197.533 193.977 193.037 C 198.224 188.860,198.680 188.389,198.473 188.389 C 198.431 188.389,196.373 190.446,193.901 192.961 M281.050 191.437 C 281.053 191.756,281.155 192.409,281.277 192.888 C 281.476 193.670,281.499 193.685,281.504 193.033 C 281.507 192.634,281.405 191.981,281.277 191.582 C 281.095 191.013,281.046 190.982,281.050 191.437 M187.872 192.017 C 187.875 192.337,187.977 192.990,188.099 193.469 C 188.298 194.251,188.321 194.266,188.326 193.614 C 188.329 193.215,188.227 192.562,188.099 192.163 C 187.917 191.594,187.867 191.562,187.872 192.017 M111.310 194.619 C 111.197 195.518,111.171 196.318,111.251 196.398 C 111.330 196.478,111.488 195.808,111.600 194.909 C 111.712 194.010,111.739 193.209,111.659 193.130 C 111.579 193.050,111.422 193.720,111.310 194.619 M281.691 200.145 C 281.691 203.657,281.733 205.054,281.784 203.250 C 281.835 201.445,281.835 198.571,281.784 196.863 C 281.733 195.156,281.691 196.633,281.691 200.145 M312.232 195.646 C 311.958 198.004,311.745 200.871,311.888 200.290 C 312.198 199.032,312.681 194.842,312.575 194.340 C 312.507 194.020,312.353 194.608,312.232 195.646 M188.445 196.137 C 188.388 197.956,188.720 198.627,189.358 197.984 C 189.615 197.724,189.578 197.688,189.202 197.831 C 188.775 197.993,188.694 197.769,188.605 196.179 L 188.501 194.340 188.445 196.137 M111.013 205.515 C 111.013 210.065,111.053 211.927,111.102 209.652 C 111.151 207.377,111.151 203.654,111.102 201.379 C 111.053 199.104,111.013 200.965,111.013 205.515 M87.407 201.330 C 87.426 202.115,87.543 203.149,87.668 203.628 C 87.800 204.139,87.829 203.598,87.738 202.322 C 87.560 199.825,87.356 199.215,87.407 201.330 M311.321 202.322 C 311.209 202.982,311.179 203.583,311.253 203.658 C 311.328 203.732,311.476 203.249,311.582 202.583 C 311.688 201.918,311.719 201.317,311.649 201.248 C 311.580 201.179,311.432 201.662,311.321 202.322 M88.041 206.096 C 88.041 206.974,88.095 207.333,88.161 206.894 C 88.228 206.455,88.228 205.737,88.161 205.298 C 88.095 204.858,88.041 205.218,88.041 206.096 M310.639 206.295 C 310.424 207.263,310.311 208.300,310.388 208.600 C 310.475 208.938,310.540 208.804,310.561 208.244 C 310.580 207.749,310.736 206.938,310.909 206.443 C 311.082 205.947,311.180 205.315,311.126 205.038 C 311.073 204.761,310.854 205.327,310.639 206.295 M281.158 208.664 C 281.042 209.837,281.009 210.859,281.086 210.936 C 281.278 211.128,281.662 207.395,281.500 206.916 C 281.429 206.704,281.275 207.491,281.158 208.664 M88.313 208.708 C 88.313 209.107,88.412 209.826,88.534 210.305 C 88.732 211.082,88.756 211.097,88.756 210.450 C 88.756 210.051,88.656 209.332,88.534 208.853 C 88.336 208.077,88.313 208.061,88.313 208.708 M309.468 211.950 C 309.449 212.216,309.359 212.674,309.267 212.966 C 309.109 213.470,309.117 213.471,309.432 212.981 C 309.614 212.696,309.704 212.239,309.632 211.965 C 309.514 211.515,309.498 211.514,309.468 211.950 M89.009 213.353 C 89.392 216.080,89.620 217.065,89.647 216.110 C 89.660 215.631,89.480 214.521,89.248 213.643 C 88.851 212.146,88.837 212.128,89.009 213.353 M280.740 213.389 C 280.716 213.808,280.632 214.592,280.553 215.131 L 280.408 216.110 280.714 215.136 C 280.882 214.600,280.966 213.816,280.902 213.394 L 280.784 212.627 280.740 213.389 M308.797 214.369 C 308.698 214.848,308.539 215.566,308.442 215.965 C 308.323 216.459,308.412 216.378,308.721 215.712 C 308.970 215.173,309.130 214.455,309.076 214.115 C 308.996 213.615,308.943 213.663,308.797 214.369 M111.233 214.949 C 111.225 215.428,111.323 216.408,111.451 217.126 C 111.623 218.090,111.687 218.204,111.698 217.562 C 111.706 217.083,111.609 216.103,111.481 215.385 C 111.309 214.421,111.244 214.307,111.233 214.949 M280.195 217.417 C 280.195 218.135,280.252 218.429,280.321 218.070 C 280.390 217.710,280.390 217.123,280.321 216.763 C 280.252 216.404,280.195 216.698,280.195 217.417 M89.736 217.417 C 89.736 217.656,89.848 218.113,89.985 218.433 C 90.143 218.798,90.235 218.852,90.235 218.578 C 90.235 218.338,90.123 217.881,89.985 217.562 C 89.828 217.196,89.736 217.142,89.736 217.417 M279.717 219.775 C 279.615 220.285,279.585 220.756,279.651 220.822 C 279.717 220.888,279.861 220.531,279.971 220.029 C 280.081 219.527,280.111 219.056,280.037 218.982 C 279.963 218.908,279.819 219.265,279.717 219.775 M111.785 220.198 C 111.801 220.664,111.925 221.372,112.061 221.771 C 112.227 222.260,112.253 222.024,112.140 221.045 C 111.951 219.412,111.741 218.911,111.785 220.198 M90.459 220.755 C 90.563 221.234,90.745 222.083,90.864 222.642 C 91.074 223.629,91.080 223.633,91.091 222.787 C 91.097 222.308,90.915 221.459,90.686 220.900 C 90.308 219.975,90.287 219.962,90.459 220.755 M279.136 222.968 C 279.034 223.478,279.005 223.949,279.071 224.015 C 279.136 224.081,279.280 223.724,279.390 223.222 C 279.501 222.720,279.530 222.249,279.456 222.175 C 279.382 222.101,279.238 222.458,279.136 222.968 M306.288 222.799 C 306.102 223.206,305.956 223.762,305.963 224.034 C 305.970 224.306,306.160 224.011,306.386 223.378 C 306.854 222.064,306.792 221.694,306.288 222.799 M112.410 223.657 C 112.413 224.296,112.473 224.523,112.542 224.162 C 112.611 223.801,112.609 223.278,112.536 223.001 C 112.464 222.723,112.407 223.019,112.410 223.657 M278.602 225.399 C 278.494 226.038,278.330 226.887,278.239 227.286 C 278.147 227.685,278.276 227.489,278.525 226.851 C 278.774 226.212,278.937 225.363,278.889 224.964 C 278.821 224.408,278.754 224.509,278.602 225.399 M112.676 225.254 C 112.691 226.008,113.148 227.247,113.158 226.560 C 113.163 226.241,113.054 225.718,112.917 225.399 C 112.764 225.043,112.671 224.987,112.676 225.254 M91.878 226.705 C 92.421 228.857,92.539 229.171,92.568 228.553 C 92.585 228.212,92.395 227.494,92.147 226.956 C 91.850 226.314,91.758 226.228,91.878 226.705 M304.837 226.863 C 304.651 227.270,304.504 227.761,304.511 227.953 C 304.517 228.145,304.715 227.858,304.951 227.315 C 305.447 226.172,305.342 225.755,304.837 226.863 M113.240 227.866 C 113.236 228.106,113.415 228.955,113.636 229.753 C 113.858 230.552,114.046 230.943,114.054 230.624 C 114.063 230.305,113.884 229.456,113.658 228.737 C 113.432 228.019,113.243 227.627,113.240 227.866 M93.194 231.205 C 93.190 231.364,93.375 232.017,93.606 232.656 C 93.836 233.295,94.030 233.604,94.037 233.342 C 94.044 233.081,93.859 232.428,93.625 231.891 C 93.392 231.354,93.198 231.045,93.194 231.205 M302.987 231.502 C 302.897 231.818,302.735 232.337,302.627 232.656 C 302.519 232.975,302.643 232.870,302.903 232.421 C 303.162 231.972,303.324 231.453,303.262 231.267 C 303.200 231.081,303.076 231.187,302.987 231.502 M114.119 231.640 C 114.119 231.880,114.231 232.337,114.369 232.656 C 114.526 233.022,114.618 233.076,114.618 232.801 C 114.618 232.562,114.506 232.104,114.369 231.785 C 114.211 231.419,114.119 231.366,114.119 231.640 M114.676 233.672 C 114.671 233.911,114.856 234.630,115.086 235.269 C 115.316 235.907,115.508 236.234,115.513 235.994 C 115.517 235.755,115.333 235.036,115.103 234.398 C 114.873 233.759,114.681 233.433,114.676 233.672 M301.634 234.674 C 300.781 236.487,300.883 236.760,301.755 235.001 C 302.145 234.215,302.416 233.524,302.358 233.465 C 302.299 233.407,301.974 233.951,301.634 234.674 M275.698 235.994 C 275.600 236.393,275.436 237.046,275.334 237.446 C 275.219 237.897,275.324 237.793,275.611 237.170 C 275.865 236.620,276.029 235.967,275.975 235.719 C 275.914 235.436,275.811 235.538,275.698 235.994 M116.122 238.501 C 116.115 238.682,116.301 239.270,116.534 239.807 C 116.768 240.344,116.964 240.635,116.970 240.454 C 116.976 240.273,116.790 239.685,116.557 239.148 C 116.324 238.611,116.128 238.320,116.122 238.501 M96.190 239.768 C 96.445 240.710,97.322 242.688,97.435 242.575 C 97.500 242.509,97.221 241.753,96.813 240.894 C 96.406 240.035,96.125 239.528,96.190 239.768 M298.661 240.711 C 298.317 241.390,297.578 242.794,297.019 243.832 C 296.460 244.869,296.140 245.588,296.308 245.428 C 296.718 245.039,299.651 239.478,299.447 239.478 C 299.358 239.478,299.005 240.033,298.661 240.711 M274.261 240.348 C 274.170 240.747,274.005 241.335,273.894 241.655 C 273.784 241.974,273.905 241.868,274.165 241.420 C 274.425 240.972,274.590 240.384,274.532 240.114 C 274.457 239.763,274.379 239.831,274.261 240.348 M97.533 243.022 C 97.533 243.335,98.415 245.283,98.556 245.283 C 98.636 245.283,98.500 244.800,98.253 244.209 C 97.818 243.168,97.533 242.698,97.533 243.022 M118.164 244.122 C 118.163 244.540,118.982 246.202,119.003 245.824 C 119.008 245.723,118.822 245.200,118.589 244.663 C 118.356 244.126,118.164 243.882,118.164 244.122 M272.798 244.275 C 272.708 244.590,272.546 245.109,272.438 245.428 C 272.330 245.747,272.454 245.642,272.714 245.193 C 272.974 244.744,273.136 244.225,273.074 244.039 C 273.012 243.854,272.888 243.959,272.798 244.275 M98.718 245.718 C 98.718 245.878,98.968 246.466,99.274 247.025 C 99.580 247.583,99.831 247.910,99.831 247.750 C 99.831 247.591,99.580 247.003,99.274 246.444 C 98.968 245.885,98.718 245.559,98.718 245.718 M119.023 246.193 C 119.018 246.294,119.204 246.817,119.437 247.354 C 119.670 247.891,119.862 248.135,119.862 247.896 C 119.863 247.477,119.044 245.815,119.023 246.193 M271.447 247.644 C 271.103 248.471,270.870 249.196,270.928 249.254 C 270.987 249.313,271.316 248.684,271.659 247.857 C 272.003 247.030,272.236 246.305,272.178 246.247 C 272.119 246.188,271.790 246.817,271.447 247.644 M269.713 251.536 C 269.227 252.604,269.320 252.832,269.846 251.861 C 270.091 251.408,270.238 250.983,270.171 250.917 C 270.105 250.850,269.899 251.129,269.713 251.536 M101.742 251.959 C 101.989 252.438,102.257 252.830,102.337 252.830 C 102.417 252.830,102.280 252.438,102.032 251.959 C 101.784 251.480,101.516 251.089,101.436 251.089 C 101.357 251.089,101.494 251.480,101.742 251.959 M121.916 252.900 C 121.916 253.203,123.179 255.438,123.288 255.328 C 123.347 255.269,123.114 254.715,122.770 254.098 C 122.098 252.893,121.916 252.638,121.916 252.900 M290.856 253.701 C 290.515 254.180,290.302 254.572,290.381 254.572 C 290.461 254.572,290.806 254.180,291.147 253.701 C 291.488 253.222,291.701 252.830,291.622 252.830 C 291.542 252.830,291.197 253.222,290.856 253.701 M288.733 256.749 C 287.987 257.787,287.437 258.636,287.511 258.636 C 287.637 258.636,289.629 256.007,290.094 255.225 C 290.677 254.245,289.943 255.067,288.733 256.749 M124.673 258.345 C 124.921 258.824,125.189 259.216,125.269 259.216 C 125.349 259.216,125.211 258.824,124.964 258.345 C 124.716 257.866,124.448 257.475,124.368 257.475 C 124.288 257.475,124.426 257.866,124.673 258.345 M265.602 259.797 C 265.277 260.435,265.075 260.958,265.155 260.958 C 265.235 260.958,265.567 260.435,265.893 259.797 C 266.218 259.158,266.420 258.636,266.340 258.636 C 266.260 258.636,265.928 259.158,265.602 259.797 M283.806 263.135 C 282.408 264.811,281.323 266.183,281.396 266.183 C 281.469 266.183,282.486 265.040,283.656 263.643 C 286.196 260.610,286.609 260.087,286.461 260.087 C 286.399 260.087,285.204 261.459,283.806 263.135 M126.879 262.247 C 127.214 262.815,127.544 263.280,127.612 263.280 C 127.819 263.280,126.876 261.589,126.562 261.394 C 126.401 261.295,126.543 261.678,126.879 262.247 M264.168 262.301 C 263.826 262.880,263.594 263.401,263.652 263.459 C 263.710 263.517,264.050 263.043,264.408 262.406 C 265.221 260.960,265.013 260.868,264.168 262.301 M109.685 264.586 C 110.010 265.065,110.619 265.849,111.040 266.328 L 111.804 267.199 111.214 266.328 C 110.890 265.849,110.281 265.065,109.860 264.586 L 109.096 263.716 109.685 264.586 M262.425 265.398 C 259.778 269.660,259.214 270.617,259.571 270.247 C 260.138 269.658,263.045 264.980,262.921 264.857 C 262.867 264.802,262.644 265.046,262.425 265.398 M130.237 267.639 C 130.522 268.120,131.058 268.871,131.429 269.308 C 131.800 269.744,131.622 269.351,131.033 268.433 C 129.916 266.693,129.338 266.116,130.237 267.639 M274.194 273.538 C 268.030 279.772,267.754 280.151,273.099 275.038 C 275.082 273.141,281.180 266.732,280.947 266.789 C 280.889 266.803,277.850 269.840,274.194 273.538 M112.570 268.433 C 113.045 269.031,113.980 270.109,114.647 270.827 C 115.315 271.546,114.982 271.056,113.907 269.739 C 112.833 268.422,111.898 267.344,111.831 267.344 C 111.763 267.344,112.096 267.834,112.570 268.433 M258.517 271.553 C 258.256 271.952,258.154 272.279,258.292 272.279 C 258.430 272.279,258.691 271.952,258.873 271.553 C 259.055 271.154,259.156 270.827,259.098 270.827 C 259.040 270.827,258.779 271.154,258.517 271.553 M133.237 271.988 C 133.578 272.467,133.922 272.859,134.002 272.859 C 134.082 272.859,133.868 272.467,133.527 271.988 C 133.186 271.509,132.841 271.118,132.762 271.118 C 132.682 271.118,132.896 271.509,133.237 271.988 M120.174 276.778 C 122.485 279.093,124.441 280.987,124.521 280.987 C 124.601 280.987,122.775 279.093,120.464 276.778 C 118.154 274.463,116.198 272.569,116.118 272.569 C 116.038 272.569,117.863 274.463,120.174 276.778 M257.028 273.803 C 256.581 274.481,256.400 274.883,256.627 274.696 C 257.063 274.336,258.174 272.569,257.965 272.569 C 257.897 272.569,257.476 273.124,257.028 273.803 M255.443 276.052 C 255.102 276.531,254.888 276.923,254.968 276.923 C 255.048 276.923,255.392 276.531,255.733 276.052 C 256.074 275.573,256.288 275.181,256.208 275.181 C 256.128 275.181,255.784 275.573,255.443 276.052 M136.379 276.270 C 136.691 276.709,137.248 277.329,137.615 277.649 C 137.982 277.968,137.773 277.609,137.150 276.851 C 135.902 275.332,135.488 275.021,136.379 276.270 M254.101 277.866 C 253.244 278.845,252.743 279.536,252.891 279.536 C 252.964 279.536,253.443 279.013,253.956 278.374 C 254.953 277.135,255.054 276.779,254.101 277.866 M138.991 279.463 C 139.304 279.902,139.860 280.522,140.228 280.842 C 140.595 281.161,140.385 280.802,139.762 280.044 C 138.514 278.525,138.101 278.214,138.991 279.463 M252.075 280.479 C 250.803 281.946,250.426 282.438,250.573 282.438 C 250.659 282.438,251.210 281.851,251.799 281.132 C 252.889 279.801,253.105 279.291,252.075 280.479 M265.370 281.727 C 264.364 282.597,263.646 283.309,263.773 283.309 C 263.901 283.308,264.790 282.596,265.747 281.725 C 268.001 279.677,267.739 279.679,265.370 281.727 M125.399 281.650 C 125.399 281.726,126.145 282.424,127.056 283.201 C 127.968 283.979,128.621 284.464,128.507 284.279 C 128.258 283.873,125.399 281.456,125.399 281.650 M142.925 283.987 C 144.148 285.333,147.236 288.422,149.787 290.852 C 152.795 293.716,154.439 295.489,154.460 295.893 C 154.488 296.411,154.517 296.428,154.630 295.990 C 154.731 295.603,152.904 293.619,147.735 288.501 C 143.867 284.672,141.703 282.640,142.925 283.987 M247.884 285.500 C 246.552 287.024,243.659 289.975,241.454 292.059 C 238.583 294.773,237.455 296.025,237.479 296.473 C 237.511 297.060,237.521 297.062,237.653 296.517 C 237.730 296.197,240.107 293.650,242.934 290.856 C 247.430 286.415,250.831 282.729,250.434 282.729 C 250.363 282.729,249.215 283.976,247.884 285.500 M261.684 284.792 C 259.471 286.579,259.133 287.055,261.163 285.524 C 262.705 284.362,263.555 283.572,263.225 283.610 C 263.175 283.615,262.482 284.148,261.684 284.792 M130.044 285.437 C 130.044 285.517,130.566 285.996,131.205 286.502 C 131.843 287.008,132.366 287.356,132.366 287.277 C 132.366 287.197,131.843 286.718,131.205 286.212 C 130.566 285.706,130.044 285.358,130.044 285.437 M132.656 287.479 C 132.656 287.558,133.048 287.903,133.527 288.244 C 134.006 288.585,134.398 288.799,134.398 288.719 C 134.398 288.639,134.006 288.295,133.527 287.954 C 133.048 287.613,132.656 287.399,132.656 287.479 M134.688 288.942 C 134.688 289.021,135.276 289.491,135.994 289.985 C 136.713 290.480,137.300 290.819,137.300 290.739 C 137.300 290.659,136.713 290.190,135.994 289.695 C 135.276 289.201,134.688 288.862,134.688 288.942 M255.588 289.576 L 254.717 290.324 255.660 289.699 C 256.179 289.356,256.604 289.019,256.604 288.950 C 256.604 288.732,256.481 288.808,255.588 289.576 M253.556 291.027 L 252.685 291.775 253.628 291.151 C 254.147 290.807,254.572 290.470,254.572 290.401 C 254.572 290.184,254.449 290.260,253.556 291.027 M250.000 293.336 C 249.162 293.885,248.476 294.396,248.476 294.470 C 248.476 294.654,251.372 292.844,251.557 292.545 C 251.776 292.189,251.656 292.251,250.000 293.336 M142.679 294.152 C 144.020 295.072,146.099 296.104,145.740 295.672 C 145.529 295.418,145.240 295.210,145.097 295.210 C 144.953 295.210,144.319 294.884,143.687 294.485 C 142.494 293.732,141.670 293.460,142.679 294.152 M244.711 296.821 C 244.156 297.213,243.830 297.532,243.985 297.531 C 244.140 297.530,244.659 297.209,245.138 296.816 C 246.256 295.899,246.012 295.902,244.711 296.821 M149.594 297.891 C 150.006 298.154,152.071 298.143,152.751 297.874 C 153.026 297.764,152.354 297.676,151.256 297.676 C 150.158 297.677,149.410 297.774,149.594 297.891 M238.706 297.891 C 239.149 298.172,243.178 298.176,243.351 297.896 C 243.424 297.776,242.334 297.678,240.927 297.678 C 239.521 297.678,238.521 297.774,238.706 297.891 " stroke="none" fill="#6ebfde" fill-rule="evenodd"></path><path id="path3" d="M141.727 72.188 C 142.007 72.261,142.464 72.261,142.743 72.188 C 143.022 72.115,142.794 72.056,142.235 72.056 C 141.676 72.056,141.448 72.115,141.727 72.188 M250.000 72.188 C 250.279 72.261,250.737 72.261,251.016 72.188 C 251.295 72.115,251.067 72.056,250.508 72.056 C 249.949 72.056,249.721 72.115,250.000 72.188 M128.577 77.721 L 127.576 78.810 128.665 77.810 C 129.263 77.259,129.753 76.770,129.753 76.721 C 129.753 76.499,129.508 76.708,128.577 77.721 M154.717 76.724 C 154.717 76.774,155.142 77.198,155.660 77.667 L 156.604 78.520 155.751 77.576 C 154.956 76.697,154.717 76.499,154.717 76.724 M269.443 90.856 C 269.443 91.415,269.503 91.644,269.576 91.364 C 269.649 91.085,269.649 90.628,269.576 90.348 C 269.503 90.069,269.443 90.298,269.443 90.856 M127.721 103.139 C 127.721 103.189,128.146 103.613,128.665 104.082 L 129.608 104.935 128.756 103.991 C 127.961 103.112,127.721 102.914,127.721 103.139 M247.678 112.537 C 247.957 112.610,248.414 112.610,248.694 112.537 C 248.973 112.464,248.745 112.404,248.186 112.404 C 247.627 112.404,247.398 112.464,247.678 112.537 M205.225 130.425 C 205.225 130.475,205.649 130.899,206.168 131.368 L 207.112 132.221 206.259 131.277 C 205.464 130.398,205.225 130.200,205.225 130.425 M269.666 167.344 C 270.208 167.903,270.716 168.360,270.796 168.360 C 270.876 168.360,270.498 167.903,269.956 167.344 C 269.415 166.785,268.906 166.328,268.827 166.328 C 268.747 166.328,269.125 166.785,269.666 167.344 M176.488 169.902 C 176.488 169.952,176.912 170.377,177.431 170.846 L 178.374 171.698 177.522 170.755 C 176.727 169.875,176.488 169.678,176.488 169.902 M199.844 187.010 L 198.403 188.534 199.927 187.094 C 201.344 185.755,201.584 185.486,201.368 185.486 C 201.322 185.486,200.636 186.172,199.844 187.010 M190.992 196.154 L 189.405 197.823 191.074 196.236 C 192.625 194.762,192.876 194.485,192.661 194.485 C 192.615 194.485,191.864 195.236,190.992 196.154 M274.311 273.875 C 273.606 274.594,273.094 275.181,273.174 275.181 C 273.254 275.181,273.896 274.594,274.601 273.875 C 275.306 273.157,275.818 272.569,275.738 272.569 C 275.658 272.569,275.016 273.157,274.311 273.875 M119.013 275.853 C 119.013 275.903,119.438 276.327,119.956 276.796 L 120.900 277.649 120.047 276.705 C 119.253 275.826,119.013 275.629,119.013 275.853 " stroke="none" fill="#52b2d9" fill-rule="evenodd"></path><path id="path4" d="M139.115 72.196 C 139.554 72.263,140.272 72.263,140.711 72.196 C 141.150 72.130,140.791 72.075,139.913 72.075 C 139.035 72.075,138.676 72.130,139.115 72.196 M143.759 72.196 C 144.198 72.263,144.917 72.263,145.356 72.196 C 145.795 72.130,145.435 72.075,144.557 72.075 C 143.679 72.075,143.320 72.130,143.759 72.196 M247.242 72.193 C 247.602 72.262,248.189 72.262,248.549 72.193 C 248.908 72.124,248.614 72.067,247.896 72.067 C 247.177 72.067,246.883 72.124,247.242 72.193 M252.032 72.196 C 252.471 72.263,253.189 72.263,253.628 72.196 C 254.067 72.130,253.708 72.075,252.830 72.075 C 251.952 72.075,251.593 72.130,252.032 72.196 M136.865 72.569 C 136.499 72.726,136.445 72.818,136.720 72.818 C 136.959 72.818,137.417 72.706,137.736 72.569 C 138.102 72.412,138.155 72.319,137.881 72.319 C 137.642 72.319,137.184 72.432,136.865 72.569 M146.734 72.569 C 147.054 72.706,147.511 72.818,147.750 72.818 C 148.025 72.818,147.971 72.726,147.605 72.569 C 147.286 72.432,146.829 72.319,146.589 72.319 C 146.315 72.319,146.368 72.412,146.734 72.569 M236.709 77.866 L 235.269 79.390 236.792 77.950 C 238.209 76.611,238.450 76.343,238.233 76.343 C 238.187 76.343,237.501 77.028,236.709 77.866 M264.006 77.504 C 264.629 78.142,265.205 78.665,265.285 78.665 C 265.365 78.665,264.920 78.142,264.296 77.504 C 263.672 76.865,263.097 76.343,263.017 76.343 C 262.937 76.343,263.382 76.865,264.006 77.504 M157.166 79.341 C 157.613 79.927,158.038 80.406,158.109 80.406 C 158.311 80.406,157.054 78.708,156.683 78.479 C 156.502 78.367,156.719 78.755,157.166 79.341 M267.945 83.164 C 267.945 83.324,268.132 83.781,268.360 84.180 C 268.588 84.579,268.775 84.775,268.775 84.615 C 268.775 84.456,268.588 83.999,268.360 83.599 C 268.132 83.200,267.945 83.004,267.945 83.164 M231.957 86.238 C 231.760 86.893,231.653 87.483,231.719 87.548 C 231.784 87.614,231.998 87.131,232.194 86.476 C 232.391 85.821,232.498 85.231,232.432 85.166 C 232.367 85.100,232.153 85.583,231.957 86.238 M269.459 88.679 C 269.461 89.478,269.517 89.770,269.584 89.328 C 269.651 88.887,269.649 88.234,269.580 87.877 C 269.511 87.520,269.457 87.881,269.459 88.679 M161.208 90.856 C 161.208 92.373,161.257 92.993,161.316 92.235 C 161.376 91.477,161.376 90.236,161.316 89.478 C 161.257 88.719,161.208 89.340,161.208 90.856 M123.175 90.856 C 123.175 92.054,123.226 92.544,123.288 91.945 C 123.351 91.346,123.351 90.366,123.288 89.768 C 123.226 89.169,123.175 89.659,123.175 90.856 M269.459 93.033 C 269.461 93.832,269.517 94.124,269.584 93.683 C 269.651 93.241,269.649 92.588,269.580 92.231 C 269.511 91.874,269.457 92.235,269.459 93.033 M231.681 94.340 C 231.681 94.579,231.793 95.036,231.930 95.356 C 232.088 95.722,232.180 95.775,232.180 95.501 C 232.180 95.261,232.068 94.804,231.930 94.485 C 231.773 94.119,231.681 94.065,231.681 94.340 M268.262 97.690 C 267.776 98.758,267.868 98.985,268.394 98.015 C 268.640 97.562,268.786 97.137,268.720 97.070 C 268.654 97.004,268.448 97.283,268.262 97.690 M233.527 99.565 C 233.775 100.044,234.042 100.435,234.122 100.435 C 234.202 100.435,234.065 100.044,233.817 99.565 C 233.569 99.086,233.301 98.694,233.222 98.694 C 233.142 98.694,233.279 99.086,233.527 99.565 M156.586 103.120 L 155.733 104.064 156.676 103.211 C 157.195 102.742,157.620 102.318,157.620 102.268 C 157.620 102.044,157.380 102.241,156.586 103.120 M236.865 104.064 C 237.732 104.942,238.507 105.660,238.587 105.660 C 238.667 105.660,238.022 104.942,237.155 104.064 C 236.288 103.186,235.513 102.467,235.433 102.467 C 235.354 102.467,235.998 103.186,236.865 104.064 M263.992 104.282 L 262.845 105.515 264.078 104.368 C 265.226 103.301,265.445 103.048,265.226 103.048 C 265.178 103.048,264.623 103.603,263.992 104.282 M154.411 105.298 L 153.411 106.386 154.499 105.386 C 155.512 104.455,155.721 104.209,155.500 104.209 C 155.451 104.209,154.961 104.699,154.411 105.298 M240.639 107.086 C 241.038 107.412,241.495 107.680,241.655 107.681 C 241.965 107.684,241.440 107.282,240.493 106.792 C 240.108 106.593,240.157 106.692,240.639 107.086 M138.316 109.434 C 138.636 109.571,139.093 109.683,139.332 109.683 C 139.607 109.683,139.553 109.591,139.187 109.434 C 138.868 109.297,138.411 109.184,138.171 109.184 C 137.897 109.184,137.950 109.277,138.316 109.434 M145.283 109.434 C 144.917 109.591,144.863 109.683,145.138 109.683 C 145.377 109.683,145.835 109.571,146.154 109.434 C 146.520 109.277,146.573 109.184,146.299 109.184 C 146.060 109.184,145.602 109.297,145.283 109.434 M246.589 109.434 C 246.909 109.571,247.366 109.683,247.605 109.683 C 247.880 109.683,247.826 109.591,247.460 109.434 C 247.141 109.297,246.684 109.184,246.444 109.184 C 246.170 109.184,246.223 109.277,246.589 109.434 M253.701 109.434 C 253.118 109.621,253.089 109.668,253.556 109.675 C 253.875 109.680,254.398 109.571,254.717 109.434 C 255.457 109.116,254.694 109.116,253.701 109.434 M141.147 109.936 C 141.745 109.998,142.725 109.998,143.324 109.936 C 143.922 109.873,143.433 109.822,142.235 109.822 C 141.038 109.822,140.548 109.873,141.147 109.936 M249.572 109.937 C 250.255 109.998,251.300 109.998,251.894 109.935 C 252.489 109.873,251.930 109.823,250.653 109.824 C 249.376 109.825,248.890 109.876,249.572 109.937 M239.559 112.260 C 240.322 112.320,241.498 112.319,242.171 112.259 C 242.845 112.198,242.221 112.149,240.784 112.149 C 239.347 112.150,238.796 112.200,239.559 112.260 M244.630 112.259 C 245.308 112.320,246.419 112.320,247.097 112.259 C 247.776 112.198,247.221 112.148,245.864 112.148 C 244.507 112.148,243.951 112.198,244.630 112.259 M235.486 112.545 C 235.925 112.611,236.644 112.611,237.083 112.545 C 237.522 112.478,237.163 112.424,236.284 112.424 C 235.406 112.424,235.047 112.478,235.486 112.545 M249.710 112.545 C 250.149 112.611,250.867 112.611,251.306 112.545 C 251.745 112.478,251.386 112.424,250.508 112.424 C 249.630 112.424,249.271 112.478,249.710 112.545 M254.427 112.917 C 254.906 113.039,255.624 113.139,256.023 113.139 C 256.671 113.139,256.655 113.115,255.878 112.917 C 255.399 112.795,254.681 112.696,254.282 112.696 C 253.634 112.696,253.650 112.720,254.427 112.917 M147.242 113.424 C 148.959 113.475,151.767 113.475,153.483 113.424 C 155.200 113.373,153.795 113.331,150.363 113.331 C 146.930 113.331,145.526 113.373,147.242 113.424 M257.837 113.408 C 258.117 113.481,258.574 113.481,258.853 113.408 C 259.133 113.335,258.904 113.275,258.345 113.275 C 257.787 113.275,257.558 113.335,257.837 113.408 M227.286 113.788 C 226.703 113.975,226.674 114.022,227.141 114.029 C 227.460 114.034,227.983 113.925,228.302 113.788 C 229.042 113.470,228.278 113.470,227.286 113.788 M259.942 113.775 C 260.499 114.027,262.054 114.192,261.805 113.972 C 261.738 113.913,261.161 113.786,260.522 113.688 C 259.713 113.565,259.537 113.591,259.942 113.775 M140.424 113.993 C 140.785 114.063,141.308 114.060,141.585 113.988 C 141.863 113.915,141.567 113.858,140.929 113.861 C 140.290 113.865,140.063 113.924,140.424 113.993 M159.579 113.993 C 159.938 114.062,160.526 114.062,160.885 113.993 C 161.245 113.924,160.951 113.867,160.232 113.867 C 159.514 113.867,159.220 113.924,159.579 113.993 M222.787 115.105 C 221.614 115.642,222.315 115.642,223.552 115.106 C 224.089 114.872,224.332 114.687,224.093 114.694 C 223.853 114.701,223.266 114.886,222.787 115.105 M133.527 115.239 C 132.929 115.431,132.903 115.476,133.382 115.496 C 133.701 115.510,134.158 115.394,134.398 115.239 C 134.906 114.911,134.553 114.911,133.527 115.239 M266.473 115.226 C 266.713 115.388,267.159 115.523,267.465 115.525 C 268.208 115.531,267.976 115.365,266.909 115.126 C 266.273 114.984,266.155 115.011,266.473 115.226 M186.938 123.473 C 186.938 123.553,187.329 123.897,187.808 124.238 C 188.287 124.579,188.679 124.793,188.679 124.713 C 188.679 124.633,188.287 124.289,187.808 123.948 C 187.329 123.607,186.938 123.393,186.938 123.473 M206.803 124.891 L 205.951 125.835 206.894 124.982 C 207.413 124.513,207.837 124.089,207.837 124.039 C 207.837 123.814,207.598 124.012,206.803 124.891 M111.611 124.989 L 110.740 125.737 111.684 125.113 C 112.202 124.770,112.627 124.432,112.627 124.363 C 112.627 124.146,112.504 124.222,111.611 124.989 M204.091 127.258 C 203.280 128.095,203.185 128.328,203.475 128.782 C 203.803 129.295,203.810 129.294,203.641 128.761 C 203.518 128.374,203.750 127.909,204.401 127.237 C 204.917 126.705,205.274 126.270,205.194 126.270 C 205.114 126.270,204.618 126.715,204.091 127.258 M194.049 129.463 C 194.997 130.421,195.838 131.205,195.918 131.205 C 195.998 131.205,195.288 130.421,194.340 129.463 C 193.392 128.505,192.551 127.721,192.471 127.721 C 192.391 127.721,193.101 128.505,194.049 129.463 M106.516 129.100 L 105.515 130.189 106.604 129.188 C 107.202 128.638,107.692 128.148,107.692 128.100 C 107.692 127.878,107.447 128.087,106.516 129.100 M294.485 129.753 C 295.108 130.392,295.684 130.914,295.764 130.914 C 295.844 130.914,295.399 130.392,294.775 129.753 C 294.151 129.115,293.576 128.592,293.496 128.592 C 293.416 128.592,293.861 129.115,294.485 129.753 M102.599 133.019 L 101.451 134.253 102.685 133.105 C 103.832 132.038,104.052 131.785,103.832 131.785 C 103.785 131.785,103.230 132.340,102.599 133.019 M206.386 131.876 C 206.386 131.926,206.811 132.351,207.329 132.819 L 208.273 133.672 207.420 132.729 C 206.626 131.849,206.386 131.652,206.386 131.876 M297.678 132.946 C 298.301 133.585,298.877 134.107,298.957 134.107 C 299.037 134.107,298.592 133.585,297.968 132.946 C 297.344 132.308,296.769 131.785,296.689 131.785 C 296.609 131.785,297.054 132.308,297.678 132.946 M211.321 137.881 C 211.662 138.360,212.006 138.752,212.086 138.752 C 212.166 138.752,211.952 138.360,211.611 137.881 C 211.270 137.402,210.926 137.010,210.846 137.010 C 210.766 137.010,210.980 137.402,211.321 137.881 M301.887 138.171 C 302.228 138.650,302.572 139.042,302.652 139.042 C 302.732 139.042,302.518 138.650,302.177 138.171 C 301.836 137.692,301.492 137.300,301.412 137.300 C 301.332 137.300,301.546 137.692,301.887 138.171 M97.823 139.042 C 97.482 139.521,97.268 139.913,97.348 139.913 C 97.428 139.913,97.772 139.521,98.113 139.042 C 98.454 138.563,98.668 138.171,98.588 138.171 C 98.508 138.171,98.164 138.563,97.823 139.042 M305.515 143.977 C 305.763 144.456,306.031 144.848,306.111 144.848 C 306.191 144.848,306.053 144.456,305.806 143.977 C 305.558 143.498,305.290 143.106,305.210 143.106 C 305.130 143.106,305.268 143.498,305.515 143.977 M205.826 146.734 C 205.826 146.894,206.013 147.351,206.241 147.750 C 206.469 148.149,206.656 148.345,206.656 148.186 C 206.656 148.026,206.469 147.569,206.241 147.170 C 206.013 146.771,205.826 146.575,205.826 146.734 M307.927 149.057 C 308.074 149.376,308.267 149.833,308.356 150.073 C 308.495 150.449,308.520 150.446,308.540 150.055 C 308.553 149.807,308.360 149.349,308.112 149.040 C 307.668 148.485,307.665 148.485,307.927 149.057 M91.719 150.669 C 91.543 150.997,91.442 151.395,91.495 151.553 C 91.547 151.710,91.740 151.442,91.924 150.956 C 92.305 149.946,92.191 149.786,91.719 150.669 M207.279 150.363 C 207.278 150.781,208.096 152.443,208.117 152.065 C 208.123 151.964,207.937 151.441,207.704 150.904 C 207.470 150.367,207.279 150.123,207.279 150.363 M241.147 156.964 C 242.144 157.021,243.777 157.021,244.775 156.964 C 245.773 156.907,244.956 156.861,242.961 156.861 C 240.965 156.861,240.149 156.907,241.147 156.964 M233.091 158.636 C 232.143 159.178,232.475 159.184,233.711 158.647 C 234.248 158.414,234.492 158.223,234.253 158.222 C 234.013 158.221,233.491 158.408,233.091 158.636 M88.990 159.527 C 88.883 159.953,88.852 160.357,88.921 160.425 C 88.989 160.494,89.132 160.201,89.239 159.776 C 89.346 159.351,89.377 158.947,89.309 158.878 C 89.240 158.810,89.097 159.102,88.990 159.527 M220.533 160.813 C 220.620 161.851,220.738 162.754,220.795 162.821 C 220.998 163.055,220.839 160.368,220.608 159.652 C 220.468 159.216,220.438 159.681,220.533 160.813 M146.939 159.867 C 148.010 159.922,149.839 159.923,151.003 159.867 C 152.168 159.812,151.292 159.767,149.057 159.766 C 146.821 159.766,145.869 159.811,146.939 159.867 M210.209 160.087 C 210.204 160.406,210.313 160.929,210.450 161.248 C 210.768 161.988,210.768 161.225,210.450 160.232 C 210.263 159.649,210.216 159.620,210.209 160.087 M143.469 160.142 C 143.748 160.215,144.205 160.215,144.485 160.142 C 144.764 160.069,144.536 160.009,143.977 160.009 C 143.418 160.009,143.189 160.069,143.469 160.142 M141.437 160.432 C 141.716 160.505,142.173 160.505,142.453 160.432 C 142.732 160.359,142.504 160.300,141.945 160.300 C 141.386 160.300,141.157 160.359,141.437 160.432 M138.607 160.813 C 137.867 161.131,138.630 161.131,139.623 160.813 C 140.206 160.626,140.234 160.579,139.768 160.572 C 139.448 160.567,138.926 160.676,138.607 160.813 M136.139 161.407 C 135.821 161.622,135.939 161.649,136.575 161.506 C 137.642 161.268,137.874 161.102,137.131 161.107 C 136.825 161.110,136.379 161.245,136.139 161.407 M164.877 162.990 C 165.276 163.218,165.733 163.405,165.893 163.405 C 166.052 163.405,165.856 163.218,165.457 162.990 C 165.058 162.762,164.601 162.575,164.441 162.575 C 164.282 162.575,164.478 162.762,164.877 162.990 M167.779 164.139 C 167.779 164.219,168.302 164.551,168.940 164.877 C 169.579 165.202,170.102 165.404,170.102 165.324 C 170.102 165.244,169.579 164.912,168.940 164.586 C 168.302 164.261,167.779 164.059,167.779 164.139 M211.088 164.441 C 211.088 164.761,211.193 165.348,211.321 165.747 C 211.505 166.322,211.553 166.352,211.553 165.893 C 211.553 165.573,211.449 164.985,211.321 164.586 C 211.137 164.012,211.088 163.982,211.088 164.441 M312.114 164.731 C 312.115 165.210,312.215 165.994,312.337 166.473 C 312.644 167.680,312.658 166.492,312.353 165.022 C 312.151 164.046,312.113 163.999,312.114 164.731 M269.231 167.199 C 270.500 168.476,271.605 169.521,271.684 169.521 C 271.764 169.521,270.791 168.476,269.521 167.199 C 268.251 165.922,267.147 164.877,267.067 164.877 C 266.987 164.877,267.961 165.922,269.231 167.199 M87.558 167.093 C 87.455 167.842,87.427 168.511,87.495 168.579 C 87.564 168.647,87.711 168.098,87.822 167.357 C 87.933 166.617,87.961 165.948,87.884 165.871 C 87.807 165.795,87.660 166.344,87.558 167.093 M211.684 168.795 C 211.687 169.434,211.747 169.661,211.816 169.300 C 211.886 168.939,211.883 168.416,211.810 168.139 C 211.738 167.861,211.681 168.157,211.684 168.795 M312.717 169.376 C 312.719 170.334,312.773 170.691,312.837 170.169 C 312.902 169.647,312.901 168.863,312.834 168.427 C 312.768 167.991,312.715 168.418,312.717 169.376 M177.213 170.972 C 178.483 172.250,179.587 173.295,179.667 173.295 C 179.747 173.295,178.773 172.250,177.504 170.972 C 176.234 169.695,175.130 168.650,175.050 168.650 C 174.970 168.650,175.944 169.695,177.213 170.972 M87.176 170.972 C 87.176 172.010,87.228 172.435,87.293 171.916 C 87.357 171.397,87.357 170.548,87.293 170.029 C 87.228 169.510,87.176 169.935,87.176 170.972 M121.172 170.464 L 120.319 171.408 121.263 170.555 C 122.142 169.761,122.340 169.521,122.115 169.521 C 122.065 169.521,121.641 169.946,121.172 170.464 M211.975 171.118 C 211.978 171.756,212.037 171.983,212.107 171.622 C 212.176 171.261,212.173 170.739,212.101 170.461 C 212.028 170.184,211.971 170.479,211.975 171.118 M273.440 172.134 C 273.781 172.612,274.125 173.004,274.205 173.004 C 274.285 173.004,274.071 172.612,273.730 172.134 C 273.389 171.655,273.045 171.263,272.965 171.263 C 272.885 171.263,273.099 171.655,273.440 172.134 M312.996 173.004 C 312.996 173.723,313.053 174.017,313.122 173.657 C 313.191 173.298,313.191 172.710,313.122 172.351 C 313.053 171.992,312.996 172.286,312.996 173.004 M86.875 174.891 C 86.878 175.689,86.934 175.982,87.001 175.540 C 87.067 175.099,87.066 174.446,86.997 174.089 C 86.928 173.732,86.873 174.093,86.875 174.891 M208.124 178.737 L 204.209 182.729 208.200 178.814 C 211.908 175.177,212.323 174.746,212.115 174.746 C 212.073 174.746,210.277 176.542,208.124 178.737 M313.334 182.148 C 313.334 186.299,313.375 187.957,313.425 185.832 C 313.474 183.707,313.474 180.311,313.424 178.285 C 313.374 176.259,313.334 177.997,313.334 182.148 M86.631 185.776 C 86.631 190.806,86.671 192.863,86.719 190.348 C 86.768 187.834,86.768 183.719,86.719 181.205 C 86.671 178.690,86.631 180.747,86.631 185.776 M277.814 180.406 C 277.814 180.566,278.001 181.023,278.229 181.422 C 278.457 181.821,278.644 182.017,278.644 181.858 C 278.644 181.698,278.457 181.241,278.229 180.842 C 278.001 180.443,277.814 180.247,277.814 180.406 M113.241 185.825 C 113.223 186.092,113.132 186.549,113.040 186.841 C 112.882 187.345,112.891 187.346,113.205 186.856 C 113.388 186.571,113.478 186.114,113.406 185.840 C 113.288 185.391,113.272 185.389,113.241 185.825 M196.367 190.784 L 192.598 194.630 196.444 190.861 C 200.017 187.359,200.422 186.938,200.214 186.938 C 200.171 186.938,198.441 188.668,196.367 190.784 M312.996 191.001 C 312.996 191.720,313.053 192.014,313.122 191.655 C 313.191 191.295,313.191 190.708,313.122 190.348 C 313.053 189.989,312.996 190.283,312.996 191.001 M111.829 193.759 C 111.833 194.398,111.892 194.625,111.961 194.264 C 112.031 193.903,112.028 193.380,111.956 193.103 C 111.883 192.825,111.826 193.120,111.829 193.759 M312.720 194.775 C 312.720 195.813,312.773 196.237,312.837 195.718 C 312.901 195.200,312.901 194.351,312.837 193.832 C 312.773 193.313,312.720 193.737,312.720 194.775 M281.399 200.000 C 281.399 203.113,281.441 204.387,281.494 202.830 C 281.546 201.274,281.546 198.726,281.494 197.170 C 281.441 195.613,281.399 196.887,281.399 200.000 M188.182 196.081 C 188.184 196.880,188.240 197.172,188.307 196.730 C 188.374 196.289,188.372 195.636,188.303 195.279 C 188.234 194.922,188.180 195.283,188.182 196.081 M86.875 196.662 C 86.878 197.460,86.934 197.752,87.001 197.311 C 87.067 196.870,87.066 196.217,86.997 195.860 C 86.928 195.503,86.873 195.864,86.875 196.662 M111.533 196.226 C 111.533 196.785,111.593 197.014,111.666 196.734 C 111.739 196.455,111.739 195.998,111.666 195.718 C 111.593 195.439,111.533 195.668,111.533 196.226 M312.192 198.549 C 312.079 199.367,312.048 200.098,312.123 200.173 C 312.198 200.248,312.349 199.637,312.458 198.815 C 312.567 197.992,312.598 197.261,312.526 197.190 C 312.455 197.118,312.304 197.730,312.192 198.549 M111.303 205.370 C 111.303 209.840,111.344 211.629,111.393 209.344 C 111.442 207.059,111.442 203.402,111.393 201.216 C 111.343 199.031,111.303 200.900,111.303 205.370 M189.683 197.698 C 189.577 197.869,189.210 198.122,188.867 198.260 C 188.442 198.432,188.391 198.518,188.707 198.530 C 188.961 198.540,189.406 198.287,189.695 197.968 C 189.984 197.649,190.143 197.388,190.048 197.388 C 189.952 197.388,189.788 197.527,189.683 197.698 M87.178 200.726 C 87.179 201.843,87.232 202.265,87.295 201.663 C 87.357 201.060,87.356 200.146,87.292 199.631 C 87.228 199.115,87.177 199.608,87.178 200.726 M311.243 205.225 C 311.243 205.784,311.303 206.012,311.376 205.733 C 311.449 205.454,311.449 204.996,311.376 204.717 C 311.303 204.438,311.243 204.666,311.243 205.225 M87.736 206.241 C 87.740 206.880,87.799 207.107,87.869 206.746 C 87.938 206.384,87.935 205.862,87.863 205.584 C 87.790 205.307,87.733 205.602,87.736 206.241 M281.060 207.112 C 281.063 207.750,281.123 207.977,281.192 207.616 C 281.262 207.255,281.259 206.733,281.186 206.455 C 281.114 206.178,281.057 206.473,281.060 207.112 M310.740 207.257 C 310.630 207.759,310.600 208.230,310.674 208.304 C 310.748 208.378,310.892 208.021,310.994 207.511 C 311.236 206.301,311.002 206.066,310.740 207.257 M280.780 210.305 C 280.782 211.103,280.838 211.395,280.905 210.954 C 280.972 210.513,280.970 209.860,280.901 209.503 C 280.832 209.146,280.778 209.507,280.780 210.305 M310.180 210.035 C 310.074 210.461,310.042 210.865,310.111 210.933 C 310.179 211.002,310.322 210.709,310.429 210.284 C 310.536 209.859,310.567 209.455,310.499 209.386 C 310.430 209.318,310.287 209.610,310.180 210.035 M88.607 212.627 C 88.611 213.266,88.670 213.493,88.739 213.132 C 88.809 212.771,88.806 212.248,88.734 211.970 C 88.661 211.693,88.604 211.988,88.607 212.627 M88.882 214.369 C 88.882 214.688,88.987 215.276,89.115 215.675 C 89.299 216.250,89.347 216.280,89.347 215.820 C 89.347 215.501,89.242 214.913,89.115 214.514 C 88.931 213.939,88.882 213.909,88.882 214.369 M111.533 214.804 C 111.533 215.363,111.593 215.591,111.666 215.312 C 111.739 215.033,111.739 214.575,111.666 214.296 C 111.593 214.017,111.533 214.245,111.533 214.804 M111.829 217.271 C 111.833 217.910,111.892 218.137,111.961 217.776 C 112.031 217.415,112.028 216.892,111.956 216.615 C 111.883 216.337,111.826 216.633,111.829 217.271 M279.861 217.562 C 279.837 217.881,279.751 218.469,279.669 218.868 L 279.519 219.594 279.830 218.882 C 280.001 218.490,280.088 217.902,280.023 217.575 C 279.908 216.996,279.904 216.996,279.861 217.562 M89.446 217.707 C 89.446 217.946,89.558 218.403,89.695 218.723 C 89.852 219.089,89.945 219.142,89.945 218.868 C 89.945 218.628,89.832 218.171,89.695 217.852 C 89.538 217.486,89.446 217.432,89.446 217.707 M112.104 220.174 C 112.104 220.493,112.209 221.081,112.337 221.480 C 112.521 222.055,112.569 222.085,112.569 221.626 C 112.569 221.306,112.465 220.718,112.337 220.319 C 112.153 219.745,112.104 219.714,112.104 220.174 M278.831 222.807 C 278.724 223.233,278.692 223.637,278.761 223.705 C 278.829 223.774,278.973 223.482,279.079 223.056 C 279.186 222.631,279.218 222.227,279.149 222.158 C 279.081 222.090,278.937 222.382,278.831 222.807 M112.694 223.512 C 112.694 224.071,112.754 224.300,112.827 224.020 C 112.900 223.741,112.900 223.284,112.827 223.004 C 112.754 222.725,112.694 222.954,112.694 223.512 M278.250 225.710 C 278.143 226.136,278.112 226.540,278.180 226.608 C 278.249 226.676,278.392 226.384,278.499 225.959 C 278.606 225.534,278.637 225.130,278.569 225.061 C 278.500 224.993,278.357 225.285,278.250 225.710 M113.539 227.866 C 113.539 228.106,113.651 228.563,113.788 228.882 C 113.945 229.248,114.038 229.302,114.038 229.028 C 114.038 228.788,113.925 228.331,113.788 228.012 C 113.631 227.646,113.539 227.592,113.539 227.866 M114.546 232.075 C 114.785 233.143,114.951 233.374,114.945 232.632 C 114.942 232.326,114.808 231.880,114.646 231.640 C 114.430 231.322,114.404 231.440,114.546 232.075 M94.361 235.704 C 94.360 236.122,95.179 237.784,95.200 237.406 C 95.206 237.305,95.020 236.782,94.786 236.245 C 94.553 235.708,94.362 235.464,94.361 235.704 M298.258 242.090 C 298.011 242.569,297.873 242.961,297.953 242.961 C 298.033 242.961,298.301 242.569,298.549 242.090 C 298.796 241.611,298.934 241.219,298.854 241.219 C 298.774 241.219,298.506 241.611,298.258 242.090 M273.378 241.952 C 273.289 242.268,273.127 242.787,273.019 243.106 C 272.911 243.425,273.035 243.319,273.295 242.871 C 273.554 242.422,273.716 241.903,273.654 241.717 C 273.592 241.531,273.468 241.637,273.378 241.952 M101.451 251.959 C 101.699 252.438,101.967 252.830,102.047 252.830 C 102.127 252.830,101.989 252.438,101.742 251.959 C 101.494 251.480,101.226 251.089,101.146 251.089 C 101.066 251.089,101.204 251.480,101.451 251.959 M102.903 254.572 C 103.150 255.051,103.418 255.443,103.498 255.443 C 103.578 255.443,103.441 255.051,103.193 254.572 C 102.945 254.093,102.677 253.701,102.598 253.701 C 102.518 253.701,102.655 254.093,102.903 254.572 M110.305 265.893 C 110.646 266.372,110.990 266.763,111.070 266.763 C 111.150 266.763,110.936 266.372,110.595 265.893 C 110.254 265.414,109.910 265.022,109.830 265.022 C 109.750 265.022,109.964 265.414,110.305 265.893 M280.538 267.417 L 279.390 268.650 280.624 267.503 C 281.771 266.436,281.991 266.183,281.772 266.183 C 281.724 266.183,281.169 266.738,280.538 267.417 M112.159 268.301 C 112.774 269.052,113.338 269.666,113.412 269.666 C 113.610 269.666,111.772 267.388,111.377 267.144 C 111.192 267.029,111.543 267.550,112.159 268.301 M277.504 270.682 C 276.799 271.401,276.287 271.988,276.367 271.988 C 276.447 271.988,277.089 271.401,277.794 270.682 C 278.499 269.964,279.011 269.376,278.931 269.376 C 278.851 269.376,278.209 269.964,277.504 270.682 M116.981 273.875 C 118.010 274.913,118.916 275.762,118.996 275.762 C 119.076 275.762,118.300 274.913,117.271 273.875 C 116.243 272.837,115.336 271.988,115.256 271.988 C 115.176 271.988,115.953 272.837,116.981 273.875 M256.604 273.875 C 256.109 274.594,255.770 275.181,255.850 275.181 C 255.930 275.181,256.400 274.594,256.894 273.875 C 257.388 273.157,257.727 272.569,257.648 272.569 C 257.568 272.569,257.098 273.157,256.604 273.875 M271.542 276.705 L 270.102 278.229 271.626 276.789 C 273.042 275.450,273.283 275.181,273.066 275.181 C 273.020 275.181,272.334 275.867,271.542 276.705 M137.004 276.624 C 137.342 277.098,137.766 277.578,137.947 277.690 C 138.128 277.802,137.911 277.414,137.464 276.828 C 136.493 275.555,136.128 275.394,137.004 276.624 M253.991 277.504 C 253.650 277.983,253.437 278.374,253.516 278.374 C 253.596 278.374,253.941 277.983,254.282 277.504 C 254.623 277.025,254.836 276.633,254.757 276.633 C 254.677 276.633,254.332 277.025,253.991 277.504 M120.755 277.583 C 120.755 277.627,121.767 278.640,123.004 279.833 L 125.254 282.003 123.084 279.753 C 121.069 277.664,120.755 277.371,120.755 277.583 M268.489 279.463 L 267.489 280.552 268.578 279.551 C 269.176 279.001,269.666 278.511,269.666 278.463 C 269.666 278.241,269.421 278.450,268.489 279.463 M142.671 283.309 C 143.294 283.948,143.870 284.470,143.949 284.470 C 144.029 284.470,143.584 283.948,142.961 283.309 C 142.337 282.671,141.762 282.148,141.682 282.148 C 141.602 282.148,142.047 282.671,142.671 283.309 M247.009 286.139 L 246.009 287.228 247.097 286.228 C 248.110 285.296,248.319 285.051,248.098 285.051 C 248.049 285.051,247.559 285.541,247.009 286.139 M146.444 287.373 C 147.392 288.331,148.233 289.115,148.313 289.115 C 148.393 289.115,147.682 288.331,146.734 287.373 C 145.786 286.415,144.946 285.631,144.866 285.631 C 144.786 285.631,145.496 286.415,146.444 287.373 M243.966 289.478 L 242.525 291.001 244.049 289.561 C 245.465 288.222,245.706 287.954,245.490 287.954 C 245.444 287.954,244.758 288.639,243.966 289.478 M135.559 289.801 C 135.559 289.881,135.951 290.225,136.430 290.566 C 136.909 290.907,137.300 291.121,137.300 291.041 C 137.300 290.961,136.909 290.617,136.430 290.276 C 135.951 289.935,135.559 289.721,135.559 289.801 M150.508 291.147 C 151.294 291.945,152.003 292.598,152.083 292.598 C 152.163 292.598,151.585 291.945,150.798 291.147 C 150.012 290.348,149.303 289.695,149.224 289.695 C 149.144 289.695,149.722 290.348,150.508 291.147 M253.556 291.317 L 252.685 292.065 253.628 291.441 C 254.147 291.098,254.572 290.760,254.572 290.691 C 254.572 290.474,254.449 290.550,253.556 291.317 M240.913 292.235 L 239.913 293.324 241.001 292.323 C 242.015 291.392,242.223 291.147,242.002 291.147 C 241.953 291.147,241.463 291.636,240.913 292.235 M237.610 295.479 C 237.332 295.787,237.166 296.276,237.241 296.568 C 237.368 297.058,237.381 297.055,237.412 296.540 C 237.430 296.233,237.662 295.743,237.926 295.451 C 238.190 295.159,238.341 294.920,238.261 294.920 C 238.181 294.920,237.888 295.172,237.610 295.479 M243.977 297.563 C 243.258 298.033,242.692 298.118,240.738 298.050 C 239.436 298.005,238.431 298.066,238.505 298.186 C 239.026 299.022,244.993 298.025,244.993 297.102 C 244.993 296.902,244.980 296.908,243.977 297.563 M149.393 298.186 C 149.564 298.466,152.434 298.462,152.876 298.181 C 153.061 298.064,152.322 297.968,151.235 297.968 C 150.148 297.968,149.319 298.066,149.393 298.186 " stroke="none" fill="#16a3d0" fill-rule="evenodd"></path></g></svg>
