<svg xmlns="http://www.w3.org/2000/svg" width="512" height="512" viewBox="0 0 512 512" version="1.1"><path d="M 0 256.002 L 0 512.004 256.250 511.752 L 512.500 511.500 512.752 255.750 L 513.004 0 256.502 0 L 0 0 0 256.002 M 0.492 256.500 C 0.492 397.300, 0.608 454.751, 0.750 384.170 C 0.892 313.588, 0.892 198.388, 0.750 128.170 C 0.608 57.951, 0.492 115.700, 0.492 256.500 M 32 13.917 C 31.175 14.356, 28.925 15.518, 27 16.499 C 22.139 18.976, 18.823 22.241, 16.639 26.701 C 15.616 28.790, 14.378 31.281, 13.889 32.236 C 12.711 34.537, 12.711 477.463, 13.889 479.764 C 14.378 480.719, 15.616 483.210, 16.639 485.299 C 19.404 490.945, 22.022 493.100, 32.236 498.143 C 34.564 499.292, 477.519 499.260, 479.764 498.111 C 480.719 497.622, 483.210 496.384, 485.299 495.361 C 490.945 492.596, 493.100 489.978, 498.143 479.764 C 499.263 477.493, 499.263 34.507, 498.143 32.236 C 493.100 22.022, 490.945 19.404, 485.299 16.639 C 483.210 15.616, 480.719 14.378, 479.764 13.889 C 477.593 12.778, 34.087 12.805, 32 13.917 M 200.750 69.317 L 194 74.441 194 171.764 L 194 269.088 201.250 268.794 L 208.500 268.500 208.755 166.250 C 208.895 110.012, 208.670 64.044, 208.255 64.097 C 207.840 64.150, 204.463 66.500, 200.750 69.317 M 181 79.167 C 174.332 81, 166.456 82.210, 157 82.854 L 147.500 83.500 147.200 87.603 L 146.899 91.705 153.197 93.042 C 159.938 94.472, 163.252 96.807, 164.944 101.315 C 166.497 105.455, 166.394 244.141, 164.832 250.907 C 163.394 257.136, 160.967 259.524, 154.500 261.074 C 151.750 261.734, 148.938 262.422, 148.250 262.605 C 147.563 262.788, 147 264.311, 147 265.989 L 147 269.041 167.250 268.771 L 187.500 268.500 187.464 262.750 C 187.445 259.587, 187.332 216.725, 187.214 167.500 C 187.045 96.617, 186.740 78.021, 185.750 78.102 C 185.063 78.159, 182.925 78.638, 181 79.167 M 354.500 111 C 352.726 112.961, 351.420 113, 288.345 113 C 231.864 113, 223.987 113.183, 223.893 114.500 C 223.834 115.325, 223.786 118.025, 223.786 120.500 C 223.786 122.975, 223.834 125.675, 223.893 126.500 C 223.987 127.816, 231.785 128, 287.634 128 L 351.267 128 353.632 125.250 C 354.933 123.737, 355.998 122.091, 355.999 121.591 C 355.999 121.091, 357.800 118.298, 360 115.384 C 362.200 112.470, 364 109.842, 364 109.543 C 364 109.244, 362.270 109, 360.155 109 C 357.580 109, 355.712 109.661, 354.500 111 M 223.978 135.500 C 223.966 136.325, 223.956 156.125, 223.956 179.500 C 223.956 202.875, 223.966 222.230, 223.978 222.511 C 223.990 222.792, 227.037 220.862, 230.750 218.222 C 242.141 210.121, 246.952 208.671, 262.319 208.709 C 269.740 208.727, 274.559 209.159, 275.269 209.869 C 275.891 210.491, 277.421 211, 278.670 211 C 281.388 211, 287.518 214.264, 291.055 217.594 C 292.460 218.918, 294.059 220, 294.607 220 C 297.149 220, 304.114 228.819, 308.414 237.482 C 313.802 248.338, 315.476 256.267, 314.511 266.367 C 313.878 272.999, 313.142 275.325, 308.613 285 C 304.313 294.184, 297.342 302.996, 294.372 302.999 C 293.752 302.999, 292.693 303.665, 292.019 304.477 C 291.345 305.289, 288.252 307.124, 285.147 308.554 C 282.041 309.984, 277.960 311.907, 276.078 312.827 C 273.407 314.133, 270.004 314.476, 260.578 314.393 C 248.897 314.289, 248.270 314.171, 241.500 310.807 C 226.882 303.542, 224.270 301.557, 219.599 294.157 C 218.156 291.871, 216.585 290, 216.109 290 C 215.632 290, 214.683 288.650, 214 287 L 212.757 284 203.860 284 L 194.962 284 195.621 286.750 C 196.725 291.355, 202.792 301.835, 206.605 305.723 C 207.264 306.396, 208.789 308.540, 209.992 310.488 C 211.196 312.435, 214.277 315.466, 216.840 317.223 C 219.403 318.980, 222.372 321.223, 223.439 322.209 C 224.505 323.194, 225.967 324, 226.689 324 C 227.410 324, 228 324.450, 228 325 C 228 325.550, 228.459 326, 229.020 326 C 229.581 326, 231.718 327.035, 233.770 328.300 C 235.821 329.566, 239.525 331.193, 242 331.917 C 244.475 332.641, 247.805 333.631, 249.399 334.117 C 253.199 335.274, 280.242 335.260, 283.203 334.099 C 284.466 333.604, 287.975 332.463, 291 331.563 C 294.025 330.664, 299.752 327.694, 303.727 324.964 C 307.701 322.234, 311.323 320, 311.775 320 C 313.942 320, 330.080 300.817, 331.965 296 C 332.719 294.075, 333.629 292.050, 333.987 291.500 C 334.346 290.950, 335.223 288.475, 335.936 286 C 336.649 283.525, 337.729 280.154, 338.338 278.508 C 338.961 276.822, 339.421 269.404, 339.392 261.508 C 339.345 248.580, 338.839 245.041, 335.959 237.500 C 335.539 236.400, 334.216 232.955, 333.019 229.844 C 331.823 226.733, 329.304 222.458, 327.423 220.344 C 325.541 218.230, 324.001 216.164, 324.001 215.753 C 323.999 214.299, 316.552 206.788, 312.057 203.707 C 309.551 201.989, 306.600 199.747, 305.500 198.725 C 303.430 196.803, 300.029 195.115, 294 193.016 C 292.075 192.346, 289.600 191.434, 288.500 190.988 C 281.384 188.105, 255.876 187.103, 249.226 189.445 L 246.953 190.246 247.226 172.373 L 247.500 154.500 291.001 154.240 L 334.503 153.979 337.501 149.240 C 339.150 146.633, 341.975 142.566, 343.779 140.202 C 345.583 137.839, 346.794 135.476, 346.471 134.952 C 346.108 134.366, 322.463 134, 284.941 134 C 231.448 134, 223.997 134.183, 223.978 135.500 M 327.121 210.288 C 334.373 216.722, 343.706 234.609, 346.897 248.193 C 349.075 257.461, 347.661 277.346, 344.386 283.500 C 343.801 284.600, 342.273 288.200, 340.990 291.500 C 339.708 294.800, 337.835 298.694, 336.829 300.154 C 335.823 301.614, 334.982 303.189, 334.961 303.654 C 334.939 304.119, 332.469 306.975, 329.472 310 C 324.650 314.867, 324.269 315.539, 326.161 315.839 C 329.641 316.391, 336.195 312.372, 347.574 302.706 C 350.697 300.054, 359.797 286.778, 361.425 282.500 C 367.226 267.257, 365.848 245.568, 358.440 235.500 C 357.226 233.850, 355.912 231.449, 355.522 230.165 C 353.542 223.660, 331.899 206.926, 325.610 207.038 C 323.766 207.070, 323.956 207.479, 327.121 210.288 M 49.507 363.171 C 49.193 364.452, 49.063 376.300, 49.218 389.500 L 49.500 413.500 63.421 413.779 C 72.013 413.952, 77.735 413.665, 78.371 413.029 C 78.937 412.463, 80.162 412, 81.092 412 C 82.023 412, 85.196 409.395, 88.142 406.212 C 92.662 401.328, 93.718 399.440, 94.892 394.136 C 97.057 384.353, 94.201 373.871, 87.933 368.597 C 81.185 362.919, 76.526 361.545, 62.789 361.180 C 50.185 360.845, 50.073 360.862, 49.507 363.171 M 103.690 361.643 C 103.310 362.023, 103 373.958, 103 388.167 L 103 414 121.055 414 L 139.110 414 138.805 409.250 L 138.500 404.500 127.500 404.295 C 121.450 404.183, 115.938 404.070, 115.250 404.045 C 114.407 404.015, 114 402.209, 114 398.500 L 114 393 122.895 393 L 131.790 393 132.176 388.954 C 132.388 386.729, 132.308 384.499, 131.999 383.998 C 131.689 383.498, 127.626 382.956, 122.968 382.794 L 114.500 382.500 114.201 376.782 L 113.902 371.064 125.701 370.782 L 137.500 370.500 137.500 366 L 137.500 361.500 120.940 361.227 C 111.832 361.076, 104.069 361.264, 103.690 361.643 M 180.200 362.200 C 179.540 362.860, 179 363.991, 179 364.714 C 179 365.436, 178.571 366.809, 178.047 367.764 C 177.523 368.719, 176.144 372.425, 174.982 376 C 173.820 379.575, 172.494 383.400, 172.035 384.500 C 171.577 385.600, 170.652 388.075, 169.981 390 C 169.310 391.925, 167.711 395.750, 166.429 398.500 C 164.375 402.904, 161 412.251, 161 413.535 C 161 413.791, 163.628 414, 166.840 414 L 172.680 414 173.958 409.750 C 174.661 407.413, 175.400 404.921, 175.601 404.214 C 175.873 403.253, 178.415 403, 185.649 403.214 L 195.332 403.500 196.998 408.500 L 198.664 413.500 204.317 413.799 L 209.970 414.099 209.344 410.799 C 209 408.985, 208.413 407.050, 208.039 406.500 C 207.666 405.950, 206.751 403.475, 206.006 401 C 205.262 398.525, 204.280 396.072, 203.826 395.550 C 203.372 395.028, 203 393.743, 203 392.695 C 203 391.648, 201.930 388.661, 200.623 386.057 C 199.315 383.454, 197.261 378.439, 196.057 374.912 C 194.853 371.385, 193.489 367.600, 193.025 366.500 C 192.561 365.400, 191.930 363.712, 191.622 362.750 C 191.191 361.402, 189.953 361, 186.231 361 C 183.574 361, 180.860 361.540, 180.200 362.200 M 224.500 363.993 C 214.845 369.483, 211 376.423, 211 388.362 C 211 396.442, 212.749 400.608, 218.736 406.783 C 224.980 413.224, 228.404 414.468, 239.712 414.405 C 247.375 414.362, 249.700 413.955, 253.530 411.985 C 256.063 410.682, 258.570 408.803, 259.103 407.808 C 259.635 406.814, 259.942 401.388, 259.785 395.750 L 259.500 385.500 248.500 385.500 L 237.500 385.500 237.500 390 L 237.500 394.500 243.307 394.802 L 249.115 395.103 248.807 398.703 C 248.518 402.086, 248.199 402.390, 243.500 403.755 C 239.031 405.053, 237.947 405.033, 233.291 403.565 C 227.352 401.694, 224.866 398.838, 223.222 392 C 221.427 384.536, 224.639 375.272, 229.980 372.510 C 234.223 370.316, 243.166 370.566, 247.500 373 C 252.033 375.546, 252.576 375.515, 255.545 372.545 C 258.807 369.284, 258.642 367.817, 254.750 365.478 C 249.157 362.117, 244.752 361.028, 237 361.090 C 230.663 361.141, 228.724 361.591, 224.500 363.993 M 284 361.943 C 283.175 362.397, 281.150 363.361, 279.500 364.086 C 275.712 365.751, 271 369.964, 271 371.687 C 271 372.409, 270.660 373, 270.243 373 C 268.710 373, 267 381.185, 267 388.524 C 267 394.220, 267.516 397.090, 269.095 400.186 C 271.757 405.404, 277.823 412, 279.961 412 C 280.862 412, 282.161 412.561, 282.847 413.247 C 284.815 415.215, 300.695 414.892, 305 412.795 C 309.953 410.383, 316.683 403.695, 318.477 399.402 C 320.338 394.946, 320.487 382.606, 318.750 376.769 C 317.380 372.165, 312.120 366.273, 307.470 364.133 C 305.836 363.382, 303.719 362.369, 302.764 361.883 C 300.595 360.780, 286.029 360.826, 284 361.943 M 335 363.077 C 330.048 365.950, 327 371.013, 327 376.365 C 327 380.131, 327.567 381.343, 330.963 384.843 C 333.206 387.154, 337.872 390.259, 341.713 391.996 C 351.460 396.403, 351.471 396.411, 351.800 399.668 C 352.461 406.216, 341.284 406.835, 334.254 400.639 L 332.008 398.659 328.361 402.305 C 324.115 406.552, 324.437 407.410, 331.920 411.804 C 335.875 414.126, 337.593 414.489, 344.500 414.468 C 351.548 414.445, 352.988 414.115, 356.598 411.689 C 358.853 410.174, 361.328 407.752, 362.098 406.307 C 364.108 402.538, 363.747 392.483, 361.513 390.015 C 359.708 388.019, 350.642 383.329, 343.514 380.702 C 339.483 379.217, 337.865 376.515, 338.784 372.807 C 339.649 369.317, 347.887 369.468, 353.045 373.068 C 355.561 374.824, 355.625 374.807, 358.795 371.566 C 360.558 369.762, 362 367.806, 362 367.217 C 362 366.628, 359.471 364.989, 356.379 363.573 C 349.169 360.273, 340.192 360.064, 335 363.077 M 367 365.979 L 367 371 374.500 371 L 382 371 382 392.552 L 382 414.105 387.250 413.802 L 392.500 413.500 392.650 392.500 L 392.800 371.500 399.650 371 L 406.500 370.500 406.500 366 L 406.500 361.500 386.750 361.229 L 367 360.958 367 365.979 M 424 362.385 C 420.174 363.592, 410 372.992, 410 375.320 C 410 376.118, 409.328 378.060, 408.506 379.636 C 406.111 384.228, 406.592 392.262, 409.620 398.238 C 416.169 411.160, 421.128 414.367, 434.641 414.419 C 444.938 414.459, 447.149 413.665, 453.805 407.536 C 460.172 401.673, 461.514 398.142, 461.422 387.500 C 461.330 376.883, 459.756 372.593, 454.307 368.101 C 447.807 362.744, 442.865 360.984, 434.761 361.141 C 430.767 361.218, 425.925 361.778, 424 362.385 M 61 387.500 C 61 404.476, 60.961 404.314, 65 404.181 C 72.382 403.936, 76.111 402.689, 79.454 399.346 C 82.871 395.929, 83 395.534, 83 388.457 C 83 376.004, 78.428 371, 67.050 371 L 61 371 61 387.500 M 283.422 374.645 C 275.239 382.828, 274.919 393.076, 282.627 400.129 C 290.535 407.366, 302.654 405.522, 306.927 396.432 C 309.574 390.801, 309.559 385.168, 306.883 379.474 C 303.860 373.044, 300.543 371, 293.129 371 C 287.488 371, 286.813 371.253, 283.422 374.645 M 426.457 372.863 C 421.006 376.187, 419.497 379.570, 419.529 388.389 C 419.557 396.194, 419.596 396.312, 423.166 399.397 C 428.686 404.169, 433.160 405.469, 438.570 403.871 C 446.708 401.469, 450 396.910, 450 388.044 C 450 381.600, 447.661 375.962, 443.665 372.772 C 440.604 370.329, 430.525 370.383, 426.457 372.863 M 184.757 378.774 C 183.926 379.723, 182.683 382.300, 181.995 384.500 C 181.307 386.700, 180.352 389.534, 179.872 390.797 C 178.392 394.695, 178.800 395, 185.500 395 C 191.725 395, 192 394.897, 192 392.559 C 192 391.216, 191.550 389.840, 191 389.500 C 190.450 389.160, 190 387.810, 190 386.500 C 190 385.190, 189.550 383.840, 189 383.500 C 188.450 383.160, 188 381.810, 188 380.500 C 188 377.361, 186.631 376.632, 184.757 378.774 M 369.990 428.759 C 368.025 429.739, 365.638 432.111, 364.526 434.186 C 362.745 437.513, 362.685 438.241, 363.918 441.650 C 365.421 445.807, 366.470 447.111, 369.705 448.842 C 374.243 451.271, 382 449.303, 382 445.723 C 382 444.139, 381.525 443.884, 379.500 444.383 C 378.125 444.723, 375.988 445.229, 374.750 445.509 C 371.019 446.352, 368.500 443.544, 368.500 438.540 C 368.500 436.135, 368.877 433.792, 369.338 433.333 C 369.799 432.875, 372.837 432.578, 376.088 432.674 C 380.663 432.809, 382 432.520, 382 431.399 C 382 430.053, 380.547 429.214, 375.490 427.642 C 374.370 427.294, 371.933 427.789, 369.990 428.759 M 256.429 429.325 C 256.149 430.054, 256.051 434.886, 256.210 440.064 C 256.458 448.098, 256.756 449.526, 258.250 449.812 C 259.685 450.086, 260 449.414, 260 446.073 C 260 442.113, 260.094 442, 263.378 442 C 266.922 442, 269.992 439.576, 268.408 438.029 C 267.908 437.541, 265.925 436.998, 264 436.821 C 261.274 436.571, 260.500 436.058, 260.500 434.500 C 260.500 432.862, 261.269 432.444, 264.750 432.193 C 268.186 431.944, 269 431.513, 269 429.943 C 269 428.234, 268.274 428, 262.969 428 C 258.884 428, 256.773 428.428, 256.429 429.325 M 275.457 429.251 C 275.162 430.021, 275.051 434.891, 275.210 440.075 C 275.477 448.737, 275.662 449.500, 277.500 449.500 C 279.373 449.500, 279.500 448.833, 279.500 439.014 C 279.500 429.815, 279.285 428.486, 277.747 428.190 C 276.783 428.004, 275.752 428.482, 275.457 429.251 M 286.934 429.250 C 286.601 435.559, 287.307 448.688, 288.018 449.408 C 289.859 451.270, 292.011 447.872, 291.841 443.370 C 291.750 440.962, 291.904 438.762, 292.184 438.483 C 292.463 438.203, 294.607 440.704, 296.948 444.041 C 303.241 453.012, 304.500 452.170, 304.500 438.986 C 304.500 429.167, 304.373 428.500, 302.500 428.500 C 300.749 428.500, 300.505 429.152, 300.543 433.750 C 300.566 436.637, 300.296 439, 299.942 439 C 299.588 439, 297.324 436.525, 294.910 433.500 C 290.811 428.363, 287.086 426.378, 286.934 429.250 M 318.378 429.750 C 318.070 430.712, 317.441 432.400, 316.980 433.500 C 315.944 435.972, 311.999 447.156, 311.711 448.441 C 311.271 450.404, 315.225 450.124, 316.649 448.091 C 318.684 445.186, 324.555 445.229, 326.934 448.167 C 328.058 449.555, 329.292 450.102, 330.369 449.689 C 332.358 448.925, 331.901 446.144, 328.528 438.500 C 327.314 435.750, 325.809 432.262, 325.182 430.750 C 323.840 427.511, 319.306 426.845, 318.378 429.750 M 339 439.073 C 339 449.079, 339.169 450.115, 340.750 449.814 C 342.116 449.554, 342.567 448.277, 342.807 443.991 C 343.196 437.042, 344.359 435.839, 346.533 440.135 C 349.172 445.350, 352.952 450, 354.551 450 C 355.729 450, 356 447.939, 356 439 C 356 428.667, 355.879 428, 354 428 C 352.242 428, 352 428.667, 352 433.500 C 352 436.525, 351.647 439, 351.216 439 C 350.784 439, 349.575 437.550, 348.528 435.779 C 346.192 431.824, 342.174 428, 340.354 428 C 339.297 428, 339 430.428, 339 439.073 M 389.627 429.529 C 388.694 431.962, 388.898 447.291, 389.885 448.848 C 390.355 449.590, 391.586 450.034, 392.620 449.835 C 394.318 449.508, 394.500 448.455, 394.500 438.986 C 394.500 429.060, 394.387 428.484, 392.377 428.197 C 391.125 428.018, 389.997 428.565, 389.627 429.529 M 401.216 438.701 L 401.500 449.500 407.486 449.500 C 412.392 449.500, 413.533 449.184, 413.810 447.750 C 414.092 446.286, 413.387 446, 409.504 446 C 405.261 446, 404.888 445.806, 405.180 443.750 C 405.425 442.027, 406.320 441.383, 409 441 C 411.667 440.619, 412.500 440.024, 412.500 438.500 C 412.500 436.891, 411.816 436.490, 409 436.449 C 406.215 436.408, 405.500 435.999, 405.500 434.449 C 405.500 432.866, 406.311 432.442, 409.812 432.189 C 413.229 431.943, 414.057 431.529, 413.802 430.189 C 413.548 428.857, 412.153 428.437, 407.206 428.201 L 400.931 427.903 401.216 438.701 M 420.429 429.325 C 420.149 430.054, 420.051 434.891, 420.210 440.075 C 420.477 448.737, 420.662 449.500, 422.500 449.500 C 424.022 449.500, 424.619 448.667, 425 446.011 C 425.687 441.221, 428.042 441.102, 430.500 445.732 C 431.748 448.084, 433.346 449.620, 434.750 449.820 C 437.575 450.221, 437.606 448.660, 434.851 444.791 C 432.810 441.924, 432.785 441.634, 434.351 438.982 C 436.601 435.175, 436.427 433.336, 433.545 430.455 C 431.584 428.493, 430.071 428, 426.014 428 C 422.722 428, 420.759 428.466, 420.429 429.325 M 448.378 429.750 C 448.070 430.712, 447.439 432.400, 446.975 433.500 C 445.329 437.402, 442 447.651, 442 448.817 C 442 450.832, 445.735 450.121, 446.290 448 C 446.724 446.338, 447.654 446, 451.790 446 C 455.926 446, 456.855 446.338, 457.290 448 C 457.798 449.944, 460.432 450.760, 461.326 449.250 C 462.001 448.113, 459.195 439.156, 456.315 433.250 C 454.281 429.078, 453.260 428, 451.346 428 C 449.932 428, 448.706 428.722, 448.378 429.750 M 426.250 432.662 C 425.563 432.940, 425 434.029, 425 435.083 C 425 436.546, 425.710 437, 428 437 C 430.277 437, 431 436.544, 431 435.107 C 431 433.647, 428.728 431.582, 427.668 432.079 C 427.576 432.122, 426.938 432.385, 426.250 432.662 M 450 435.918 C 450 436.973, 449.728 438.544, 449.396 439.410 C 448.664 441.317, 451.658 442.742, 453.187 441.213 C 453.923 440.477, 453.830 439.236, 452.875 437.081 C 451.334 433.597, 450 433.058, 450 435.918 M 320 438.500 C 320 440.976, 320.448 442, 321.531 442 C 323.638 442, 324.381 439.580, 323.042 437.078 C 321.363 433.942, 320 434.579, 320 438.500" stroke="none" fill="#f5f0f1" fill-rule="evenodd"/><path d="M 32 13.917 C 31.175 14.356, 28.925 15.518, 27 16.499 C 22.139 18.976, 18.823 22.241, 16.639 26.701 C 15.616 28.790, 14.378 31.281, 13.889 32.236 C 12.711 34.537, 12.711 477.463, 13.889 479.764 C 14.378 480.719, 15.616 483.210, 16.639 485.299 C 19.404 490.945, 22.022 493.100, 32.236 498.143 C 34.564 499.292, 477.519 499.260, 479.764 498.111 C 480.719 497.622, 483.210 496.384, 485.299 495.361 C 490.945 492.596, 493.100 489.978, 498.143 479.764 C 499.263 477.493, 499.263 34.507, 498.143 32.236 C 493.100 22.022, 490.945 19.404, 485.299 16.639 C 483.210 15.616, 480.719 14.378, 479.764 13.889 C 477.593 12.778, 34.087 12.805, 32 13.917 M 200.750 69.317 L 194 74.441 194 171.764 L 194 269.088 201.250 268.794 L 208.500 268.500 208.755 166.250 C 208.895 110.012, 208.670 64.044, 208.255 64.097 C 207.840 64.150, 204.463 66.500, 200.750 69.317 M 181 79.167 C 174.332 81, 166.456 82.210, 157 82.854 L 147.500 83.500 147.200 87.603 L 146.899 91.705 153.197 93.042 C 159.938 94.472, 163.252 96.807, 164.944 101.315 C 166.497 105.455, 166.394 244.141, 164.832 250.907 C 163.394 257.136, 160.967 259.524, 154.500 261.074 C 151.750 261.734, 148.938 262.422, 148.250 262.605 C 147.563 262.788, 147 264.311, 147 265.989 L 147 269.041 167.250 268.771 L 187.500 268.500 187.464 262.750 C 187.445 259.587, 187.332 216.725, 187.214 167.500 C 187.045 96.617, 186.740 78.021, 185.750 78.102 C 185.063 78.159, 182.925 78.638, 181 79.167 M 354.500 111 C 352.726 112.961, 351.420 113, 288.345 113 C 231.864 113, 223.987 113.183, 223.893 114.500 C 223.834 115.325, 223.786 118.025, 223.786 120.500 C 223.786 122.975, 223.834 125.675, 223.893 126.500 C 223.987 127.816, 231.785 128, 287.634 128 L 351.267 128 353.632 125.250 C 354.933 123.737, 355.998 122.091, 355.999 121.591 C 355.999 121.091, 357.800 118.298, 360 115.384 C 362.200 112.470, 364 109.842, 364 109.543 C 364 109.244, 362.270 109, 360.155 109 C 357.580 109, 355.712 109.661, 354.500 111 M 223.978 135.500 C 223.966 136.325, 223.956 156.125, 223.956 179.500 C 223.956 202.875, 223.966 222.230, 223.978 222.511 C 223.990 222.792, 227.037 220.862, 230.750 218.222 C 242.141 210.121, 246.952 208.671, 262.319 208.709 C 269.740 208.727, 274.559 209.159, 275.269 209.869 C 275.891 210.491, 277.421 211, 278.670 211 C 281.388 211, 287.518 214.264, 291.055 217.594 C 292.460 218.918, 294.059 220, 294.607 220 C 297.149 220, 304.114 228.819, 308.414 237.482 C 313.802 248.338, 315.476 256.267, 314.511 266.367 C 313.878 272.999, 313.142 275.325, 308.613 285 C 304.313 294.184, 297.342 302.996, 294.372 302.999 C 293.752 302.999, 292.693 303.665, 292.019 304.477 C 291.345 305.289, 288.252 307.124, 285.147 308.554 C 282.041 309.984, 277.960 311.907, 276.078 312.827 C 273.407 314.133, 270.004 314.476, 260.578 314.393 C 248.897 314.289, 248.270 314.171, 241.500 310.807 C 226.882 303.542, 224.270 301.557, 219.599 294.157 C 218.156 291.871, 216.585 290, 216.109 290 C 215.632 290, 214.683 288.650, 214 287 L 212.757 284 203.860 284 L 194.962 284 195.621 286.750 C 196.725 291.355, 202.792 301.835, 206.605 305.723 C 207.264 306.396, 208.789 308.540, 209.992 310.488 C 211.196 312.435, 214.277 315.466, 216.840 317.223 C 219.403 318.980, 222.372 321.223, 223.439 322.209 C 224.505 323.194, 225.967 324, 226.689 324 C 227.410 324, 228 324.450, 228 325 C 228 325.550, 228.459 326, 229.020 326 C 229.581 326, 231.718 327.035, 233.770 328.300 C 235.821 329.566, 239.525 331.193, 242 331.917 C 244.475 332.641, 247.805 333.631, 249.399 334.117 C 253.199 335.274, 280.242 335.260, 283.203 334.099 C 284.466 333.604, 287.975 332.463, 291 331.563 C 294.025 330.664, 299.752 327.694, 303.727 324.964 C 307.701 322.234, 311.323 320, 311.775 320 C 313.942 320, 330.080 300.817, 331.965 296 C 332.719 294.075, 333.629 292.050, 333.987 291.500 C 334.346 290.950, 335.223 288.475, 335.936 286 C 336.649 283.525, 337.729 280.154, 338.338 278.508 C 338.961 276.822, 339.421 269.404, 339.392 261.508 C 339.345 248.580, 338.839 245.041, 335.959 237.500 C 335.539 236.400, 334.216 232.955, 333.019 229.844 C 331.823 226.733, 329.304 222.458, 327.423 220.344 C 325.541 218.230, 324.001 216.164, 324.001 215.753 C 323.999 214.299, 316.552 206.788, 312.057 203.707 C 309.551 201.989, 306.600 199.747, 305.500 198.725 C 303.430 196.803, 300.029 195.115, 294 193.016 C 292.075 192.346, 289.600 191.434, 288.500 190.988 C 281.384 188.105, 255.876 187.103, 249.226 189.445 L 246.953 190.246 247.226 172.373 L 247.500 154.500 291.001 154.240 L 334.503 153.979 337.501 149.240 C 339.150 146.633, 341.975 142.566, 343.779 140.202 C 345.583 137.839, 346.794 135.476, 346.471 134.952 C 346.108 134.366, 322.463 134, 284.941 134 C 231.448 134, 223.997 134.183, 223.978 135.500 M 327.121 210.288 C 334.373 216.722, 343.706 234.609, 346.897 248.193 C 349.075 257.461, 347.661 277.346, 344.386 283.500 C 343.801 284.600, 342.273 288.200, 340.990 291.500 C 339.708 294.800, 337.835 298.694, 336.829 300.154 C 335.823 301.614, 334.982 303.189, 334.961 303.654 C 334.939 304.119, 332.469 306.975, 329.472 310 C 324.650 314.867, 324.269 315.539, 326.161 315.839 C 329.641 316.391, 336.195 312.372, 347.574 302.706 C 350.697 300.054, 359.797 286.778, 361.425 282.500 C 367.226 267.257, 365.848 245.568, 358.440 235.500 C 357.226 233.850, 355.912 231.449, 355.522 230.165 C 353.542 223.660, 331.899 206.926, 325.610 207.038 C 323.766 207.070, 323.956 207.479, 327.121 210.288 M 49.507 363.171 C 49.193 364.452, 49.063 376.300, 49.218 389.500 L 49.500 413.500 63.421 413.779 C 72.013 413.952, 77.735 413.665, 78.371 413.029 C 78.937 412.463, 80.162 412, 81.092 412 C 82.023 412, 85.196 409.395, 88.142 406.212 C 92.662 401.328, 93.718 399.440, 94.892 394.136 C 97.057 384.353, 94.201 373.871, 87.933 368.597 C 81.185 362.919, 76.526 361.545, 62.789 361.180 C 50.185 360.845, 50.073 360.862, 49.507 363.171 M 103.690 361.643 C 103.310 362.023, 103 373.958, 103 388.167 L 103 414 121.055 414 L 139.110 414 138.805 409.250 L 138.500 404.500 127.500 404.295 C 121.450 404.183, 115.938 404.070, 115.250 404.045 C 114.407 404.015, 114 402.209, 114 398.500 L 114 393 122.895 393 L 131.790 393 132.176 388.954 C 132.388 386.729, 132.308 384.499, 131.999 383.998 C 131.689 383.498, 127.626 382.956, 122.968 382.794 L 114.500 382.500 114.201 376.782 L 113.902 371.064 125.701 370.782 L 137.500 370.500 137.500 366 L 137.500 361.500 120.940 361.227 C 111.832 361.076, 104.069 361.264, 103.690 361.643 M 180.200 362.200 C 179.540 362.860, 179 363.991, 179 364.714 C 179 365.436, 178.571 366.809, 178.047 367.764 C 177.523 368.719, 176.144 372.425, 174.982 376 C 173.820 379.575, 172.494 383.400, 172.035 384.500 C 171.577 385.600, 170.652 388.075, 169.981 390 C 169.310 391.925, 167.711 395.750, 166.429 398.500 C 164.375 402.904, 161 412.251, 161 413.535 C 161 413.791, 163.628 414, 166.840 414 L 172.680 414 173.958 409.750 C 174.661 407.413, 175.400 404.921, 175.601 404.214 C 175.873 403.253, 178.415 403, 185.649 403.214 L 195.332 403.500 196.998 408.500 L 198.664 413.500 204.317 413.799 L 209.970 414.099 209.344 410.799 C 209 408.985, 208.413 407.050, 208.039 406.500 C 207.666 405.950, 206.751 403.475, 206.006 401 C 205.262 398.525, 204.280 396.072, 203.826 395.550 C 203.372 395.028, 203 393.743, 203 392.695 C 203 391.648, 201.930 388.661, 200.623 386.057 C 199.315 383.454, 197.261 378.439, 196.057 374.912 C 194.853 371.385, 193.489 367.600, 193.025 366.500 C 192.561 365.400, 191.930 363.712, 191.622 362.750 C 191.191 361.402, 189.953 361, 186.231 361 C 183.574 361, 180.860 361.540, 180.200 362.200 M 224.500 363.993 C 214.845 369.483, 211 376.423, 211 388.362 C 211 396.442, 212.749 400.608, 218.736 406.783 C 224.980 413.224, 228.404 414.468, 239.712 414.405 C 247.375 414.362, 249.700 413.955, 253.530 411.985 C 256.063 410.682, 258.570 408.803, 259.103 407.808 C 259.635 406.814, 259.942 401.388, 259.785 395.750 L 259.500 385.500 248.500 385.500 L 237.500 385.500 237.500 390 L 237.500 394.500 243.307 394.802 L 249.115 395.103 248.807 398.703 C 248.518 402.086, 248.199 402.390, 243.500 403.755 C 239.031 405.053, 237.947 405.033, 233.291 403.565 C 227.352 401.694, 224.866 398.838, 223.222 392 C 221.427 384.536, 224.639 375.272, 229.980 372.510 C 234.223 370.316, 243.166 370.566, 247.500 373 C 252.033 375.546, 252.576 375.515, 255.545 372.545 C 258.807 369.284, 258.642 367.817, 254.750 365.478 C 249.157 362.117, 244.752 361.028, 237 361.090 C 230.663 361.141, 228.724 361.591, 224.500 363.993 M 284 361.943 C 283.175 362.397, 281.150 363.361, 279.500 364.086 C 275.712 365.751, 271 369.964, 271 371.687 C 271 372.409, 270.660 373, 270.243 373 C 268.710 373, 267 381.185, 267 388.524 C 267 394.220, 267.516 397.090, 269.095 400.186 C 271.757 405.404, 277.823 412, 279.961 412 C 280.862 412, 282.161 412.561, 282.847 413.247 C 284.815 415.215, 300.695 414.892, 305 412.795 C 309.953 410.383, 316.683 403.695, 318.477 399.402 C 320.338 394.946, 320.487 382.606, 318.750 376.769 C 317.380 372.165, 312.120 366.273, 307.470 364.133 C 305.836 363.382, 303.719 362.369, 302.764 361.883 C 300.595 360.780, 286.029 360.826, 284 361.943 M 335 363.077 C 330.048 365.950, 327 371.013, 327 376.365 C 327 380.131, 327.567 381.343, 330.963 384.843 C 333.206 387.154, 337.872 390.259, 341.713 391.996 C 351.460 396.403, 351.471 396.411, 351.800 399.668 C 352.461 406.216, 341.284 406.835, 334.254 400.639 L 332.008 398.659 328.361 402.305 C 324.115 406.552, 324.437 407.410, 331.920 411.804 C 335.875 414.126, 337.593 414.489, 344.500 414.468 C 351.548 414.445, 352.988 414.115, 356.598 411.689 C 358.853 410.174, 361.328 407.752, 362.098 406.307 C 364.108 402.538, 363.747 392.483, 361.513 390.015 C 359.708 388.019, 350.642 383.329, 343.514 380.702 C 339.483 379.217, 337.865 376.515, 338.784 372.807 C 339.649 369.317, 347.887 369.468, 353.045 373.068 C 355.561 374.824, 355.625 374.807, 358.795 371.566 C 360.558 369.762, 362 367.806, 362 367.217 C 362 366.628, 359.471 364.989, 356.379 363.573 C 349.169 360.273, 340.192 360.064, 335 363.077 M 367 365.979 L 367 371 374.500 371 L 382 371 382 392.552 L 382 414.105 387.250 413.802 L 392.500 413.500 392.650 392.500 L 392.800 371.500 399.650 371 L 406.500 370.500 406.500 366 L 406.500 361.500 386.750 361.229 L 367 360.958 367 365.979 M 424 362.385 C 420.174 363.592, 410 372.992, 410 375.320 C 410 376.118, 409.328 378.060, 408.506 379.636 C 406.111 384.228, 406.592 392.262, 409.620 398.238 C 416.169 411.160, 421.128 414.367, 434.641 414.419 C 444.938 414.459, 447.149 413.665, 453.805 407.536 C 460.172 401.673, 461.514 398.142, 461.422 387.500 C 461.330 376.883, 459.756 372.593, 454.307 368.101 C 447.807 362.744, 442.865 360.984, 434.761 361.141 C 430.767 361.218, 425.925 361.778, 424 362.385 M 61 387.500 C 61 404.476, 60.961 404.314, 65 404.181 C 72.382 403.936, 76.111 402.689, 79.454 399.346 C 82.871 395.929, 83 395.534, 83 388.457 C 83 376.004, 78.428 371, 67.050 371 L 61 371 61 387.500 M 283.422 374.645 C 275.239 382.828, 274.919 393.076, 282.627 400.129 C 290.535 407.366, 302.654 405.522, 306.927 396.432 C 309.574 390.801, 309.559 385.168, 306.883 379.474 C 303.860 373.044, 300.543 371, 293.129 371 C 287.488 371, 286.813 371.253, 283.422 374.645 M 426.457 372.863 C 421.006 376.187, 419.497 379.570, 419.529 388.389 C 419.557 396.194, 419.596 396.312, 423.166 399.397 C 428.686 404.169, 433.160 405.469, 438.570 403.871 C 446.708 401.469, 450 396.910, 450 388.044 C 450 381.600, 447.661 375.962, 443.665 372.772 C 440.604 370.329, 430.525 370.383, 426.457 372.863 M 184.757 378.774 C 183.926 379.723, 182.683 382.300, 181.995 384.500 C 181.307 386.700, 180.352 389.534, 179.872 390.797 C 178.392 394.695, 178.800 395, 185.500 395 C 191.725 395, 192 394.897, 192 392.559 C 192 391.216, 191.550 389.840, 191 389.500 C 190.450 389.160, 190 387.810, 190 386.500 C 190 385.190, 189.550 383.840, 189 383.500 C 188.450 383.160, 188 381.810, 188 380.500 C 188 377.361, 186.631 376.632, 184.757 378.774 M 369.990 428.759 C 368.025 429.739, 365.638 432.111, 364.526 434.186 C 362.745 437.513, 362.685 438.241, 363.918 441.650 C 365.421 445.807, 366.470 447.111, 369.705 448.842 C 374.243 451.271, 382 449.303, 382 445.723 C 382 444.139, 381.525 443.884, 379.500 444.383 C 378.125 444.723, 375.988 445.229, 374.750 445.509 C 371.019 446.352, 368.500 443.544, 368.500 438.540 C 368.500 436.135, 368.877 433.792, 369.338 433.333 C 369.799 432.875, 372.837 432.578, 376.088 432.674 C 380.663 432.809, 382 432.520, 382 431.399 C 382 430.053, 380.547 429.214, 375.490 427.642 C 374.370 427.294, 371.933 427.789, 369.990 428.759 M 256.429 429.325 C 256.149 430.054, 256.051 434.886, 256.210 440.064 C 256.458 448.098, 256.756 449.526, 258.250 449.812 C 259.685 450.086, 260 449.414, 260 446.073 C 260 442.113, 260.094 442, 263.378 442 C 266.922 442, 269.992 439.576, 268.408 438.029 C 267.908 437.541, 265.925 436.998, 264 436.821 C 261.274 436.571, 260.500 436.058, 260.500 434.500 C 260.500 432.862, 261.269 432.444, 264.750 432.193 C 268.186 431.944, 269 431.513, 269 429.943 C 269 428.234, 268.274 428, 262.969 428 C 258.884 428, 256.773 428.428, 256.429 429.325 M 275.457 429.251 C 275.162 430.021, 275.051 434.891, 275.210 440.075 C 275.477 448.737, 275.662 449.500, 277.500 449.500 C 279.373 449.500, 279.500 448.833, 279.500 439.014 C 279.500 429.815, 279.285 428.486, 277.747 428.190 C 276.783 428.004, 275.752 428.482, 275.457 429.251 M 286.934 429.250 C 286.601 435.559, 287.307 448.688, 288.018 449.408 C 289.859 451.270, 292.011 447.872, 291.841 443.370 C 291.750 440.962, 291.904 438.762, 292.184 438.483 C 292.463 438.203, 294.607 440.704, 296.948 444.041 C 303.241 453.012, 304.500 452.170, 304.500 438.986 C 304.500 429.167, 304.373 428.500, 302.500 428.500 C 300.749 428.500, 300.505 429.152, 300.543 433.750 C 300.566 436.637, 300.296 439, 299.942 439 C 299.588 439, 297.324 436.525, 294.910 433.500 C 290.811 428.363, 287.086 426.378, 286.934 429.250 M 318.378 429.750 C 318.070 430.712, 317.441 432.400, 316.980 433.500 C 315.944 435.972, 311.999 447.156, 311.711 448.441 C 311.271 450.404, 315.225 450.124, 316.649 448.091 C 318.684 445.186, 324.555 445.229, 326.934 448.167 C 328.058 449.555, 329.292 450.102, 330.369 449.689 C 332.358 448.925, 331.901 446.144, 328.528 438.500 C 327.314 435.750, 325.809 432.262, 325.182 430.750 C 323.840 427.511, 319.306 426.845, 318.378 429.750 M 339 439.073 C 339 449.079, 339.169 450.115, 340.750 449.814 C 342.116 449.554, 342.567 448.277, 342.807 443.991 C 343.196 437.042, 344.359 435.839, 346.533 440.135 C 349.172 445.350, 352.952 450, 354.551 450 C 355.729 450, 356 447.939, 356 439 C 356 428.667, 355.879 428, 354 428 C 352.242 428, 352 428.667, 352 433.500 C 352 436.525, 351.647 439, 351.216 439 C 350.784 439, 349.575 437.550, 348.528 435.779 C 346.192 431.824, 342.174 428, 340.354 428 C 339.297 428, 339 430.428, 339 439.073 M 389.627 429.529 C 388.694 431.962, 388.898 447.291, 389.885 448.848 C 390.355 449.590, 391.586 450.034, 392.620 449.835 C 394.318 449.508, 394.500 448.455, 394.500 438.986 C 394.500 429.060, 394.387 428.484, 392.377 428.197 C 391.125 428.018, 389.997 428.565, 389.627 429.529 M 401.216 438.701 L 401.500 449.500 407.486 449.500 C 412.392 449.500, 413.533 449.184, 413.810 447.750 C 414.092 446.286, 413.387 446, 409.504 446 C 405.261 446, 404.888 445.806, 405.180 443.750 C 405.425 442.027, 406.320 441.383, 409 441 C 411.667 440.619, 412.500 440.024, 412.500 438.500 C 412.500 436.891, 411.816 436.490, 409 436.449 C 406.215 436.408, 405.500 435.999, 405.500 434.449 C 405.500 432.866, 406.311 432.442, 409.812 432.189 C 413.229 431.943, 414.057 431.529, 413.802 430.189 C 413.548 428.857, 412.153 428.437, 407.206 428.201 L 400.931 427.903 401.216 438.701 M 420.429 429.325 C 420.149 430.054, 420.051 434.891, 420.210 440.075 C 420.477 448.737, 420.662 449.500, 422.500 449.500 C 424.022 449.500, 424.619 448.667, 425 446.011 C 425.687 441.221, 428.042 441.102, 430.500 445.732 C 431.748 448.084, 433.346 449.620, 434.750 449.820 C 437.575 450.221, 437.606 448.660, 434.851 444.791 C 432.810 441.924, 432.785 441.634, 434.351 438.982 C 436.601 435.175, 436.427 433.336, 433.545 430.455 C 431.584 428.493, 430.071 428, 426.014 428 C 422.722 428, 420.759 428.466, 420.429 429.325 M 448.378 429.750 C 448.070 430.712, 447.439 432.400, 446.975 433.500 C 445.329 437.402, 442 447.651, 442 448.817 C 442 450.832, 445.735 450.121, 446.290 448 C 446.724 446.338, 447.654 446, 451.790 446 C 455.926 446, 456.855 446.338, 457.290 448 C 457.798 449.944, 460.432 450.760, 461.326 449.250 C 462.001 448.113, 459.195 439.156, 456.315 433.250 C 454.281 429.078, 453.260 428, 451.346 428 C 449.932 428, 448.706 428.722, 448.378 429.750 M 426.250 432.662 C 425.563 432.940, 425 434.029, 425 435.083 C 425 436.546, 425.710 437, 428 437 C 430.277 437, 431 436.544, 431 435.107 C 431 433.647, 428.728 431.582, 427.668 432.079 C 427.576 432.122, 426.938 432.385, 426.250 432.662 M 450 435.918 C 450 436.973, 449.728 438.544, 449.396 439.410 C 448.664 441.317, 451.658 442.742, 453.187 441.213 C 453.923 440.477, 453.830 439.236, 452.875 437.081 C 451.334 433.597, 450 433.058, 450 435.918 M 320 438.500 C 320 440.976, 320.448 442, 321.531 442 C 323.638 442, 324.381 439.580, 323.042 437.078 C 321.363 433.942, 320 434.579, 320 438.500" stroke="none" fill="#8b152c" fill-rule="evenodd"/></svg>