<?xml version="1.0" encoding="UTF-8"?>
<!-- Generator: visioncortex VTracer 0.6.3 -->
<svg version="1.1" xmlns="http://www.w3.org/2000/svg" width="1280" height="376">
<path d="M0 0 C0.67 -0 1.35 -0 2.04 -0 C4.31 -0.01 6.58 -0.01 8.85 -0 C10.47 -0 12.09 -0.01 13.71 -0.01 C18.13 -0.01 22.54 -0.01 26.96 -0.01 C31.57 -0 36.18 -0.01 40.79 -0.01 C48.54 -0.01 56.29 -0.01 64.04 -0 C73.01 0 81.97 0 90.94 -0.01 C98.63 -0.01 106.32 -0.01 114 -0.01 C118.6 -0.01 123.2 -0.01 127.79 -0.01 C132.11 -0.01 136.44 -0.01 140.76 -0 C142.35 -0 143.94 -0 145.52 -0.01 C147.69 -0.01 149.85 -0 152.02 0 C153.23 0 154.44 0 155.69 0 C158.64 0.13 158.64 0.13 161.64 1.13 C160.28 4.83 158.61 7.91 156.41 11.17 C155.79 12.1 155.17 13.03 154.53 13.98 C153.89 14.94 153.24 15.89 152.57 16.88 C151.6 18.33 151.6 18.33 150.6 19.82 C145.8 26.96 145.8 26.96 144.64 28.13 C143.11 28.22 141.57 28.25 140.04 28.25 C138.54 28.25 138.54 28.25 137.02 28.25 C135.92 28.25 134.82 28.24 133.69 28.24 C132.54 28.24 131.39 28.24 130.2 28.24 C126.38 28.24 122.55 28.23 118.73 28.22 C116.08 28.22 113.44 28.22 110.79 28.22 C104.53 28.22 98.27 28.21 92.01 28.2 C84.88 28.19 77.76 28.18 70.63 28.18 C55.96 28.17 41.3 28.15 26.64 28.13 C26.97 43.31 27.3 58.49 27.64 74.13 C32.59 73.14 32.59 73.14 37.64 72.13 C41.33 71.79 44.99 71.79 48.7 71.81 C49.7 71.82 50.7 71.83 51.74 71.83 C80.98 72.3 105 84.87 125.4 105.55 C130.09 110.41 134.21 115.29 137.64 121.13 C138.3 122.24 138.96 123.36 139.65 124.51 C153.66 148.92 155.81 176.39 148.79 203.37 C140.53 230.21 121.04 252.17 96.44 265.31 C73.19 276.92 45.28 278.76 20.59 270.87 C-7.15 261.42 -30.53 240.51 -43.49 214.26 C-44.96 210.66 -45.69 206.94 -46.36 203.13 C-24.88 201.83 -24.88 201.83 -19.44 205.39 C-16.55 208.58 -14.91 212.4 -13.23 216.33 C-8.19 226.83 4.08 234.9 14.64 239.13 C35.49 246.39 57.68 246.77 77.95 237.44 C94.81 228.33 107.58 213.17 113.07 194.81 C114.39 189.59 115.41 184.51 115.64 179.13 C115.68 178.33 115.72 177.52 115.76 176.7 C116.22 158.2 112.02 142.94 100.64 128.13 C100.09 127.39 99.54 126.66 98.98 125.9 C88.72 113.23 72.52 105.68 56.64 103.13 C33.59 101.29 14.81 106.53 -3.42 120.66 C-5.36 122.13 -5.36 122.13 -6.36 122.13 C-6.52 106.37 -6.67 90.61 -6.81 74.85 C-6.87 67.53 -6.94 60.22 -7.01 52.9 C-7.08 46.52 -7.13 40.15 -7.19 33.77 C-7.22 30.4 -7.25 27.02 -7.28 23.64 C-7.32 19.88 -7.36 16.11 -7.39 12.35 C-7.4 11.22 -7.41 10.09 -7.43 8.93 C-7.43 7.91 -7.44 6.89 -7.45 5.84 C-7.45 4.95 -7.46 4.06 -7.47 3.14 C-7.24 -1.27 -3.64 0 0 0 Z M116.64 165.13 C117.64 168.13 117.64 168.13 117.64 168.13 Z M116.64 180.13 C117.64 183.13 117.64 183.13 117.64 183.13 Z " fill="#88162B" transform="translate(180.36410522460938,98.87301635742188)"/>
<path d="M0 0 C0 86.13 0 172.26 0 261 C-17.49 261 -34.98 261 -53 261 C-55.3 257.55 -55.34 256.05 -55 252 C-52.27 249.27 -50.03 249.34 -46.25 248.69 C-40.35 247.47 -36.84 246.69 -33 242 C-31.1 236.71 -30.71 232.03 -30.75 226.5 C-30.74 225.67 -30.74 224.84 -30.74 223.98 C-30.73 221.22 -30.73 218.45 -30.74 215.68 C-30.74 213.69 -30.73 211.7 -30.73 209.71 C-30.72 204.32 -30.73 198.92 -30.73 193.53 C-30.74 187.88 -30.73 182.23 -30.73 176.58 C-30.72 167.1 -30.73 157.61 -30.74 148.13 C-30.75 137.16 -30.75 126.2 -30.74 115.24 C-30.73 105.82 -30.73 96.4 -30.73 86.99 C-30.73 81.37 -30.73 75.74 -30.73 70.12 C-30.72 64.83 -30.73 59.55 -30.74 54.26 C-30.74 52.32 -30.74 50.39 -30.73 48.45 C-30.73 45.8 -30.74 43.15 -30.75 40.5 C-30.74 39.74 -30.74 38.97 -30.73 38.18 C-30.77 33.44 -31.39 29.48 -33 25 C-34.73 23.6 -34.73 23.6 -36.94 23.19 C-38.13 22.87 -38.13 22.87 -39.34 22.54 C-43.12 21.77 -46.9 21.14 -50.71 20.62 C-53 20 -53 20 -55 17 C-55.37 14.24 -55.18 11.81 -55 9 C-52.36 6.36 -50.88 6.61 -47.2 6.32 C-46 6.22 -44.81 6.12 -43.58 6.01 C-41.65 5.85 -41.65 5.85 -39.69 5.69 C-29.28 4.74 -19.35 3.28 -9.26 0.54 C-3.26 -1.09 -3.26 -1.09 0 0 Z M-44 7 C-44 7.33 -44 7.66 -44 8 C-42.35 8 -40.7 8 -39 8 C-39 7.67 -39 7.34 -39 7 C-40.65 7 -42.3 7 -44 7 Z M-29 37 C-29 100.69 -29 164.38 -29 230 C-28.67 230 -28.34 230 -28 230 C-28 166.31 -28 102.62 -28 37 C-28.33 37 -28.66 37 -29 37 Z " fill="#87162B" transform="translate(124,23)"/>
<path d="M0 0 C1.7 -0 1.7 -0 3.43 -0.01 C4.69 -0.01 5.96 -0.01 7.26 -0 C8.6 -0.01 9.95 -0.01 11.29 -0.01 C15.03 -0.02 18.76 -0.01 22.49 -0.01 C26.54 -0.01 30.59 -0.02 34.63 -0.02 C42.68 -0.03 50.72 -0.03 58.76 -0.03 C68.39 -0.03 78.02 -0.04 87.64 -0.05 C110.92 -0.06 134.19 -0.07 157.46 -0.07 C168.46 -0.08 179.46 -0.08 190.46 -0.08 C228.1 -0.1 265.73 -0.11 303.37 -0.11 C305.73 -0.11 308.09 -0.11 310.46 -0.11 C312.83 -0.11 315.2 -0.11 317.57 -0.11 C322.32 -0.11 327.07 -0.11 331.83 -0.11 C333.01 -0.11 334.19 -0.11 335.4 -0.11 C373.64 -0.12 411.88 -0.13 450.12 -0.16 C490.52 -0.18 530.91 -0.19 571.31 -0.2 C575.74 -0.2 580.17 -0.2 584.6 -0.2 C585.69 -0.2 586.78 -0.2 587.91 -0.2 C605.5 -0.2 623.09 -0.21 640.69 -0.22 C658.35 -0.24 676.02 -0.24 693.69 -0.23 C704.2 -0.23 714.7 -0.23 725.21 -0.25 C732.22 -0.26 739.23 -0.26 746.24 -0.25 C750.24 -0.24 754.24 -0.24 758.24 -0.25 C761.87 -0.26 765.51 -0.26 769.14 -0.25 C771.07 -0.24 773.01 -0.26 774.94 -0.27 C776.08 -0.26 777.22 -0.25 778.39 -0.25 C779.37 -0.25 780.36 -0.25 781.37 -0.25 C783.82 0.13 783.82 0.13 785.72 1.34 C786.82 3.13 786.82 3.13 786.51 5.82 C786.28 6.58 786.05 7.34 785.82 8.13 C710.44 8.18 635.05 8.23 559.67 8.25 C558.56 8.26 557.44 8.26 556.29 8.26 C532.07 8.26 507.84 8.27 483.62 8.28 C471.74 8.28 459.86 8.29 447.98 8.29 C446.8 8.29 445.61 8.29 444.4 8.29 C406.05 8.31 367.69 8.33 329.34 8.36 C289.95 8.38 250.55 8.4 211.16 8.41 C205.6 8.41 200.04 8.41 194.49 8.41 C193.39 8.41 192.3 8.41 191.17 8.41 C173.53 8.42 155.88 8.43 138.24 8.45 C120.52 8.47 102.8 8.47 85.09 8.47 C74.55 8.47 64.01 8.47 53.47 8.49 C46.44 8.5 39.41 8.5 32.38 8.49 C28.37 8.49 24.36 8.49 20.35 8.5 C16.7 8.51 13.06 8.51 9.42 8.5 C7.47 8.5 5.53 8.51 3.59 8.52 C2.45 8.51 1.31 8.51 0.14 8.5 C-0.85 8.5 -1.83 8.5 -2.85 8.5 C-3.62 8.38 -4.39 8.25 -5.18 8.13 C-7.18 5.13 -7.18 5.13 -6.87 3 C-5.51 -0.7 -3.7 0 0 0 Z " fill="#911A2F" transform="translate(409.17983758449554,247.87234950065613)"/>
<path d="M0 0 C0.02 35.65 0.04 71.31 0.05 106.96 C0.05 111.16 0.05 115.37 0.05 119.57 C0.06 120.41 0.06 121.25 0.06 122.11 C0.06 135.68 0.07 149.26 0.08 162.83 C0.09 176.74 0.09 190.66 0.09 204.58 C0.1 213.17 0.1 221.76 0.11 230.36 C0.11 236.24 0.11 242.13 0.11 248.01 C0.11 251.41 0.11 254.82 0.12 258.22 C0.12 261.89 0.12 265.57 0.12 269.25 C0.12 270.34 0.13 271.42 0.13 272.54 C0.13 274.01 0.13 274.01 0.12 275.5 C0.12 276.35 0.12 277.2 0.12 278.08 C0 280 0 280 -1 281 C-3.99 281.15 -6.94 281.23 -9.94 281.25 C-11.19 281.28 -11.19 281.28 -12.47 281.31 C-13.28 281.32 -14.08 281.32 -14.9 281.33 C-15.64 281.34 -16.38 281.35 -17.14 281.36 C-18.06 281.18 -18.06 281.18 -19 281 C-21.09 277.86 -21.25 277.13 -21.28 273.55 C-21.29 272.63 -21.3 271.72 -21.31 270.77 C-21.32 269.76 -21.32 268.75 -21.32 267.72 C-21.34 266.11 -21.34 266.11 -21.35 264.47 C-21.38 260.87 -21.4 257.26 -21.42 253.66 C-21.44 251.08 -21.46 248.51 -21.48 245.93 C-21.54 238.18 -21.57 230.44 -21.61 222.69 C-21.62 220.5 -21.63 218.31 -21.64 216.12 C-21.7 202.53 -21.75 188.94 -21.79 175.35 C-21.79 172.2 -21.8 169.05 -21.81 165.9 C-21.81 165.12 -21.81 164.34 -21.82 163.53 C-21.85 150.86 -21.93 138.19 -22.03 125.52 C-22.14 112.5 -22.2 99.49 -22.21 86.48 C-22.22 79.18 -22.25 71.87 -22.33 64.57 C-22.41 57.69 -22.42 50.82 -22.39 43.95 C-22.39 41.43 -22.41 38.9 -22.46 36.38 C-22.78 16.29 -22.78 16.29 -18.41 11.63 C-15.37 9.35 -12.37 7.73 -9 6 C-7.31 4.35 -5.64 2.69 -4 1 C-1 0 -1 0 0 0 Z M-20 15 C-20 35.13 -20 55.26 -20 76 C-19.67 76 -19.34 76 -19 76 C-19 55.87 -19 35.74 -19 15 C-19.33 15 -19.66 15 -20 15 Z " fill="#89172C" transform="translate(154,3)"/>
<path d="M0 0 C6.96 -0.03 13.92 -0.04 20.88 -0.05 C23.25 -0.06 25.62 -0.07 27.99 -0.08 C31.39 -0.09 34.79 -0.09 38.18 -0.1 C39.25 -0.1 40.32 -0.11 41.42 -0.11 C42.89 -0.11 42.89 -0.11 44.39 -0.11 C45.26 -0.12 46.12 -0.12 47.02 -0.12 C49 0 49 0 50 1 C50.91 0.94 51.81 0.88 52.75 0.81 C63.53 0.7 74.61 6.09 82.44 13.22 C91.82 22.97 95.18 32.93 95.25 46.12 C95.27 47.02 95.29 47.92 95.31 48.85 C95.36 57.38 93.67 65.04 89.06 72.31 C88.58 73.09 88.1 73.87 87.6 74.68 C80.01 85.72 68.41 93.13 55.38 96.25 C47.52 97.67 39.76 98.16 31.79 98.2 C30.85 98.21 29.91 98.21 28.95 98.22 C26.98 98.23 25.02 98.24 23.06 98.24 C20.05 98.25 17.03 98.28 14.02 98.31 C12.11 98.32 10.2 98.32 8.29 98.33 C7.38 98.34 6.48 98.35 5.55 98.37 C4.72 98.36 3.89 98.36 3.03 98.36 C1.93 98.36 1.93 98.36 0.81 98.37 C-1 98 -1 98 -3 95 C-2.48 91.48 -2.48 91.48 -1 90 C1.31 89.43 3.64 88.97 5.97 88.5 C7.98 88.19 7.98 88.19 9 87 C9.09 84.57 9.13 82.16 9.11 79.73 C9.11 78.97 9.11 78.2 9.11 77.42 C9.11 74.89 9.11 72.37 9.1 69.84 C9.1 68.09 9.09 66.35 9.09 64.6 C9.09 59.99 9.08 55.38 9.07 50.77 C9.06 46.07 9.05 41.38 9.05 36.68 C9.04 27.45 9.02 18.23 9 9 C8.36 8.95 7.72 8.9 7.07 8.85 C6.24 8.78 5.41 8.7 4.56 8.62 C3.74 8.56 2.92 8.49 2.07 8.41 C1.38 8.28 0.7 8.14 0 8 C-1.43 5.14 -0.6 3.07 0 0 Z M29 11 C28.9 13.25 28.87 15.51 28.87 17.77 C28.87 18.47 28.87 19.18 28.87 19.91 C28.86 22.26 28.86 24.61 28.87 26.96 C28.87 28.59 28.87 30.22 28.86 31.85 C28.86 35.26 28.86 38.68 28.87 42.1 C28.88 46.48 28.87 50.87 28.87 55.25 C28.86 58.62 28.86 61.98 28.87 65.35 C28.87 66.96 28.87 68.58 28.86 70.19 C28.86 72.45 28.87 74.71 28.87 76.97 C28.87 78.26 28.87 79.55 28.87 80.87 C28.86 84.03 28.86 84.03 30 87 C36.53 90.53 45.36 89.78 52.44 88.25 C61.04 85.23 67.33 78.9 71.31 70.75 C77.01 56.53 76.44 39.43 70.93 25.25 C66.9 17.36 61.01 12.76 52.75 9.75 C46.36 8 34.37 5.63 29 11 Z M75 41 C76 43 76 43 76 43 Z M75 54 C76 57 76 57 76 57 Z " fill="#89172C" transform="translate(410,57)"/>
<path d="M0 0 C11.79 7.6 20.62 18.6 24.38 32.25 C26.94 46.81 25.15 62.47 17 75 C8.33 86.28 -1.56 92.95 -15.5 95.69 C-29.42 96.93 -41.9 94.54 -53.03 85.69 C-64.28 76.06 -70.92 65.52 -72.81 50.69 C-73.76 36.38 -69.13 22.08 -60 11 C-45.25 -4.82 -19.39 -11.8 0 0 Z M-43.38 11.69 C-52.31 25.08 -53.15 42.9 -50.32 58.43 C-47.77 68.77 -43.5 79.24 -34 85 C-26.9 87.86 -18.59 88.69 -11.3 86.01 C-4.26 81.78 0.12 74.84 2.31 67 C4.89 54.07 3.9 41.92 2 29 C1.81 27.68 1.62 26.36 1.43 25.04 C1.29 24.04 1.15 23.03 1 22 C0.34 22 -0.32 22 -1 22 C-1.19 21.01 -1.37 20.02 -1.56 19 C-3.25 13.22 -7.13 8.93 -12.07 5.61 C-22.94 0.09 -35.58 2.06 -43.38 11.69 Z M4 40 C5 44 5 44 5 44 Z M4 53 C5 57 5 57 5 57 Z " fill="#88162B" transform="translate(905,61)"/>
<path d="M0 0 C2.07 1.44 3.93 2.98 5.82 4.65 C6.94 5.62 6.94 5.62 8.09 6.61 C17.28 15.08 22.51 25.99 23.19 38.5 C23.55 53.95 21.81 66.91 10.82 78.65 C10.32 79.26 9.82 79.87 9.3 80.5 C0.63 90.42 -12.36 93.93 -25 94.96 C-40.39 94.45 -51.69 88.55 -62.18 77.65 C-72.35 65.46 -75.55 52.31 -74.18 36.65 C-71.76 24.05 -65.5 10.6 -54.83 2.96 C-37.61 -7.72 -17.99 -11.14 0 0 Z M-45.18 10.65 C-52.88 22.14 -55.49 37.96 -53.06 51.46 C-52.92 52.24 -52.78 53.02 -52.64 53.82 C-50.8 63.55 -47.48 73.61 -40.18 80.65 C-32.58 85.61 -25.13 86.41 -16.18 85.65 C-10.53 83.98 -6.28 79.51 -3.18 74.65 C0.93 65.63 1.99 57.27 1.94 47.46 C1.94 46.53 1.94 45.6 1.94 44.64 C1.9 38.27 1.65 31.97 0.82 25.65 C0.16 25.65 -0.5 25.65 -1.18 25.65 C-1.18 23.67 -1.18 21.69 -1.18 19.65 C-1.84 19.65 -2.5 19.65 -3.18 19.65 C-3.41 18.8 -3.64 17.96 -3.87 17.09 C-6.62 9.88 -10.23 5.94 -17.18 2.65 C-27.79 -0.6 -37.87 2.39 -45.18 10.65 Z M1.82 34.65 C2.82 36.65 2.82 36.65 2.82 36.65 Z M-73.18 36.65 C-72.18 38.65 -72.18 38.65 -72.18 38.65 Z M-73.18 50.65 C-72.18 52.65 -72.18 52.65 -72.18 52.65 Z M1.82 57.65 C2.82 59.65 2.82 59.65 2.82 59.65 Z " fill="#88162B" transform="translate(1175.18359375,62.3515625)"/>
<path d="M0 0 C3.38 0.38 3.38 0.38 6.38 1.38 C6.08 2.1 5.79 2.82 5.49 3.56 C4.8 5.31 4.13 7.07 3.49 8.84 C0.63 16.26 -2.98 22.77 -9.62 27.38 C-21.32 31.06 -34.28 29.89 -46.38 29.5 C-51.25 29.37 -56.12 29.36 -60.98 29.34 C-70.18 29.27 -79.38 29.1 -88.58 28.89 C-99.05 28.65 -109.53 28.54 -120.01 28.43 C-141.55 28.21 -163.09 27.84 -184.62 27.38 C-184.82 24.23 -185.01 21.08 -185.19 17.94 C-185.24 17.04 -185.3 16.14 -185.36 15.22 C-185.41 14.36 -185.45 13.51 -185.5 12.63 C-185.55 11.84 -185.6 11.05 -185.65 10.23 C-185.62 8.38 -185.62 8.38 -184.62 7.38 C-181.49 7.25 -178.38 7.2 -175.25 7.19 C-174.25 7.18 -173.26 7.17 -172.24 7.16 C-168.92 7.13 -165.6 7.11 -162.28 7.09 C-159.94 7.08 -157.6 7.06 -155.26 7.04 C-150.28 7 -145.3 6.96 -140.32 6.93 C-132.59 6.88 -124.86 6.81 -117.12 6.74 C-75.56 6.38 -75.56 6.38 -58.5 6.3 C-52.34 6.27 -46.17 6.23 -40 6.17 C-36.66 6.14 -33.31 6.12 -29.96 6.12 C-26.37 6.12 -22.77 6.09 -19.18 6.05 C-18.16 6.05 -17.14 6.06 -16.09 6.07 C-10.37 6 -10.37 6 -5.69 2.86 C-3.62 0.38 -3.62 0.38 0 0 Z M-72.62 7.38 C-72.62 7.7 -72.62 8.03 -72.62 8.38 C-52.5 8.38 -32.37 8.38 -11.62 8.38 C-11.62 8.05 -11.62 7.72 -11.62 7.38 C-31.75 7.38 -51.88 7.38 -72.62 7.38 Z " fill="#8A172C" transform="translate(358.625,63.625)"/>
<path d="M0 0 C1.04 -0.01 2.08 -0.02 3.14 -0.04 C10.98 -0.01 20.37 0.16 26.79 5.16 C28.82 7.79 29.1 9.29 29.33 12.58 C29.44 14.05 29.44 14.05 29.56 15.55 C29.62 16.56 29.69 17.58 29.75 18.62 C29.87 20.17 29.87 20.17 29.98 21.75 C30.17 24.29 30.34 26.83 30.5 29.38 C28.19 29.7 25.88 30.03 23.5 30.38 C23.5 29.39 23.5 28.39 23.5 27.38 C22.84 27.38 22.18 27.38 21.5 27.38 C21.1 26.16 21.1 26.16 20.69 24.93 C18.35 18.55 16.58 14.38 10.46 11.14 C2.13 7.88 -7.56 8.23 -15.88 11.31 C-23.58 14.97 -28.51 20.51 -31.88 28.31 C-37.46 44.38 -36.41 59.95 -30.21 75.62 C-26.41 83.44 -21.41 87.67 -13.23 90.51 C-9.12 91.46 -5.44 91.67 -1.25 91.62 C-0.54 91.63 0.16 91.64 0.89 91.65 C4.64 91.63 6.31 91.5 9.5 89.38 C9.93 86.69 9.93 86.69 9.83 83.56 C9.82 81.83 9.82 81.83 9.81 80.05 C9.79 78.84 9.77 77.63 9.75 76.38 C9.74 74.55 9.74 74.55 9.73 72.7 C9.97 66.86 9.97 66.86 8.5 61.38 C5.7 60.77 2.9 60.42 0.07 60.04 C-2.5 59.38 -2.5 59.38 -4.5 56.38 C-4.17 55.06 -3.84 53.73 -3.5 52.38 C16.79 52.87 16.79 52.87 37.5 53.38 C37.5 55.35 37.5 57.34 37.5 59.38 C35.19 60.37 32.88 61.35 30.5 62.38 C30.5 73.26 30.5 84.16 30.5 95.38 C20.36 98.76 20.36 98.76 16.82 99.32 C16.04 99.45 15.26 99.58 14.46 99.71 C13.67 99.82 12.88 99.94 12.06 100.06 C11.22 100.19 10.39 100.31 9.52 100.44 C-6.71 102.76 -23.71 101.06 -37.5 91.38 C-48.05 82.94 -55.27 72.87 -57.5 59.38 C-58.9 43.94 -55.41 30.11 -45.61 18.04 C-33.33 4.68 -17.76 -0.2 0 0 Z M-56.5 44.38 C-55.5 47.38 -55.5 47.38 -55.5 47.38 Z M-56.5 57.38 C-55.5 59.38 -55.5 59.38 -55.5 59.38 Z M-4.5 93.38 C-4.5 93.7 -4.5 94.03 -4.5 94.38 C-2.19 94.38 0.12 94.38 2.5 94.38 C2.5 94.05 2.5 93.72 2.5 93.38 C0.19 93.38 -2.12 93.38 -4.5 93.38 Z " fill="#89172B" transform="translate(786.5,55.625)"/>
<path d="M0 0 C1.21 0.02 2.41 0.04 3.65 0.06 C4.65 0.07 4.65 0.07 5.66 0.09 C7.87 0.12 10.07 0.16 12.27 0.2 C13.79 0.23 15.32 0.25 16.84 0.27 C20.86 0.34 24.87 0.41 28.89 0.48 C32.98 0.55 37.08 0.61 41.18 0.68 C49.22 0.81 57.26 0.94 65.3 1.08 C65.46 2.84 65.63 4.6 65.79 6.36 C65.88 7.35 65.98 8.33 66.07 9.34 C66.32 12.32 66.4 15.27 66.36 18.27 C66.35 19.19 66.34 20.11 66.33 21.06 C66.32 21.73 66.31 22.4 66.3 23.08 C64.32 23.41 62.34 23.74 60.3 24.08 C59.69 22.87 59.09 21.67 58.49 20.46 C58.12 19.73 57.75 19.01 57.38 18.26 C56.46 16.41 55.59 14.53 54.74 12.64 C53.5 9.78 53.5 9.78 50.3 9.08 C48.53 9 46.75 8.97 44.97 8.98 C43.58 8.99 43.58 8.99 42.17 8.99 C40.99 9 39.82 9.01 38.61 9.02 C34.88 9.04 31.14 9.06 27.3 9.08 C27.3 19.97 27.3 30.86 27.3 42.08 C30.37 41.96 33.44 41.83 36.61 41.71 C37.58 41.67 38.54 41.64 39.53 41.6 C40.3 41.57 41.06 41.53 41.85 41.5 C42.63 41.46 43.41 41.43 44.21 41.4 C46.6 41.19 46.6 41.19 49.3 39.08 C49.77 37.91 50.25 36.73 50.74 35.52 C52.3 32.08 52.3 32.08 54.3 31.02 C56.3 31.08 56.3 31.08 59.3 33.08 C59.65 35.86 59.65 35.86 59.63 39.37 C59.62 40.62 59.62 41.87 59.61 43.16 C59.59 44.48 59.57 45.79 59.55 47.14 C59.54 48.46 59.54 49.78 59.53 51.14 C59.45 60.93 59.45 60.93 58.3 62.08 C56.3 62.12 54.3 62.12 52.3 62.08 C52.04 61.44 51.79 60.81 51.53 60.15 C51.18 59.32 50.84 58.5 50.49 57.64 C50.15 56.82 49.81 56 49.47 55.15 C48.41 52.75 48.41 52.75 45.3 52.08 C43.82 51.94 42.33 51.84 40.85 51.77 C40 51.72 39.15 51.68 38.28 51.64 C36.96 51.58 36.96 51.58 35.61 51.52 C34.72 51.48 33.83 51.43 32.91 51.39 C30.7 51.28 28.5 51.18 26.3 51.08 C26.42 55.42 26.54 59.77 26.67 64.11 C26.71 65.58 26.76 67.06 26.8 68.54 C26.85 70.66 26.92 72.79 26.98 74.91 C27.04 76.83 27.04 76.83 27.09 78.78 C27.27 82.53 27.27 82.53 28.3 86.08 C33 87.65 37.75 87.31 42.67 87.33 C43.71 87.35 44.76 87.37 45.83 87.39 C53.17 87.62 53.17 87.62 59.3 84.08 C61.25 80.97 61.25 80.97 62.86 77.46 C65.81 71.28 65.81 71.28 68.51 70.18 C69.1 70.15 69.69 70.12 70.3 70.08 C70.3 70.74 70.3 71.4 70.3 72.08 C71.29 72.08 72.28 72.08 73.3 72.08 C72.06 93.32 72.06 93.32 68.3 97.08 C66.07 97.19 63.84 97.23 61.61 97.24 C60.56 97.25 60.56 97.25 59.49 97.26 C57.17 97.27 54.84 97.28 52.52 97.29 C50.91 97.29 49.3 97.3 47.7 97.3 C44.32 97.31 40.95 97.32 37.57 97.32 C33.24 97.33 28.91 97.35 24.57 97.38 C21.25 97.4 17.93 97.4 14.61 97.41 C13.01 97.41 11.41 97.42 9.81 97.43 C7.58 97.45 5.35 97.45 3.12 97.44 C1.85 97.44 0.58 97.45 -0.73 97.45 C-1.71 97.33 -2.69 97.21 -3.7 97.08 C-5.7 94.08 -5.7 94.08 -5.39 91.96 C-4.7 90.08 -4.7 90.08 -3.7 89.08 C-2.02 88.69 -0.33 88.34 1.36 88.02 C2.74 87.75 2.74 87.75 4.15 87.48 C4.86 87.35 5.57 87.22 6.3 87.08 C7.4 83.52 7.43 80.2 7.43 76.48 C7.43 75.83 7.43 75.17 7.43 74.5 C7.44 72.34 7.43 70.18 7.43 68.03 C7.43 66.52 7.43 65.02 7.43 63.51 C7.44 60.36 7.43 57.21 7.43 54.06 C7.42 50.03 7.43 46 7.43 41.97 C7.44 38.86 7.43 35.75 7.43 32.64 C7.43 31.16 7.43 29.67 7.43 28.19 C7.44 26.11 7.43 24.02 7.43 21.94 C7.43 20.76 7.43 19.58 7.43 18.36 C7.3 15.18 6.89 12.2 6.3 9.08 C3.33 8.09 0.36 7.1 -2.7 6.08 C-3.08 4.43 -3.42 2.76 -3.7 1.08 C-2.7 0.08 -2.7 0.08 0 0 Z M8.3 12.08 C9.3 15.08 9.3 15.08 9.3 15.08 Z M8.3 83.08 C9.3 85.08 9.3 85.08 9.3 85.08 Z M38.3 89.08 C38.3 89.41 38.3 89.74 38.3 90.08 C41.6 90.08 44.9 90.08 48.3 90.08 C48.3 89.75 48.3 89.42 48.3 89.08 C45 89.08 41.7 89.08 38.3 89.08 Z " fill="#8A172C" transform="translate(518.7017974853516,57.91770935058594)"/>
<path d="M0 0 C1.38 2.78 2.35 5.24 3.28 8.17 C3.57 9.02 3.85 9.87 4.15 10.75 C4.77 12.59 5.39 14.44 5.99 16.29 C7.27 20.19 8.59 24.08 9.9 27.97 C10.58 29.98 11.26 31.98 11.94 33.99 C15.08 43.33 18.42 52.6 21.84 61.84 C22.74 64.27 23.63 66.71 24.52 69.14 C25.07 70.63 25.62 72.12 26.17 73.61 C26.54 74.61 26.54 74.61 26.91 75.62 C29.3 83.07 29.3 83.07 34.45 88.43 C35.33 88.72 36.21 89.01 37.12 89.31 C41.98 90.98 41.98 90.98 43 92 C43.12 94.5 43.12 94.5 43 97 C40.93 99.07 36.52 98.19 33.66 98.2 C32.4 98.21 32.4 98.21 31.12 98.22 C29.35 98.23 27.57 98.24 25.8 98.24 C23.08 98.25 20.36 98.28 17.63 98.31 C15.91 98.32 14.19 98.32 12.47 98.33 C11.65 98.34 10.84 98.35 9.99 98.37 C7.7 98.36 7.7 98.36 4 98 C2 95 2 95 2.38 92.81 C2.58 92.21 2.79 91.62 3 91 C6.47 90.01 6.47 90.01 10 89 C9.07 82.47 7.78 76.79 4.8 70.88 C4 69 4 69 4 66 C-5.24 66.33 -14.48 66.66 -24 67 C-25.52 71.36 -25.52 71.36 -27.06 75.81 C-27.55 77.18 -27.55 77.18 -28.04 78.58 C-28.29 79.3 -28.53 80.02 -28.79 80.77 C-29.04 81.51 -29.3 82.25 -29.56 83.01 C-30.22 85.19 -30.22 85.19 -29 88 C-27.15 88.8 -27.15 88.8 -25 89.31 C-22.82 90.04 -22.82 90.04 -21 91 C-19.94 94.12 -19.94 94.12 -20 97 C-21.91 98.91 -25.42 98.19 -28.03 98.2 C-28.73 98.21 -29.44 98.21 -30.16 98.22 C-31.65 98.23 -33.15 98.24 -34.64 98.24 C-36.92 98.25 -39.21 98.28 -41.5 98.31 C-42.95 98.32 -44.39 98.32 -45.84 98.33 C-46.87 98.35 -46.87 98.35 -47.92 98.37 C-49.85 98.36 -49.85 98.36 -53 98 C-55 95 -55 95 -54.92 92.91 C-54 91 -54 91 -51.89 90.09 C-51.02 89.85 -50.15 89.62 -49.25 89.38 C-45.05 87.83 -43.21 86.58 -41.19 82.56 C-39.69 78.82 -38.25 75.05 -36.8 71.28 C-33.26 62.06 -29.67 52.85 -26.08 43.65 C-24.05 38.43 -22.03 33.22 -20 28 C-19.75 27.36 -19.5 26.72 -19.25 26.07 C-16.33 18.56 -16.33 18.56 -13.59 10.99 C-13.23 9.96 -12.87 8.93 -12.5 7.88 C-12.14 6.82 -11.78 5.77 -11.41 4.68 C-8.86 -0.17 -5.18 -2.2 0 0 Z M-11 25 C-11.22 25.74 -11.44 26.48 -11.66 27.25 C-13.22 32.4 -14.8 37.52 -16.64 42.58 C-16.91 43.34 -17.19 44.11 -17.48 44.9 C-18.03 46.41 -18.59 47.93 -19.16 49.44 C-19.83 51.27 -20.42 53.13 -21 55 C-20.67 55.66 -20.34 56.32 -20 57 C-10.1 56.5 -10.1 56.5 0 56 C-2 48.33 -4.34 40.87 -6.91 33.38 C-7.81 30.58 -8.5 27.9 -9 25 C-9.66 25 -10.32 25 -11 25 Z " fill="#89172C" transform="translate(683,57)"/>
<path d="M0 0 C23.44 11.06 41.8 26.03 51 51 C57.76 71.26 55.64 93.12 46.43 112.26 C42.51 119.38 37.65 125.19 32 131 C31.35 131.71 30.7 132.42 30.04 133.15 C22.57 141.11 12.47 147.74 2 151 C-0.32 150.62 -0.32 150.62 -2 150 C-1.56 149.58 -1.12 149.16 -0.67 148.73 C0.98 147.02 2.35 145.28 3.75 143.38 C5.34 141.2 6.94 139.07 8.66 137 C25.64 116.5 30.82 90.62 28.72 64.55 C25.86 40.69 15.9 18.35 -2 2 C-1.34 1.34 -0.68 0.68 0 0 Z M30 65 C31 68 31 68 31 68 Z M30 84 C31 88 31 88 31 88 Z " fill="#87162B" transform="translate(312,197)"/>
<path d="M0 0 C1.01 0.32 2.03 0.65 3.07 0.98 C6.72 2.02 10.07 2.25 13.88 2.26 C14.53 2.26 15.18 2.27 15.85 2.27 C17.96 2.28 20.08 2.27 22.2 2.27 C23.68 2.27 25.16 2.27 26.65 2.27 C29.74 2.27 32.84 2.27 35.93 2.26 C39.9 2.25 43.86 2.26 47.83 2.27 C50.88 2.28 53.94 2.27 57 2.27 C58.46 2.27 59.92 2.27 61.38 2.27 C63.42 2.28 65.47 2.27 67.51 2.26 C68.67 2.26 69.83 2.26 71.02 2.25 C73.95 2 75.45 1.32 78 0 C78.99 0.33 79.98 0.66 81 1 C82.11 6.58 82.36 12.14 82.62 17.81 C82.68 18.78 82.73 19.74 82.78 20.74 C82.83 21.66 82.87 22.57 82.91 23.52 C82.95 24.36 83 25.19 83.04 26.05 C83 28 83 28 82 29 C80 29.04 78 29.04 76 29 C75.6 27.93 75.2 26.86 74.79 25.75 C74.26 24.36 73.72 22.96 73.19 21.56 C72.93 20.86 72.67 20.15 72.4 19.42 C71.68 17.58 70.85 15.78 70 14 C67.29 13.1 65.76 12.88 62.99 12.9 C62.23 12.91 61.47 12.91 60.69 12.91 C59.51 12.92 59.51 12.92 58.31 12.94 C57.52 12.94 56.72 12.95 55.9 12.95 C53.93 12.96 51.97 12.98 50 13 C49.95 22.14 49.92 31.27 49.9 40.41 C49.89 44.65 49.87 48.89 49.85 53.14 C49.83 57.24 49.82 61.33 49.81 65.43 C49.81 66.99 49.8 68.55 49.79 70.11 C49.77 72.3 49.77 74.5 49.77 76.69 C49.77 78.56 49.77 78.56 49.76 80.46 C50.02 84.26 50.69 87.43 52 91 C54.55 92.45 54.55 92.45 57.56 92.88 C62.99 93.99 62.99 93.99 64 95 C64.12 97.5 64.12 97.5 64 100 C62.46 101.54 61.02 101.14 58.88 101.16 C57.57 101.18 57.57 101.18 56.23 101.19 C54.8 101.2 54.8 101.2 53.35 101.2 C52.38 101.21 51.41 101.21 50.41 101.22 C48.35 101.23 46.29 101.24 44.24 101.24 C41.08 101.25 37.92 101.28 34.77 101.31 C32.77 101.32 30.78 101.32 28.79 101.33 C27.84 101.34 26.89 101.35 25.91 101.37 C24.59 101.36 24.59 101.36 23.25 101.36 C22.48 101.36 21.7 101.36 20.9 101.37 C20.28 101.25 19.65 101.12 19 101 C17 98 17 98 17.31 95.88 C18 94 18 94 19 93 C20.68 92.61 22.37 92.26 24.06 91.94 C25.44 91.67 25.44 91.67 26.85 91.4 C27.56 91.27 28.27 91.14 29 91 C30.18 87.26 30.17 83.55 30.21 79.66 C30.22 78.93 30.23 78.2 30.24 77.44 C30.27 75.03 30.29 72.62 30.32 70.2 C30.34 68.53 30.36 66.85 30.38 65.18 C30.43 60.77 30.48 56.36 30.53 51.96 C30.58 47.46 30.64 42.96 30.69 38.46 C30.8 29.64 30.9 20.82 31 12 C28.44 12.09 25.88 12.19 23.31 12.31 C22.59 12.34 21.87 12.36 21.13 12.38 C16.67 12.6 13.6 13.11 10 16 C8.84 18.46 7.97 20.62 7.19 23.19 C6.97 23.84 6.76 24.5 6.53 25.17 C6.01 26.77 5.5 28.39 5 30 C3.02 30 1.04 30 -1 30 C-3.81 21.58 -2.05 10.69 -1 2 C-0.67 1.34 -0.34 0.68 0 0 Z M10 4 C10 4.33 10 4.66 10 5 C30.13 5 50.26 5 71 5 C71 4.67 71 4.34 71 4 C50.87 4 30.74 4 10 4 Z M-1 15 C0 19 0 19 0 19 Z " fill="#8B172C" transform="translate(1012,54)"/>
<path d="M0 0 C0.77 -0.02 1.55 -0.04 2.34 -0.06 C9.21 -0.11 14.46 1.39 20.25 5.25 C20.8 7.72 21.18 10 21.44 12.5 C21.6 13.8 21.75 15.11 21.92 16.45 C22.21 19.75 22.32 22.95 22.25 26.25 C19.28 26.75 19.28 26.75 16.25 27.25 C15.47 25.68 15.47 25.68 14.68 24.07 C13.97 22.69 13.27 21.32 12.56 19.94 C12.05 18.9 12.05 18.9 11.53 17.85 C9.4 13.71 7.75 11.07 3.25 9.25 C-2.29 8.5 -8.81 8.46 -13.75 11.25 C-16.41 16.1 -16.42 21.85 -15.75 27.25 C-13.05 33.64 -7.57 36.07 -1.75 39.25 C21.87 52.2 21.87 52.2 26.25 64.25 C27.24 71.43 27.57 79.12 23.64 85.48 C16.08 95.1 8.35 99.67 -3.75 101.25 C-12.64 101.99 -23.42 100.58 -30.75 95.25 C-35.9 89.82 -35.86 81.14 -35.88 74 C-35.83 72.76 -35.79 71.53 -35.75 70.25 C-33.44 69.63 -33.44 69.63 -30.75 69.25 C-27.38 71.5 -27.11 72.33 -25.81 76 C-23.28 82.58 -20.9 87.59 -14.23 90.55 C-8.65 92.12 -1.99 92.75 3.38 90.26 C5.49 88.62 6.96 86.85 8.12 84.44 C8.17 83.72 8.21 82.99 8.25 82.25 C8.33 80.99 8.41 79.73 8.5 78.44 C8.39 73.52 7.38 69.43 3.83 65.8 C-0.64 62.21 -5.68 59.61 -10.69 56.88 C-20.9 51.27 -29.92 44.73 -33.75 33.25 C-34.75 25.38 -32.88 17.67 -28.28 11.17 C-20.58 2.8 -10.94 0.07 0 0 Z M-33.75 84.25 C-32.75 86.25 -32.75 86.25 -32.75 86.25 Z M-7.75 93.25 C-7.75 93.58 -7.75 93.91 -7.75 94.25 C-5.77 94.25 -3.79 94.25 -1.75 94.25 C-1.75 93.92 -1.75 93.59 -1.75 93.25 C-3.73 93.25 -5.71 93.25 -7.75 93.25 Z " fill="#88162B" transform="translate(976.75,55.75)"/>
<path d="M0 0 C4.68 -0.1 9.35 -0.17 14.03 -0.22 C15.62 -0.24 17.21 -0.27 18.79 -0.3 C31.06 -0.56 40.01 0.39 49.27 9.09 C54.79 15.19 56.08 21.92 56 30 C55.39 37.92 51.85 44.35 46.11 49.79 C38.13 56.15 29.61 58.15 19.51 58.1 C18.31 58.09 17.11 58.09 15.88 58.09 C14.02 58.08 14.02 58.08 12.12 58.06 C10.86 58.06 9.6 58.05 8.3 58.05 C5.2 58.04 2.1 58.02 -1 58 C-1.33 56.68 -1.66 55.36 -2 54 C-0.02 53.34 1.96 52.68 4 52 C4.33 36.49 4.66 20.98 5 5 C2.03 4.5 2.03 4.5 -1 4 C-0.67 2.68 -0.34 1.36 0 0 Z M14 6 C13.95 12.23 13.91 18.46 13.89 24.69 C13.88 26.81 13.87 28.93 13.85 31.05 C13.82 34.09 13.81 37.14 13.8 40.18 C13.79 41.13 13.78 42.08 13.77 43.06 C13.77 43.95 13.77 44.83 13.77 45.73 C13.77 46.51 13.76 47.29 13.76 48.09 C13.83 50.24 13.83 50.24 16 52 C23.15 52.75 31.12 53.23 37.42 49.32 C43.34 44.36 45.45 38.38 46.22 30.88 C46.53 23.51 45.2 16.01 40.81 10 C33.8 5.01 22.17 1.92 14 6 Z M6 9 C6 22.53 6 36.06 6 50 C6.33 50 6.66 50 7 50 C7 36.47 7 22.94 7 9 C6.67 9 6.34 9 6 9 Z M46 22 C47 24 47 24 47 24 Z M46 33 C47 35 47 35 47 35 Z M20 53 C20 53.33 20 53.66 20 54 C22.31 54 24.62 54 27 54 C27 53.67 27 53.34 27 53 C24.69 53 22.38 53 20 53 Z " fill="#8C182D" transform="translate(408,172)"/>
<path d="M0 0 C4.68 -0.1 9.35 -0.17 14.03 -0.22 C15.62 -0.24 17.21 -0.27 18.79 -0.3 C31.06 -0.56 40.01 0.39 49.27 9.09 C54.79 15.19 56.08 21.92 56 30 C55.39 37.92 51.85 44.35 46.11 49.79 C38.23 56.07 29.78 58.12 19.8 58.13 C18.65 58.13 17.51 58.14 16.33 58.14 C15.15 58.13 13.97 58.13 12.75 58.12 C11.55 58.13 10.36 58.13 9.12 58.14 C7.42 58.13 7.42 58.13 5.67 58.13 C4.63 58.13 3.59 58.13 2.52 58.13 C0 58 0 58 -2 57 C-1.67 55.68 -1.34 54.36 -1 53 C1.47 52.5 1.47 52.5 4 52 C4.33 36.49 4.66 20.98 5 5 C2.03 4.5 2.03 4.5 -1 4 C-0.67 2.68 -0.34 1.36 0 0 Z M14 7 C13.7 8.88 13.7 8.88 13.74 11.03 C13.73 11.87 13.73 12.7 13.72 13.55 C13.73 14.45 13.73 15.35 13.73 16.28 C13.73 17.2 13.73 18.12 13.73 19.07 C13.73 21.02 13.73 22.98 13.74 24.93 C13.75 27.92 13.74 30.91 13.73 33.9 C13.73 35.8 13.73 37.69 13.73 39.59 C13.73 40.49 13.73 41.38 13.72 42.31 C13.73 43.14 13.73 43.98 13.74 44.84 C13.74 45.57 13.74 46.3 13.75 47.06 C13.9 49.32 13.9 49.32 16 52 C23.07 52.96 31.18 53.18 37.42 49.33 C42.47 45.08 44.53 40.38 46 34 C46.21 31.18 46.19 28.39 46.12 25.56 C46.12 24.83 46.11 24.1 46.1 23.35 C46.07 21.56 46.04 19.78 46 18 C45.34 18 44.68 18 44 18 C43.75 17.09 43.51 16.19 43.25 15.25 C41.36 10.33 39.28 8.66 34.62 6.25 C28.97 4.29 18.46 2.54 14 7 Z M6 8 C6 21.86 6 35.72 6 50 C6.33 50 6.66 50 7 50 C7 36.14 7 22.28 7 8 C6.67 8 6.34 8 6 8 Z M20 53 C20 53.33 20 53.66 20 54 C22.31 54 24.62 54 27 54 C27 53.67 27 53.34 27 53 C24.69 53 22.38 53 20 53 Z " fill="#8C182D" transform="translate(1078,172)"/>
<path d="M0 0 C6.96 4.59 13.02 10.64 15.64 18.73 C17.71 29.66 15.95 38.99 9.94 48.19 C2.39 55.4 -4.86 58.28 -15.13 58.15 C-23.44 57.52 -30.02 53.05 -35.67 47.12 C-40.87 40.77 -43.29 33.85 -43.06 25.62 C-41.99 17.65 -38.36 10.13 -32.46 4.63 C-23.22 -2.08 -10.73 -5.6 0 0 Z M-28.54 9.9 C-33.59 18.19 -33.36 28.85 -31.2 38.08 C-29.41 42.98 -27.25 46.85 -22.94 49.94 C-16.75 52.7 -10.52 53.99 -3.94 51.94 C0.66 49.42 3.15 45.76 5.06 40.94 C7.45 30.95 6.93 19.12 2 9.96 C-1.42 5.39 -5.79 3.4 -11.33 2.59 C-18.75 2.15 -23.8 4.11 -28.54 9.9 Z M6.06 21.94 C7.06 23.94 7.06 23.94 7.06 23.94 Z M-41.94 26.94 C-40.94 30.94 -40.94 30.94 -40.94 30.94 Z " fill="#89172C" transform="translate(939.9375,173.0625)"/>
<path d="M0 0 C6.83 4.85 12.96 10.84 15.16 19.12 C16.64 28.11 16.03 36.5 11.56 44.56 C6.3 51.68 0.23 55.76 -8.44 57.56 C-17.03 58.69 -23.58 57.04 -30.6 52.02 C-36.21 47.43 -40.5 42.38 -42.25 35.25 C-42.31 34.03 -42.37 32.82 -42.44 31.56 C-42.53 30.77 -42.63 29.98 -42.73 29.17 C-43.4 20.47 -40.12 13.64 -35.44 6.56 C-33 3.98 -30.56 2.24 -27.44 0.56 C-26.43 -0.06 -25.42 -0.68 -24.38 -1.31 C-16.8 -4.18 -7.06 -3.94 0 0 Z M-28.19 8.38 C-33.34 15.67 -34.09 24.36 -32.88 33.06 C-31.62 38.95 -29.3 43.92 -25.44 48.56 C-19.66 52.16 -12.85 53.22 -6.19 51.94 C-0.69 49.19 2.27 45.18 4.56 39.56 C7.09 29.22 5.47 18.6 0.88 9.06 C-2.81 5.07 -6.55 2.96 -11.97 2.21 C-18.92 1.97 -23.23 3.3 -28.19 8.38 Z M5.56 22.56 C6.56 24.56 6.56 24.56 6.56 24.56 Z M5.56 33.56 C6.56 35.56 6.56 35.56 6.56 35.56 Z " fill="#89172C" transform="translate(822.4375,173.4375)"/>
<path d="M0 0 C5.09 -0.02 10.18 -0.04 15.27 -0.05 C17 -0.06 18.74 -0.07 20.47 -0.08 C22.96 -0.09 25.44 -0.09 27.93 -0.1 C29.1 -0.11 29.1 -0.11 30.28 -0.11 C35.77 -0.11 35.77 -0.11 38 1 C39.3 5.29 39.08 9.57 39 14 C37.68 14 36.36 14 35 14 C33.68 11.36 32.36 8.72 31 6 C25.39 5.67 19.78 5.34 14 5 C14 11.6 14 18.2 14 25 C18.62 24.67 23.24 24.34 28 24 C28.66 22.35 29.32 20.7 30 19 C32.48 19.99 32.48 19.99 35 21 C35 25.95 35 30.9 35 36 C33.02 36.5 33.02 36.5 31 37 C30.65 36.2 30.31 35.4 29.95 34.58 C28.17 31.68 28.17 31.68 24.64 31.07 C22.75 30.88 22.75 30.88 20.81 30.69 C18.56 30.46 16.32 30.23 14 30 C14.33 36.93 14.66 43.86 15 51 C18.18 52.06 20.54 52.17 23.88 52.19 C24.9 52.2 25.93 52.22 26.99 52.23 C30.13 51.99 32.23 51.49 35 50 C36.42 48.32 36.42 48.32 37.31 46.38 C37.87 45.26 38.43 44.15 39 43 C40.32 43 41.64 43 43 43 C42.43 48.41 41.53 52.63 40 58 C26.14 58 12.28 58 -2 58 C-2 57.01 -2 56.02 -2 55 C-2.66 54.67 -3.32 54.34 -4 54 C-1.36 53.34 1.28 52.68 4 52 C4.33 36.49 4.66 20.98 5 5 C2.03 4.5 2.03 4.5 -1 4 C-0.67 2.68 -0.34 1.36 0 0 Z " fill="#901A2F" transform="translate(471,172)"/>
<path d="M0 0 C4.5 -0.15 9 -0.23 13.5 -0.31 C15.4 -0.38 15.4 -0.38 17.34 -0.44 C24.88 -0.54 30.27 -0.19 36 5 C40.06 9.37 41.38 12.79 41.27 18.81 C40.69 23.5 38.76 27.38 35.28 30.58 C30.96 33.77 27.5 35.14 22.06 35.12 C20.78 35.13 20.78 35.13 19.47 35.13 C17.17 35.01 15.2 34.64 13 34 C13.33 34.66 13.66 35.32 14 36 C14.07 38.72 14.09 41.41 14.06 44.12 C14.06 44.88 14.05 45.63 14.05 46.41 C14.04 48.27 14.02 50.14 14 52 C16.64 52.66 19.28 53.32 22 54 C22 55.32 22 56.64 22 58 C18.38 58.03 14.75 58.05 11.12 58.06 C9.58 58.08 9.58 58.08 8 58.09 C7.01 58.09 6.02 58.09 5.01 58.1 C4.1 58.1 3.19 58.11 2.25 58.11 C0 58 0 58 -2 57 C-1.67 55.68 -1.34 54.36 -1 53 C1.48 52.5 1.48 52.5 4 52 C4 36.82 4 21.64 4 6 C1.52 5.01 1.52 5.01 -1 4 C-0.67 2.68 -0.34 1.36 0 0 Z M14 5 C14 12.92 14 20.84 14 29 C22.41 30.29 22.41 30.29 29 27 C31.98 22.73 31.4 17.01 31 12 C30.43 9.06 30.43 9.06 29 7 C24.11 4.18 24.11 4.18 14 5 Z " fill="#8E192E" transform="translate(540,172)"/>
<path d="M0 0 C2.64 0.99 3.78 1.58 5.12 4.12 C5.41 4.99 5.7 5.87 6 6.77 C6.33 7.76 6.67 8.75 7.02 9.77 C7.54 11.38 7.54 11.38 8.08 13.03 C8.86 15.29 9.63 17.54 10.41 19.8 C11.62 23.37 12.81 26.94 14 30.52 C15.15 33.97 16.33 37.4 17.52 40.84 C17.86 41.91 18.21 42.98 18.57 44.09 C20.24 49.37 20.24 49.37 23.84 53.35 C25.95 54.33 25.95 54.33 29 55 C29 56.32 29 57.64 29 59 C22.07 59 15.14 59 8 59 C7.51 57.02 7.51 57.02 7 55 C9.47 54.5 9.47 54.5 12 54 C11.8 53.18 11.59 52.36 11.38 51.52 C10.25 47.01 9.13 42.51 8 38 C2.06 38 -3.88 38 -10 38 C-10.47 39.57 -10.95 41.13 -11.44 42.75 C-11.7 43.63 -11.97 44.51 -12.25 45.42 C-12.88 47.61 -13.47 49.79 -14 52 C-13.01 52.62 -12.02 53.24 -11 53.88 C-10.01 54.58 -9.02 55.28 -8 56 C-8 56.66 -8 57.32 -8 58 C-11.31 59.65 -14.99 59.1 -18.62 59.06 C-19.83 59.06 -19.83 59.06 -21.05 59.05 C-23.04 59.04 -25.02 59.02 -27 59 C-27.33 57.68 -27.66 56.36 -28 55 C-27.05 54.79 -26.1 54.59 -25.12 54.38 C-23.58 53.69 -23.58 53.69 -22 53 C-20.96 50.4 -20.96 50.4 -20 47 C-19.4 45.4 -18.78 43.81 -18.15 42.22 C-17.8 41.33 -17.44 40.43 -17.08 39.51 C-16.7 38.56 -16.33 37.62 -15.94 36.64 C-15.55 35.66 -15.15 34.67 -14.75 33.65 C-13.92 31.58 -13.1 29.51 -12.27 27.43 C-11 24.25 -9.74 21.06 -8.48 17.88 C-7.67 15.86 -6.87 13.84 -6.06 11.83 C-5.69 10.87 -5.31 9.92 -4.92 8.93 C-4.57 8.05 -4.21 7.17 -3.85 6.26 C-3.54 5.49 -3.23 4.71 -2.91 3.91 C-2 2 -2 2 0 0 Z M-2 14 C-2.84 16.44 -3.67 18.87 -4.5 21.31 C-4.74 22 -4.98 22.69 -5.22 23.4 C-6.23 26.39 -7 28.83 -7 32 C-3.04 32 0.92 32 5 32 C3.38 25.74 1.73 19.86 -1 14 C-1.33 14 -1.66 14 -2 14 Z M-8 32 C-8 32.66 -8 33.32 -8 34 C-3.05 34 1.9 34 7 34 C7 33.67 7 33.34 7 33 C2.05 32.67 -2.9 32.34 -8 32 Z " fill="#8A172C" transform="translate(1164,171)"/>
<path d="M0 0 C3 1 3 1 4.04 2.96 C4.36 3.82 4.67 4.68 4.99 5.56 C5.35 6.54 5.71 7.51 6.08 8.51 C6.46 9.56 6.84 10.62 7.23 11.71 C7.63 12.79 8.02 13.87 8.43 14.98 C9.26 17.27 10.09 19.56 10.92 21.85 C12.18 25.36 13.46 28.86 14.75 32.37 C15.56 34.59 16.36 36.8 17.17 39.02 C17.55 40.08 17.94 41.13 18.33 42.21 C18.68 43.19 19.03 44.17 19.4 45.18 C19.71 46.04 20.02 46.9 20.34 47.79 C21 50 21 50 21 53 C21.78 53.14 22.57 53.29 23.38 53.44 C26 54 26 54 28 55 C28 56.32 28 57.64 28 59 C24.88 59.03 21.75 59.05 18.62 59.06 C17.29 59.08 17.29 59.08 15.93 59.09 C15.08 59.09 14.23 59.09 13.35 59.1 C12.17 59.11 12.17 59.11 10.97 59.11 C9 59 9 59 7 58 C7.33 56.68 7.66 55.36 8 54 C9.32 54 10.64 54 12 54 C11.8 53.26 11.59 52.53 11.38 51.77 C11.11 50.79 10.84 49.82 10.56 48.81 C10.3 47.85 10.03 46.89 9.75 45.89 C9.07 43.29 8.53 40.64 8 38 C2.06 38.33 -3.88 38.66 -10 39 C-10.64 40.55 -11.28 42.09 -11.94 43.69 C-12.3 44.56 -12.66 45.43 -13.03 46.32 C-13.96 48.88 -14.54 51.32 -15 54 C-13.02 54.33 -11.04 54.66 -9 55 C-9 56.32 -9 57.64 -9 59 C-15.27 59 -21.54 59 -28 59 C-28.33 57.68 -28.66 56.36 -29 55 C-27.64 54.5 -27.64 54.5 -26.25 54 C-19.62 49.92 -18.33 42.12 -16.05 35.04 C-14.77 31.35 -13.17 27.88 -11.5 24.35 C-9.05 18.87 -6.91 13.25 -4.77 7.64 C-4.44 6.8 -4.11 5.95 -3.77 5.09 C-3.33 3.94 -3.33 3.94 -2.88 2.77 C-2 1 -2 1 0 0 Z M-1 13 C-3.96 19.92 -6.73 26.82 -9 34 C-4.05 34 0.9 34 6 34 C5.53 32.64 5.05 31.28 4.56 29.88 C3.35 26.26 2.49 22.79 2 19 C1.34 19 0.68 19 0 19 C0.33 18.01 0.66 17.02 1 16 C0.34 15.01 -0.32 14.02 -1 13 Z " fill="#8A172C" transform="translate(691,171)"/>
<path d="M0 0 C0.67 0.14 1.33 0.28 2.02 0.43 C5.95 1.18 9.74 1.14 13.73 1.13 C14.56 1.13 15.39 1.13 16.25 1.14 C18 1.14 19.75 1.13 21.5 1.13 C24.19 1.12 26.87 1.13 29.56 1.14 C31.26 1.14 32.97 1.13 34.67 1.13 C35.47 1.13 36.28 1.14 37.11 1.14 C41.19 1.22 41.19 1.22 45 0 C45.99 0.33 46.98 0.66 48 1 C48.49 8.43 48.49 8.43 49 16 C47.68 16 46.36 16 45 16 C45 15.01 45 14.02 45 13 C44.34 13 43.68 13 43 13 C42.34 11.35 41.68 9.7 41 8 C36.71 7.67 32.42 7.34 28 7 C28 22.51 28 38.02 28 54 C30.64 54.66 33.28 55.32 36 56 C36 57.32 36 58.64 36 60 C28.08 60 20.16 60 12 60 C11.67 58.68 11.34 57.36 11 56 C13.31 55.34 15.62 54.68 18 54 C18.33 38.49 18.66 22.98 19 7 C13.06 7.5 13.06 7.5 7 8 C4.92 11.07 3.89 12.64 3 16 C1.68 15.67 0.36 15.34 -1 15 C-2.01 11.76 -1.99 9.17 -1.62 5.81 C-1.53 4.93 -1.44 4.05 -1.35 3.14 C-1 1 -1 1 0 0 Z " fill="#901A2F" transform="translate(1023,170)"/>
<path d="M0 0 C1.14 -0.01 1.14 -0.01 2.31 -0.02 C7.07 0.09 10.54 0.82 14.62 3.5 C16.62 8.2 16.83 12.43 16.62 17.5 C14.78 17.25 14.78 17.25 12.62 16.5 C11.28 14.72 11.28 14.72 10.12 12.56 C8.37 9.3 7.17 7.74 3.62 6.5 C-3.83 5.57 -11.16 5.97 -17.38 10.5 C-22.36 16.02 -23.9 22.45 -24.75 29.69 C-24.06 36.75 -22.27 43.72 -18.25 49.62 C-11.8 53.83 -5.18 55.2 2.43 54.07 C6.44 53.03 8.58 51.1 10.81 47.68 C11.8 45.98 12.72 44.24 13.62 42.5 C15.27 43.16 16.92 43.82 18.62 44.5 C18.09 46.44 17.52 48.38 16.94 50.31 C16.62 51.39 16.31 52.47 15.99 53.58 C14.34 57.1 13.16 57.98 9.62 59.5 C-0.55 61.84 -11.39 61.64 -20.49 56.25 C-25.49 52.79 -29.12 48.61 -32.38 43.5 C-32.75 42.91 -33.12 42.33 -33.51 41.73 C-36.04 35.23 -35.33 26.54 -33.28 19.99 C-28.76 10.37 -22.82 5.27 -12.97 1.41 C-8.59 0.3 -4.51 0.03 0 0 Z M-22.38 12.5 C-21.38 14.5 -21.38 14.5 -21.38 14.5 Z " fill="#8A172C" transform="translate(756.375,170.5)"/>
<path d="M0 0 C1.25 0.21 1.25 0.21 2.53 0.43 C6.59 1.1 10.47 1.14 14.57 1.13 C15.78 1.13 15.78 1.13 17.02 1.14 C18.71 1.14 20.4 1.13 22.1 1.13 C24.69 1.12 27.28 1.13 29.88 1.14 C31.53 1.14 33.18 1.13 34.82 1.13 C35.99 1.14 35.99 1.14 37.17 1.14 C40.38 1.12 42.94 1.02 46 0 C46.66 0.33 47.32 0.66 48 1 C49.16 5.77 50.25 12.49 48 17 C47.01 16.67 46.02 16.34 45 16 C44.29 14.19 44.29 14.19 43.62 12 C42.76 10.68 41.89 9.36 41 8 C36.71 7.67 32.42 7.34 28 7 C28.33 22.18 28.66 37.36 29 53 C31.64 53.99 34.28 54.98 37 56 C37 57.32 37 58.64 37 60 C29.08 60 21.16 60 13 60 C12.67 58.68 12.34 57.36 12 56 C13.98 55.34 15.96 54.68 18 54 C18.33 38.82 18.66 23.64 19 8 C14.71 8 10.42 8 6 8 C5.01 10.97 4.02 13.94 3 17 C2.01 17 1.02 17 0 17 C-1.13 13.61 -1.13 10.95 -1.12 7.38 C-1.13 5.62 -1.13 5.62 -1.13 3.84 C-1 1 -1 1 0 0 Z M0 2 C1 6 1 6 1 6 Z M20 9 C20 23.52 20 38.04 20 53 C20.33 53 20.66 53 21 53 C21 38.48 21 23.96 21 9 C20.67 9 20.34 9 20 9 Z " fill="#8C182D" transform="translate(844,170)"/>
<path d="M0 0 C3.27 -0.06 6.54 -0.09 9.81 -0.12 C10.74 -0.14 11.67 -0.16 12.63 -0.18 C13.52 -0.18 14.41 -0.19 15.33 -0.2 C16.15 -0.21 16.98 -0.22 17.82 -0.23 C20 0 20 0 23 2 C23 2.66 23 3.32 23 4 C20.69 4.66 18.38 5.32 16 6 C16 20.85 16 35.7 16 51 C19.33 51.83 21.7 52.14 25.06 52.12 C26.35 52.13 26.35 52.13 27.66 52.13 C30.16 52.09 30.16 52.09 33 51 C34.67 48.91 34.67 48.91 36.19 46.44 C36.72 45.61 37.25 44.78 37.79 43.93 C38.19 43.3 38.59 42.66 39 42 C39.99 42.33 40.98 42.66 42 43 C41.88 44.38 41.76 45.75 41.62 47.12 C41.56 47.89 41.49 48.66 41.41 49.45 C41 52 41 52 39 58 C26.13 58 13.26 58 0 58 C-0.33 56.68 -0.66 55.36 -1 54 C0.98 53.34 2.96 52.68 5 52 C5 36.82 5 21.64 5 6 C3.02 5.01 1.04 4.02 -1 3 C-0.67 2.01 -0.34 1.02 0 0 Z " fill="#8F1A2E" transform="translate(617,172)"/>
<path d="M0 0 C3.44 -0.06 6.87 -0.09 10.31 -0.12 C11.29 -0.14 12.27 -0.16 13.27 -0.18 C14.21 -0.18 15.15 -0.19 16.11 -0.2 C16.98 -0.21 17.84 -0.22 18.73 -0.23 C21 0 21 0 24 2 C24 2.66 24 3.32 24 4 C21.69 4.33 19.38 4.66 17 5 C17 20.18 17 35.36 17 51 C22.7 52.43 28.36 53.01 33.94 50.88 C36.5 48.55 37.66 46.17 39 43 C40.32 43 41.64 43 43 43 C43.39 49.24 42.39 51.62 40 58 C27.13 58 14.26 58 1 58 C0.67 56.68 0.34 55.36 0 54 C0.5 53.5 0.5 53.5 1 53 C2.98 53 4.96 53 7 53 C7 37.16 7 21.32 7 5 C4.03 4.5 4.03 4.5 1 4 C0.67 2.68 0.34 1.36 0 0 Z M8 8 C8 22.19 8 36.38 8 51 C8.33 51 8.66 51 9 51 C9 36.81 9 22.62 9 8 C8.67 8 8.34 8 8 8 Z " fill="#8E192E" transform="translate(981,172)"/>
<path d="M0 0 C3.29 -0.03 6.58 -0.05 9.88 -0.06 C10.81 -0.07 11.75 -0.08 12.71 -0.09 C14.06 -0.09 14.06 -0.09 15.43 -0.1 C16.67 -0.11 16.67 -0.11 17.94 -0.11 C20 0 20 0 22 1 C22 1.99 22 2.98 22 4 C21.03 4.29 20.06 4.58 19.06 4.88 C15.89 5.64 15.89 5.64 15 8 C14.91 9.35 14.87 10.7 14.87 12.05 C14.87 12.89 14.86 13.72 14.86 14.58 C14.86 15.48 14.87 16.38 14.87 17.31 C14.87 18.24 14.87 19.16 14.86 20.11 C14.86 22.07 14.87 24.03 14.87 25.99 C14.87 28.99 14.87 31.99 14.86 34.99 C14.86 36.89 14.87 38.79 14.87 40.69 C14.87 41.59 14.86 42.49 14.86 43.42 C14.86 44.26 14.87 45.09 14.87 45.95 C14.87 46.68 14.87 47.42 14.87 48.18 C14.89 50.1 14.89 50.1 16 52 C17.98 52.73 19.98 53.4 22 54 C21.67 55.32 21.34 56.64 21 58 C14.07 58 7.14 58 0 58 C-0.33 56.68 -0.66 55.36 -1 54 C-0.5 53.5 -0.5 53.5 0 53 C1.65 53 3.3 53 5 53 C5 37.16 5 21.32 5 5 C2.03 4.5 2.03 4.5 -1 4 C-0.67 2.68 -0.34 1.36 0 0 Z M6 50 C7 52 7 52 7 52 Z " fill="#8E192E" transform="translate(588,172)"/>
<path d="M0 0 C4.02 2.84 6.97 5.08 8 10 C7.9 16.27 6.55 20.57 2 25 C-1.85 27.76 -4.73 29.09 -9.5 28.75 C-10.33 28.5 -11.15 28.25 -12 28 C-12 31.3 -12 34.6 -12 38 C-11.34 38 -10.68 38 -10 38 C-10 38.66 -10 39.32 -10 40 C-9.01 40 -8.02 40 -7 40 C-7 40.99 -7 41.98 -7 43 C-11.29 43 -15.58 43 -20 43 C-20.33 41.68 -20.66 40.36 -21 39 C-20.01 38.5 -20.01 38.5 -19 38 C-18.67 27.11 -18.34 16.22 -18 5 C-18.99 4.67 -19.98 4.34 -21 4 C-20.67 3.01 -20.34 2.02 -20 1 C-17.29 -0.35 -14.99 -0.07 -12 0 C-12 1.32 -12 2.64 -12 4 C-11.22 3.36 -10.43 2.72 -9.62 2.06 C-5.88 -0.88 -4.57 -1.45 0 0 Z M-12 7 C-12.22 9.79 -12.28 12.35 -12.19 15.12 C-12.17 15.88 -12.16 16.63 -12.15 17.41 C-12.11 19.27 -12.06 21.14 -12 23 C-6.18 24.99 -6.18 24.99 -0.44 23.81 C1.86 19.31 1.59 14.95 1 10 C0.21 6.78 0.21 6.78 -2 5 C-6.39 4.45 -8.29 4.52 -12 7 Z " fill="#8C182D" transform="translate(528,278)"/>
<path d="M0 0 C0.03 1.08 0.05 2.16 0.08 3.27 C0.17 7.27 0.27 11.27 0.37 15.27 C0.42 17 0.46 18.74 0.5 20.47 C0.55 22.96 0.62 25.44 0.68 27.93 C0.7 28.71 0.72 29.48 0.73 30.28 C0.76 34.27 0.76 34.27 2 38 C3.48 38.5 3.48 38.5 5 39 C5 39.99 5 40.98 5 42 C0.05 42.5 0.05 42.5 -5 43 C-5 42.34 -5 41.68 -5 41 C-5.85 41.52 -6.69 42.03 -7.56 42.56 C-11.83 44.35 -13.6 44.47 -18 43 C-21.6 40.22 -24.44 37.21 -25.58 32.71 C-25.85 27.14 -24.27 23.45 -21 19 C-18.94 17.69 -18.94 17.69 -17 17 C-16.01 16.34 -15.02 15.68 -14 15 C-11.96 14.59 -11.96 14.59 -9.81 14.38 C-8.55 14.25 -7.3 14.13 -6 14 C-6 10.7 -6 7.4 -6 4 C-6.99 4 -7.98 4 -9 4 C-9.33 3.01 -9.66 2.02 -10 1 C-3.38 -1.12 -3.38 -1.12 0 0 Z M-16.44 20.31 C-18.97 24.67 -18.72 29.09 -18 34 C-16.66 36.84 -16.66 36.84 -14 38 C-10.37 38.42 -10.37 38.42 -7 38 C-5.11 36.11 -5.87 33.42 -5.86 30.92 C-5.87 30.12 -5.87 29.32 -5.88 28.5 C-5.87 27.7 -5.87 26.9 -5.86 26.08 C-5.49 22.23 -5.49 22.23 -7 19 C-10.68 18.65 -13.15 18.54 -16.44 20.31 Z " fill="#8B182D" transform="translate(1133,263)"/>
<path d="M0 0 C0.33 12.54 0.66 25.08 1 38 C2.32 38.66 3.64 39.32 5 40 C4 42 4 42 2.15 42.63 C1.06 42.88 1.06 42.88 -0.06 43.12 C-0.8 43.29 -1.53 43.46 -2.29 43.63 C-2.85 43.75 -3.42 43.88 -4 44 C-4.33 43.01 -4.66 42.02 -5 41 C-5.85 41.52 -6.69 42.03 -7.56 42.56 C-11.83 44.35 -13.6 44.47 -18 43 C-21.93 40.1 -24.54 37.06 -25.61 32.23 C-25.83 27.74 -25.6 24.07 -22.88 20.38 C-19.76 17.8 -17.99 17.19 -14 17 C-14 16.34 -14 15.68 -14 15 C-11.29 13.65 -8.99 13.93 -6 14 C-6.33 11.03 -6.66 8.06 -7 5 C-7.99 4.67 -8.98 4.34 -10 4 C-9.67 2.68 -9.34 1.36 -9 0 C-5.32 -0.92 -3.84 -0.96 0 0 Z M-16.94 20.44 C-18.92 25.22 -19.51 29.96 -18.25 35 C-17.09 37.32 -17.09 37.32 -14 38 C-10.42 38.17 -10.42 38.17 -7 38 C-5.11 36.11 -5.87 33.42 -5.86 30.92 C-5.87 30.12 -5.87 29.32 -5.88 28.5 C-5.87 27.7 -5.87 26.9 -5.86 26.08 C-5.49 22.23 -5.49 22.23 -7 19 C-12.32 18.38 -12.32 18.38 -16.94 20.44 Z " fill="#8B182D" transform="translate(741,263)"/>
<path d="M0 0 C1.82 0.05 1.82 0.05 4 1 C5.16 3.42 6.02 5.64 6.84 8.18 C7.09 8.9 7.34 9.62 7.59 10.36 C8.66 13.45 9.69 16.55 10.72 19.65 C11.47 21.92 12.25 24.17 13.03 26.43 C13.25 27.12 13.48 27.82 13.71 28.54 C15.28 33.1 17.11 35.23 21 38 C21 38.66 21 39.32 21 40 C16.05 40 11.1 40 6 40 C6.33 38.68 6.66 37.36 7 36 C7.66 36 8.32 36 9 36 C7.51 31.05 7.51 31.05 6 26 C2.04 26.33 -1.92 26.66 -6 27 C-6.66 29.97 -7.32 32.94 -8 36 C-7.01 36.66 -6.02 37.32 -5 38 C-5 38.66 -5 39.32 -5 40 C-9.62 40 -14.24 40 -19 40 C-18.67 38.68 -18.34 37.36 -18 36 C-16.51 35.5 -16.51 35.5 -15 35 C-13.69 32.66 -13.69 32.66 -12.62 29.75 C-12.19 28.66 -11.76 27.58 -11.32 26.46 C-10.46 24.2 -9.6 21.93 -8.74 19.66 C-6.18 12.89 -3.4 6.4 0 0 Z M-1 9 C-1.99 12.96 -2.98 16.92 -4 21 C-1.36 21 1.28 21 4 21 C3.01 17.04 2.02 13.08 1 9 C0.34 9 -0.32 9 -1 9 Z M4 21 C1.36 21.33 -1.28 21.66 -4 22 C-4 22.33 -4 22.66 -4 23 C-1.03 23 1.94 23 5 23 C4.67 22.34 4.34 21.68 4 21 Z " fill="#89172C" transform="translate(805,266)"/>
<path d="M0 0 C2.64 0 5.28 0 8 0 C8.33 5.94 8.66 11.88 9 18 C9.99 17.01 10.98 16.02 12 15 C14.81 14 14.81 14 18 14 C20.99 15.75 23.43 17.86 25 21 C25.12 22.35 25.18 23.71 25.21 25.06 C25.24 25.86 25.27 26.66 25.3 27.48 C25.35 29.16 25.39 30.84 25.43 32.52 C25.48 33.72 25.48 33.72 25.52 34.94 C25.54 35.67 25.56 36.4 25.58 37.15 C25.87 39.41 25.87 39.41 29 41 C29 41.66 29 42.32 29 43 C25.7 43 22.4 43 19 43 C19 42.34 19 41.68 19 41 C18.34 40.34 17.68 39.68 17 39 C17.66 39 18.32 39 19 39 C18.5 29.6 18.5 29.6 18 20 C15.03 20.66 12.06 21.32 9 22 C8.92 24.77 8.86 27.54 8.81 30.31 C8.79 31.1 8.76 31.88 8.74 32.69 C8.73 33.45 8.72 34.21 8.71 34.99 C8.69 35.68 8.68 36.38 8.66 37.1 C9.1 39.54 10.13 40.43 12 42 C11 43 11 43 8.5 43.1 C7.49 43.09 6.48 43.07 5.44 43.06 C4.43 43.05 3.41 43.04 2.37 43.04 C1.2 43.02 1.2 43.02 0 43 C0 41.68 0 40.36 0 39 C0.66 39 1.32 39 2 39 C2 27.45 2 15.9 2 4 C1.01 4 0.02 4 -1 4 C-0.67 2.68 -0.34 1.36 0 0 Z " fill="#8C182D" transform="translate(829,263)"/>
<path d="M0 0 C0 0.66 0 1.32 0 2 C1.32 2.33 2.64 2.66 4 3 C4.49 7.45 4.49 7.45 5 12 C4.01 12 3.02 12 2 12 C1.55 11.03 1.09 10.06 0.62 9.06 C-0.66 5.93 -0.66 5.93 -3 5 C-8.2 4.48 -12.66 4.42 -17.5 6.5 C-21.64 10.64 -23.1 15.2 -23.38 21 C-23.18 25.31 -22.18 29.26 -20 33 C-17.66 34.95 -17.66 34.95 -15 36 C-14.4 36.43 -13.8 36.87 -13.19 37.31 C-9.59 38.44 -6.43 37.39 -3 36 C-0.66 34.08 0.66 32.68 2 30 C3.32 30.33 4.64 30.66 6 31 C4.04 39.35 4.04 39.35 0.5 41.56 C-9.1 42.76 -16.04 42.5 -24.19 36.75 C-28.75 32.29 -31.66 27.72 -32.15 21.17 C-31.7 14.77 -28.96 9.47 -24.38 5.06 C-16.83 -0.85 -9.22 -1.63 0 0 Z M-31 20 C-30 23 -30 23 -30 23 Z " fill="#8A172C" transform="translate(1052,265)"/>
<path d="M0 0 C0.72 -0.02 1.44 -0.04 2.18 -0.06 C5.35 -0.09 7.75 0.07 10.62 1.47 C12.56 3.77 12.55 4.97 12.38 7.94 C12.34 8.75 12.3 9.55 12.27 10.39 C12.22 11 12.17 11.62 12.12 12.25 C8.36 10.99 8.05 9.59 6.12 6.25 C1.47 3.92 -4.54 4.81 -9.31 6.38 C-13.44 9.39 -14.5 12.71 -15.69 17.56 C-15.98 23.34 -14.99 29.28 -11.88 34.25 C-8.37 35.97 -8.37 35.97 -4.88 37.25 C-4.38 37.75 -4.38 37.75 -3.88 38.25 C0.79 37.85 4.25 37.22 7.44 33.69 C8.27 32.48 8.27 32.48 9.12 31.25 C11.23 30.6 11.23 30.6 13.12 30.25 C12.84 31.71 12.55 33.17 12.25 34.62 C12.09 35.44 11.93 36.25 11.76 37.09 C11.12 39.25 11.12 39.25 9.12 41.25 C1.77 43.19 -6.3 43.53 -13.02 39.66 C-17.99 35.88 -23.08 30.56 -24.25 24.24 C-24.45 17.71 -22.78 12.53 -18.88 7.25 C-12.8 2.07 -7.9 0.06 0 0 Z " fill="#87162B" transform="translate(428.875,264.75)"/>
<path d="M0 0 C1.26 -0.02 2.52 -0.04 3.81 -0.06 C4.52 -0.07 5.23 -0.09 5.96 -0.1 C8 0 8 0 11 1 C11 1.99 11 2.98 11 4 C10.34 4 9.68 4 9 4 C10.65 8.62 12.3 13.24 14 18 C14 17.34 14 16.68 14 16 C14.66 15.67 15.32 15.34 16 15 C17.48 10.56 18.4 6.42 17.12 1.88 C16.75 1.26 16.38 0.64 16 0 C17.42 -0.05 18.83 -0.09 20.25 -0.12 C21.04 -0.15 21.83 -0.17 22.64 -0.2 C25.21 0.02 26.79 0.71 29 2 C28.67 2.66 28.34 3.32 28 4 C27.01 4.33 26.02 4.66 25 5 C23.72 7.07 23.72 7.07 22.68 9.68 C22.03 11.17 22.03 11.17 21.37 12.69 C20.92 13.78 20.47 14.88 20 16 C19.53 17.13 19.05 18.27 18.57 19.44 C17.09 23.01 15.64 26.6 14.19 30.19 C13.68 31.44 13.17 32.69 12.67 33.94 C11.44 36.96 10.22 39.98 9 43 C6.62 42.69 6.62 42.69 4 42 C3.34 41.01 2.68 40.02 2 39 C2.63 38.36 2.63 38.36 3.28 37.71 C7.12 33.6 9.1 30.85 9 25 C7.71 18.17 5.59 11 2 5 C1.01 4.34 0.02 3.68 -1 3 C-0.67 2.01 -0.34 1.02 0 0 Z " fill="#8A172C" transform="translate(979,278)"/>
<path d="M0 0 C7.14 5.28 7.14 5.28 9 9 C9.71 13.8 10.07 18.19 7.54 22.47 C3.85 26.76 1.5 28.76 -4.31 29.31 C-9.93 28.84 -12.67 26.47 -16.38 22.38 C-18.59 17.78 -18.9 14.01 -18 9 C-16.13 4.56 -13.7 2.41 -9.56 0 C-5.56 -1.12 -3.9 -1.43 0 0 Z M-9 4 C-11.62 8.5 -12.36 12.88 -11.25 17.94 C-10.65 20.12 -10.01 21.98 -9 24 C-8.01 24 -7.02 24 -6 24 C-5.67 24.66 -5.34 25.32 -5 26 C-1.25 24.37 -1.25 24.37 2 22 C2.13 19.92 2.18 17.83 2.19 15.75 C2.2 14.61 2.22 13.47 2.23 12.3 C2 9.04 1.57 6.85 0 4 C-3.59 2.93 -5.43 2.81 -9 4 Z " fill="#89172C" transform="translate(879,278)"/>
<path d="M0 0 C4.03 2.66 7.19 5.45 9 10 C9.72 14.6 9.43 18.12 7.38 22.31 C4.68 25.36 2.7 27.26 -1 29 C-5.7 29.19 -9.07 28.62 -13 26 C-13 25.34 -13 24.68 -13 24 C-13.62 23.75 -14.24 23.5 -14.88 23.25 C-17.52 21.69 -18.08 20.92 -19 18 C-19.69 12.79 -19.42 10.02 -16.38 5.69 C-11.65 0.07 -7.29 -2.17 0 0 Z M-9.31 4.75 C-12.3 8.73 -12.32 12.14 -12 17 C-11.18 19.47 -10.15 21.66 -9 24 C-8.01 24 -7.02 24 -6 24 C-5.67 24.66 -5.34 25.32 -5 26 C-2.47 26.66 -2.47 26.66 0 27 C0.14 26.42 0.29 25.85 0.44 25.25 C0.77 23.91 1.14 22.57 1.56 21.25 C2.81 14.82 2.41 9.58 -1 4 C-4.7 2.5 -6.09 2.31 -9.31 4.75 Z " fill="#87162B" transform="translate(1192,278)"/>
<path d="M0 0 C3.82 3.91 5.54 6.85 6.12 12.31 C5.58 17.4 4.06 20.47 0.5 24.12 C-2.94 26.23 -5.22 26.74 -9.25 26.81 C-15.13 25.09 -17.77 22.62 -21.25 17.81 C-23.03 14.25 -23.01 10.68 -22.25 6.81 C-19.8 2.75 -16.76 -0.24 -12.75 -2.75 C-7.63 -3.65 -4.3 -2.9 0 0 Z M-12.56 2.06 C-15.77 5.39 -15.53 9.17 -15.46 13.52 C-15.15 16.92 -14.26 19.07 -12.25 21.81 C-9.45 23.07 -7.32 23.81 -4.25 23.81 C-1.46 19.62 -1.16 15.8 -1.25 10.81 C-1.97 7.68 -2.99 4.77 -4.25 1.81 C-8.53 0.68 -8.53 0.68 -12.56 2.06 Z M-1.25 8.81 C-0.25 10.81 -0.25 10.81 -0.25 10.81 Z M-1.25 15.81 C-0.25 17.81 -0.25 17.81 -0.25 17.81 Z " fill="#8A172C" transform="translate(957.25,280.1875)"/>
<path d="M0 0 C4.7 2.55 8.11 5.49 11 10 C11.82 14.81 11.58 19.78 9 24 C5.62 27.32 2.64 29.77 -2.12 30.44 C-7.34 29.85 -10.33 27.67 -14 24 C-15.44 21.19 -15.44 21.19 -16 19 C-16.33 18.67 -16.66 18.34 -17 18 C-16.7 12.18 -15.92 8.54 -12 4 C-8.34 1.2 -4.68 -0.96 0 0 Z M-7.38 5.38 C-9.72 9.16 -10.22 12.57 -10 17 C-9.25 19.87 -8.23 22.28 -7 25 C-6.01 25 -5.02 25 -4 25 C-3.67 25.66 -3.34 26.32 -3 27 C-1.68 27 -0.36 27 1 27 C4.06 23.84 4.23 20.77 4.31 16.56 C4.2 12.38 3.68 8.89 2 5 C-2.85 3.78 -2.85 3.78 -7.38 5.38 Z M-16 13 C-15 15 -15 15 -15 15 Z " fill="#86152A" transform="translate(462,277)"/>
<path d="M0 0 C3.9 2.72 7.13 5.75 8.87 10.25 C9.7 15.17 8.81 18.99 6.29 23.27 C4.11 26.2 2.38 27.56 -1 29 C-5.58 29.5 -9.37 29.18 -13.16 26.43 C-16.92 22.73 -19.14 20.11 -19.31 14.75 C-19.25 10.09 -18.09 7.59 -15 4 C-10 -0.51 -6.64 -1.85 0 0 Z M-9.88 4.75 C-12.95 9.45 -12.74 13.53 -12 19 C-11.1 22.09 -11.1 22.09 -9 24 C-6.22 25.19 -4.03 26 -1 26 C1.79 21.81 2.09 17.99 2 13 C1.28 9.87 0.26 6.95 -1 4 C-4.86 2.83 -6.36 2.61 -9.88 4.75 Z M2 18 C3 20 3 20 3 20 Z " fill="#89172C" transform="translate(496,278)"/>
<path d="M0 0 C4.5 1.04 6.59 3.15 9 7 C9.47 9.96 9.38 12.83 9.25 15.81 C9.23 16.6 9.21 17.39 9.2 18.2 C9.15 20.13 9.08 22.07 9 24 C10.65 24.33 12.3 24.66 14 25 C13.67 25.99 13.34 26.98 13 28 C8.92 28.71 5.98 28.99 2 28 C1.01 28.66 0.02 29.32 -1 30 C-4.52 29.85 -6.5 29.36 -9.38 27.31 C-11.51 24.27 -11.61 22.65 -11 19 C-9.3 16.38 -8.03 15.23 -4.95 14.54 C-2.98 14.28 -0.99 14.13 1 14 C1 13.34 1 12.68 1 12 C1.66 12 2.32 12 3 12 C2.67 9.69 2.34 7.38 2 5 C-0.41 5.11 -0.41 5.11 -3 6 C-4.84 8.46 -4.84 8.46 -6 11 C-7.94 10.69 -7.94 10.69 -10 10 C-10.33 9.01 -10.66 8.02 -11 7 C-9.75 5.5 -9.75 5.5 -8 4 C-6.68 4 -5.36 4 -4 4 C-3.67 3.34 -3.34 2.68 -3 2 C-2.01 1.34 -1.02 0.68 0 0 Z M-6 19 C-5.34 20.65 -4.68 22.3 -4 24 C-2 24.04 0 24.04 2 24 C3.42 22.82 3.42 22.82 3.06 19.44 C3.04 18.3 3.02 17.17 3 16 C-0.69 16 -2.78 17.28 -6 19 Z " fill="#8A172C" transform="translate(599,277)"/>
<path d="M0 0 C3.32 1.74 4.63 3.18 6.62 6.38 C7.1 9.33 7.01 12.2 6.88 15.19 C6.86 15.98 6.84 16.76 6.82 17.58 C6.77 19.51 6.7 21.44 6.62 23.38 C7.95 23.7 9.26 24.04 10.62 24.38 C10.62 25.37 10.62 26.36 10.62 27.38 C6.54 28.08 3.6 28.37 -0.38 27.38 C-1.37 28.04 -2.36 28.69 -3.38 29.38 C-7.21 29.29 -8.9 28.79 -11.81 26.25 C-13.38 23.38 -13.38 23.38 -13.56 19.75 C-12.38 16.38 -12.38 16.38 -8.94 14.38 C-5.38 13.38 -5.38 13.38 -3.38 14.38 C-3.04 13.71 -2.72 13.06 -2.38 12.38 C-1.38 12.05 -0.39 11.71 0.62 11.38 C0.29 9.06 -0.03 6.75 -0.38 4.38 C-2.78 4.49 -2.78 4.49 -5.38 5.38 C-7.22 7.84 -7.22 7.84 -8.38 10.38 C-9.7 9.71 -11.01 9.06 -12.38 8.38 C-12.38 7.38 -12.38 6.39 -12.38 5.38 C-9.74 3.96 -7.3 3 -4.38 2.38 C-4.38 1.71 -4.38 1.06 -4.38 0.38 C-2.38 -0.62 -2.38 -0.62 0 0 Z M-6.38 17.38 C-7.19 19.93 -7.19 19.93 -7.38 22.38 C-5.07 23.04 -2.75 23.69 -0.38 24.38 C0.83 23.39 0.83 23.39 0.72 21.53 C0.71 20.8 0.7 20.07 0.69 19.31 C0.67 18.01 0.65 16.71 0.62 15.38 C-2.54 15.38 -3.81 15.58 -6.38 17.38 Z " fill="#8A172C" transform="translate(689.375,277.625)"/>
<path d="M0 0 C3.93 1.26 5.6 2.75 8.12 6 C9.06 9.19 9.06 9.19 9.12 12 C7.12 14 7.12 14 3.65 14.2 C2.27 14.18 0.88 14.16 -0.5 14.12 C-1.21 14.12 -1.91 14.11 -2.64 14.1 C-4.39 14.07 -6.13 14.04 -7.88 14 C-7.22 16.64 -6.55 19.28 -5.88 22 C-1.15 22.65 3.34 23.12 8.12 23 C6.67 26.84 4.84 28.31 1.12 30 C-1.69 30.62 -1.69 30.62 -4.88 30 C-9.13 27.09 -13.01 23.91 -14.88 19 C-14.77 12.78 -13.17 7.67 -8.88 3 C-7.88 3 -6.89 3 -5.88 3 C-5.23 2.23 -5.23 2.23 -4.56 1.44 C-2.88 0 -2.88 0 0 0 Z M-2.88 4 C-5.65 6.35 -5.65 6.35 -7.88 9 C-7.54 9.66 -7.22 10.32 -6.88 11 C-2.42 10.5 -2.42 10.5 2.12 10 C1.79 8.35 1.47 6.7 1.12 5 C-0.6 4.04 -0.6 4.04 -2.88 4 Z " fill="#87162B" transform="translate(761.875,277)"/>
<path d="M0 0 C3.29 2.22 5.79 4.14 7 8 C6.5 11.5 6.5 11.5 5 13 C2.3 13.07 -0.37 13.09 -3.06 13.06 C-4.2 13.06 -4.2 13.06 -5.36 13.05 C-7.24 13.04 -9.12 13.02 -11 13 C-10.06 17.28 -10.06 17.28 -8 21 C-3.4 23.04 1.19 23.51 6 22 C4.54 25.84 2.72 27.31 -1 29 C-3.81 29.62 -3.81 29.62 -7 29 C-11.23 26.11 -15.18 22.91 -17 18 C-17.33 12.01 -15.84 7.54 -12 3 C-11.34 3 -10.68 3 -10 3 C-8.98 2.02 -7.98 1.02 -7 0 C-4.22 -1.39 -2.95 -0.89 0 0 Z M-5 3 C-7.77 5.35 -7.77 5.35 -10 8 C-9.67 8.66 -9.34 9.32 -9 10 C-4.54 9.5 -4.54 9.5 0 9 C-0.33 7.35 -0.66 5.7 -1 4 C-2.72 3.04 -2.72 3.04 -5 3 Z M4 6 C5 8 5 8 5 8 Z " fill="#8D182D" transform="translate(556,278)"/>
<path d="M0 0 C4.3 0.86 7.08 3.17 9.81 6.56 C10.75 10.44 10.75 10.44 10.81 13.56 C7.75 15.1 4.54 14.67 1.19 14.62 C0.48 14.62 -0.23 14.62 -0.95 14.61 C-2.7 14.6 -4.44 14.58 -6.19 14.56 C-5.53 17.53 -4.87 20.5 -4.19 23.56 C-2.42 23.78 -0.65 23.99 1.12 24.19 C2.11 24.3 3.1 24.42 4.11 24.54 C7.04 24.82 7.04 24.82 9.81 22.56 C9.69 24.31 9.69 24.31 8.81 26.56 C5.88 29.02 3.63 30.39 -0.12 31.19 C-4.52 30.29 -7.24 27.88 -10.19 24.56 C-12.53 20.68 -12.74 17 -12.19 12.56 C-10.45 7.71 -8.65 5.97 -4.19 3.56 C-2.19 0.56 -2.19 0.56 0 0 Z M-4.19 5.56 C-4.52 7.21 -4.85 8.86 -5.19 10.56 C-2.22 10.56 0.75 10.56 3.81 10.56 C3.48 8.91 3.15 7.26 2.81 5.56 C-0.32 4.52 -1.18 4.63 -4.19 5.56 Z M4.81 8.56 C5.81 10.56 5.81 10.56 5.81 10.56 Z " fill="#8C182D" transform="translate(1094.1875,276.4375)"/>
<path d="M0 0 C1.26 -0.02 2.52 -0.04 3.81 -0.06 C4.52 -0.07 5.23 -0.09 5.96 -0.1 C8 0 8 0 11 1 C11 1.99 11 2.98 11 4 C10.34 4 9.68 4 9 4 C10.65 8.62 12.3 13.24 14 18 C16.46 15.54 17.24 11.29 18 8 C17.93 5.54 17.5 3.42 17 1 C17.33 0.67 17.66 0.34 18 0 C19.69 0.09 21.38 0.25 23.06 0.44 C24.44 0.59 24.44 0.59 25.85 0.75 C26.56 0.83 27.27 0.91 28 1 C28 1.99 28 2.98 28 4 C27.01 4.33 26.02 4.66 25 5 C23.65 7.29 23.65 7.29 22.52 10.13 C22.08 11.16 21.64 12.2 21.18 13.26 C20.73 14.35 20.28 15.44 19.81 16.56 C19.12 18.2 19.12 18.2 18.41 19.87 C17.26 22.58 16.13 25.29 15 28 C14.01 28 13.02 28 12 28 C2 8.77 2 8.77 2 4 C1.01 3.67 0.02 3.34 -1 3 C-0.67 2.01 -0.34 1.02 0 0 Z " fill="#8B182C" transform="translate(647,278)"/>
<path d="M0 0 C0.99 0.33 1.98 0.66 3 1 C3 2.98 3 4.96 3 7 C5.31 7.33 7.62 7.66 10 8 C10 8.99 10 9.98 10 11 C7.69 11 5.38 11 3 11 C3.33 16.94 3.66 22.88 4 29 C7.7 31.22 7.7 31.22 11 31 C10 34 10 34 8.25 35.25 C5.37 36.21 3.84 36.05 1 35 C-0.31 32.94 -0.31 32.94 -1 31 C-1.66 31 -2.32 31 -3 31 C-3 24.73 -3 18.46 -3 12 C-3.99 11.67 -4.98 11.34 -6 11 C-6.33 10.01 -6.66 9.02 -7 8 C-6.01 7.67 -5.02 7.34 -4 7 C-2.93 5.03 -1.93 3.03 -1 1 C-0.67 0.67 -0.34 0.34 0 0 Z " fill="#8A172C" transform="translate(1161,271)"/>
<path d="M0 0 C2 1.25 2 1.25 4 3 C4 4.32 4 5.64 4 7 C0.92 7.29 0.92 7.29 -2.15 7.59 C-2.76 7.72 -3.37 7.86 -4 8 C-5.53 11.07 -5.1 14.27 -5.06 17.62 C-5.06 18.33 -5.05 19.04 -5.05 19.77 C-5.04 21.51 -5.02 23.26 -5 25 C-3.68 25.66 -2.36 26.32 -1 27 C-1 27.66 -1 28.32 -1 29 C-5.95 29 -10.9 29 -16 29 C-15.67 27.68 -15.34 26.36 -15 25 C-14.34 25 -13.68 25 -13 25 C-13 18.73 -13 12.46 -13 6 C-13.66 6 -14.32 6 -15 6 C-15.33 5.01 -15.66 4.02 -16 3 C-11.43 1.48 -8.65 0.99 -4 2 C-1.73 1.16 -1.73 1.16 0 0 Z M-6 4 C-5 6 -5 6 -5 6 Z M-12 8 C-12 13.61 -12 19.22 -12 25 C-11.67 25 -11.34 25 -11 25 C-11 19.39 -11 13.78 -11 8 C-11.33 8 -11.66 8 -12 8 Z " fill="#8B182C" transform="translate(907,277)"/>
<path d="M0 0 C2.47 1.49 2.47 1.49 5 3 C4.62 4.94 4.62 4.94 4 7 C1.14 8.43 -0.93 7.6 -4 7 C-5.2 10.75 -5.1 14.33 -5.06 18.25 C-5.05 19.51 -5.04 20.78 -5.04 22.08 C-5.02 23.04 -5.01 24.01 -5 25 C-3.68 25.66 -2.36 26.32 -1 27 C-1 27.66 -1 28.32 -1 29 C-5.62 29 -10.24 29 -15 29 C-14.67 27.68 -14.34 26.36 -14 25 C-13.34 25 -12.68 25 -12 25 C-12 18.73 -12 12.46 -12 6 C-12.99 5.67 -13.98 5.34 -15 5 C-14.67 4.01 -14.34 3.02 -14 2 C-11.36 1.67 -8.72 1.34 -6 1 C-5.67 2.32 -5.34 3.64 -5 5 C-3.35 3.35 -1.7 1.7 0 0 Z " fill="#8A172C" transform="translate(1076,277)"/>
<path d="M0 0 C2.5 2.17 3.44 3.73 4 7 C6.97 7.5 6.97 7.5 10 8 C10 8.99 10 9.98 10 11 C7.69 11.33 5.38 11.66 3 12 C3.33 17.61 3.66 23.22 4 29 C7.76 31 7.76 31 11 32 C9.2 34.31 7.93 35.02 5.12 36 C2 36 2 36 -0.69 34.11 C-3.91 29.77 -3.46 26.54 -3.12 21.31 C-3.03 19.6 -2.95 17.89 -2.88 16.18 C-2.84 15.42 -2.79 14.67 -2.74 13.89 C-2.82 13.27 -2.91 12.64 -3 12 C-3.99 11.34 -4.98 10.68 -6 10 C-6 9.34 -6 8.68 -6 8 C-5.34 7.67 -4.68 7.34 -4 7 C-2.97 5.02 -1.97 3.02 -1 1 C-0.67 0.67 -0.34 0.34 0 0 Z " fill="#8C182D" transform="translate(619,271)"/>
<path d="M0 0 C1.94 0.69 1.94 0.69 4 2 C4.75 4.62 4.75 4.62 5 7 C3.08 7.12 3.08 7.12 1.12 7.25 C-1.05 7.3 -1.05 7.3 -3 8 C-5.43 11.24 -5.39 14.81 -5.62 18.75 C-5.7 19.92 -5.77 21.09 -5.85 22.3 C-5.93 23.63 -5.93 23.63 -6 25 C-5.34 25 -4.68 25 -4 25 C-4 25.66 -4 26.32 -4 27 C-3.01 27 -2.02 27 -1 27 C-1 27.66 -1 28.32 -1 29 C-5.62 29 -10.24 29 -15 29 C-14.67 27.68 -14.34 26.36 -14 25 C-13.34 25 -12.68 25 -12 25 C-12 19.06 -12 13.12 -12 7 C-12.66 6.67 -13.32 6.34 -14 6 C-14 4.68 -14 3.36 -14 2 C-11.36 1.67 -8.72 1.34 -6 1 C-5.67 2.32 -5.34 3.64 -5 5 C-3.35 3.35 -1.7 1.7 0 0 Z " fill="#89172C" transform="translate(929,277)"/>
<path d="M0 0 C2.48 1.49 2.48 1.49 5 3 C4.62 4.94 4.62 4.94 4 7 C1.14 8.43 -0.93 7.6 -4 7 C-5.18 10.85 -5.33 14.76 -5.56 18.75 C-5.61 19.45 -5.65 20.14 -5.69 20.86 C-5.8 22.58 -5.9 24.29 -6 26 C-3.52 26.99 -3.52 26.99 -1 28 C-1 28.33 -1 28.66 -1 29 C-5.62 29 -10.24 29 -15 29 C-15.33 28.01 -15.66 27.02 -16 26 C-14.68 25.67 -13.36 25.34 -12 25 C-12 18.73 -12 12.46 -12 6 C-12.99 5.67 -13.98 5.34 -15 5 C-14.67 4.01 -14.34 3.02 -14 2 C-11.36 1.67 -8.72 1.34 -6 1 C-6.33 2.65 -6.66 4.3 -7 6 C-6.01 6 -5.02 6 -4 6 C-4.33 5.01 -4.66 4.02 -5 3 C-3.35 2.01 -1.7 1.02 0 0 Z M3 4 C4 6 4 6 4 6 Z " fill="#8A182C" transform="translate(581,277)"/>
<path d="M0 0 C0 7.59 0 15.18 0 23 C1.32 23.66 2.64 24.32 4 25 C4 25.33 4 25.66 4 26 C-0.62 26 -5.24 26 -10 26 C-9.67 24.68 -9.34 23.36 -9 22 C-8.34 22 -7.68 22 -7 22 C-6.92 19.06 -6.86 16.13 -6.81 13.19 C-6.79 12.35 -6.76 11.52 -6.74 10.66 C-6.73 9.86 -6.72 9.06 -6.71 8.23 C-6.69 7.49 -6.68 6.75 -6.66 5.99 C-7.09 3.47 -8.15 2.7 -10 1 C-10 0.34 -10 -0.32 -10 -1 C-5.51 -2.28 -4.76 -1.91 0 0 Z M-6 5 C-6 10.61 -6 16.22 -6 22 C-5.67 22 -5.34 22 -5 22 C-5 16.39 -5 10.78 -5 5 C-5.33 5 -5.66 5 -6 5 Z " fill="#8B182C" transform="translate(642,280)"/>
<path d="M0 0 C0.01 0.71 0.03 1.42 0.04 2.16 C0.12 5.38 0.22 8.59 0.31 11.81 C0.34 12.93 0.36 14.05 0.38 15.21 C0.42 16.28 0.45 17.35 0.49 18.46 C0.51 19.45 0.54 20.44 0.57 21.46 C0.81 24.39 0.81 24.39 4 27 C-0.29 27 -4.58 27 -9 27 C-9 25.68 -9 24.36 -9 23 C-8.34 23 -7.68 23 -7 23 C-7 17.06 -7 11.12 -7 5 C-7.66 4.67 -8.32 4.34 -9 4 C-9 2.68 -9 1.36 -9 0 C-5.65 -1.12 -3.41 -0.76 0 0 Z M-6 6 C-6 11.28 -6 16.56 -6 22 C-5.67 22 -5.34 22 -5 22 C-5 16.72 -5 11.44 -5 6 C-5.33 6 -5.66 6 -6 6 Z " fill="#8B182D" transform="translate(1150,279)"/>
<path d="M0 0 C4.04 2.63 7.2 5.47 9 10 C9.74 14.73 9.4 18.2 7.25 22.5 C5.06 24.94 4.21 25.77 1 26 C0 23 0 23 0.44 21.31 C1.85 15.51 1.19 10.47 -1 5 C-1.93 4.86 -2.86 4.71 -3.81 4.56 C-7 4 -7 4 -10 3 C-9.67 2.01 -9.34 1.02 -9 0 C-5.73 -1.64 -3.5 -0.86 0 0 Z " fill="#89172C" transform="translate(1192,278)"/>
<path d="M0 0 C0.99 0.66 1.98 1.32 3 2 C2.84 2.64 2.67 3.28 2.5 3.94 C1.61 9.42 1.39 14.2 3.19 19.5 C4.76 22.23 4.76 22.23 7.56 22.62 C8.37 22.75 9.17 22.87 10 23 C11.15 25.02 11.15 25.02 12 27 C5.75 26.97 2.04 25.92 -2.59 21.67 C-5.86 17.79 -6.53 14.3 -6.47 9.33 C-5.65 5.26 -2.97 2.75 0 0 Z " fill="#87162B" transform="translate(941,280)"/>
<path d="M0 0 C1.12 1.62 1.12 1.62 2 4 C1.69 4.89 1.38 5.77 1.06 6.69 C-1.14 13.56 0.93 19.72 4 26 C3.01 26.33 2.02 26.66 1 27 C-3.22 24.07 -5.47 22.01 -7 17 C-7.33 16.67 -7.66 16.34 -8 16 C-7.7 10.13 -6.8 6.69 -3 2 C-2.01 1.34 -1.02 0.68 0 0 Z M-7 11 C-6 13 -6 13 -6 13 Z " fill="#88162B" transform="translate(453,279)"/>
<path d="M0 0 C3.29 2.56 4.76 4.17 5.94 8.19 C5.96 9.12 5.98 10.04 6 11 C4 13 4 13 1.84 13.2 C0.62 13.16 0.62 13.16 -0.62 13.12 C-1.44 13.11 -2.26 13.09 -3.1 13.07 C-3.73 13.05 -4.35 13.02 -5 13 C-5 12.67 -5 12.34 -5 12 C-7.97 11.5 -7.97 11.5 -11 11 C-10.67 10.34 -10.34 9.68 -10 9 C-7.03 9 -4.06 9 -1 9 C-1.33 7.35 -1.66 5.7 -2 4 C-4.31 4.33 -6.62 4.66 -9 5 C-8.62 2.56 -8.62 2.56 -8 0 C-4.99 -1.5 -3.21 -0.88 0 0 Z " fill="#8E192E" transform="translate(765,278)"/>
<path d="M0 0 C0.33 0 0.66 0 1 0 C1 38.61 1 77.22 1 117 C0.67 117 0.34 117 0 117 C0 78.39 0 39.78 0 0 Z " fill="#87162B" transform="translate(172,101)"/>
<path d="M0 0 C3.29 2.22 5.79 4.14 7 8 C6.75 10.19 6.75 10.19 6 12 C3.33 13.33 1.83 12.67 -1 12 C-1 11.67 -1 11.34 -1 11 C-3.64 10.67 -6.28 10.34 -9 10 C-9 9.67 -9 9.34 -9 9 C-6.03 9 -3.06 9 0 9 C-0.33 7.35 -0.66 5.7 -1 4 C-4.68 4.6 -8.35 5.25 -12 6 C-12 5.01 -12 4.02 -12 3 C-11.34 3 -10.68 3 -10 3 C-8.98 2.02 -7.98 1.02 -7 0 C-4.22 -1.39 -2.95 -0.89 0 0 Z M4 6 C5 8 5 8 5 8 Z " fill="#86162B" transform="translate(556,278)"/>
<path d="M0 0 C3.07 0.9 4.73 1.73 7 4 C7.37 6.87 7.38 8.41 5.81 10.88 C4 12 4 12 1.44 11.94 C-1 11 -1 11 -2.31 8.94 C-2.54 8.3 -2.77 7.66 -3 7 C-3.66 7 -4.32 7 -5 7 C-3.75 3.35 -3.33 2.22 0 0 Z " fill="#88162B" transform="translate(1203,219)"/>
<path d="M0 0 C1.24 -0.03 2.49 -0.05 3.77 -0.08 C7.36 0.27 8.82 0.56 11.19 3.25 C11.58 5.51 11.58 5.51 11.44 7.94 C11.4 8.75 11.37 9.55 11.33 10.39 C11.26 11.31 11.26 11.31 11.19 12.25 C7.42 10.99 7.11 9.59 5.19 6.25 C2.89 5.1 1.11 4.94 -1.44 4.69 C-2.25 4.6 -3.07 4.52 -3.91 4.43 C-4.54 4.37 -5.17 4.31 -5.81 4.25 C-5.81 3.59 -5.81 2.93 -5.81 2.25 C-6.47 1.92 -7.13 1.59 -7.81 1.25 C-5.89 -0.67 -2.56 0.03 0 0 Z " fill="#901A2F" transform="translate(429.8125,264.75)"/>
<path d="M0 0 C2.72 -0.49 4.46 -0.32 6.86 1.09 C10.45 3.89 11.84 5.32 12.94 9.88 C12.96 10.91 12.98 11.94 13 13 C10.69 13 8.38 13 6 13 C6.66 11.35 7.32 9.7 8 8 C7.34 8 6.68 8 6 8 C5.57 7.53 5.13 7.05 4.69 6.56 C2.55 4.59 0.84 4.38 -2 4 C-1.34 2.68 -0.68 1.36 0 0 Z " fill="#86162B" transform="translate(1092,277)"/>
<path d="M0 0 C1.32 0.33 2.64 0.66 4 1 C3.26 4.14 2.41 7.09 1 10 C-3.65 12.81 -7.87 11.88 -13 11 C-13 10.01 -13 9.02 -13 8 C-11.76 7.75 -10.53 7.5 -9.25 7.25 C-5.48 6.31 -3.45 5.13 -1 2 C-0.67 1.34 -0.34 0.68 0 0 Z " fill="#7E1227" transform="translate(1054,295)"/>
<path d="M0 0 C3.3 0.33 6.6 0.66 10 1 C10 1.66 10 2.32 10 3 C11.32 3.33 12.64 3.66 14 4 C14.33 6.97 14.66 9.94 15 13 C14.01 13 13.02 13 12 13 C11.69 12.05 11.38 11.1 11.06 10.12 C8.74 6.6 8.22 6.46 4.31 5.62 C2.88 5.39 1.44 5.18 0 5 C0.66 4.67 1.32 4.34 2 4 C2 3.01 2 2.02 2 1 C1.34 0.67 0.68 0.34 0 0 Z " fill="#8C182D" transform="translate(1042,264)"/>
<path d="M0 0 C21.12 0 42.24 0 64 0 C64 0.33 64 0.66 64 1 C42.88 1 21.76 1 0 1 C0 0.67 0 0.34 0 0 Z " fill="#87162B" transform="translate(517,57)"/>
<path d="M0 0 C-0.9 1.47 -1.82 2.92 -2.75 4.38 C-3.26 5.19 -3.77 6 -4.3 6.84 C-6.07 9.09 -7.37 9.96 -10 11 C-9.1 3.21 -9.1 3.21 -7 0 C-4.33 -1.33 -2.83 -0.67 0 0 Z " fill="#801428" transform="translate(1102,265)"/>
<path d="M0 0 C1.62 1.88 1.62 1.88 1.62 5.88 C0.37 5.92 -0.89 5.96 -2.19 6 C-2.9 6.02 -3.6 6.05 -4.33 6.07 C-6.38 5.88 -6.38 5.88 -9.38 3.88 C-9.04 2.88 -8.72 1.89 -8.38 0.88 C-3.34 -1.58 -3.34 -1.58 0 0 Z " fill="#89172C" transform="translate(909.375,278.125)"/>
<path d="M0 0 C-2.15 3.23 -2.42 3.44 -5.94 4.25 C-6.97 4.51 -6.97 4.51 -8.03 4.77 C-10 5 -10 5 -13 4 C-12 1 -12 1 -9.88 -0.25 C-6.3 -1.18 -3.59 -0.7 0 0 Z " fill="#6F0D22" transform="translate(1044,266)"/>
<path d="M0 0 C0.66 0.99 1.32 1.98 2 3 C0.02 5.97 0.02 5.97 -2 9 C-3.94 8.69 -3.94 8.69 -6 8 C-6.33 7.01 -6.66 6.02 -7 5 C-5.75 3.5 -5.75 3.5 -4 2 C-2.68 2 -1.36 2 0 2 C0 1.34 0 0.68 0 0 Z " fill="#821429" transform="translate(595,279)"/>
<path d="M0 0 C12.21 0 24.42 0 37 0 C37 0.33 37 0.66 37 1 C24.79 1 12.58 1 0 1 C0 0.67 0 0.34 0 0 Z " fill="#87162B" transform="translate(784,107)"/>
<path d="M0 0 C1.94 0.75 1.94 0.75 4 2 C4.75 4.12 4.75 4.12 5 6 C2.62 6.62 2.62 6.62 0 7 C-0.66 6.34 -1.32 5.68 -2 5 C-1.46 1.46 -1.46 1.46 0 0 Z " fill="#89172C" transform="translate(637,266)"/>
<path d="M0 0 C2.06 0.69 2.06 0.69 4 2 C4.75 4.12 4.75 4.12 5 6 C3.35 6.33 1.7 6.66 0 7 C-2 3.25 -2 3.25 -2 1 C-1.34 0.67 -0.68 0.34 0 0 Z " fill="#89172C" transform="translate(1145,266)"/>
<path d="M0 0 C6.75 0.88 6.75 0.88 9 2 C11.1 1.6 11.1 1.6 13 1 C11.37 2.71 10.13 3.93 8 5 C6 5.04 4 5.04 2 5 C1.34 3.35 0.68 1.7 0 0 Z " fill="#6F0D21" transform="translate(1183,302)"/>
<path d="M0 0 C3.38 0.31 3.38 0.31 7 1 C7.66 1.99 8.32 2.98 9 4 C8 5 8 5 4.44 5.06 C3.3 5.04 2.17 5.02 1 5 C0.67 3.35 0.34 1.7 0 0 Z " fill="#791126" transform="translate(870,302)"/>
<path d="M0 0 C2.19 0.31 2.19 0.31 4 1 C3.67 2.65 3.34 4.3 3 6 C1.68 6 0.36 6 -1 6 C-1.66 5.01 -2.32 4.02 -3 3 C-1.75 1.44 -1.75 1.44 0 0 Z " fill="#84152A" transform="translate(679,281)"/>
<path d="M0 0 C5.54 0.62 5.54 0.62 7.88 2.56 C8.43 3.27 8.43 3.27 9 4 C8 5 8 5 4.44 5.06 C3.3 5.04 2.17 5.02 1 5 C0.67 3.35 0.34 1.7 0 0 Z " fill="#720E23" transform="translate(455,302)"/>
<path d="M0 0 C6.6 0 13.2 0 20 0 C20 0.33 20 0.66 20 1 C13.4 1 6.8 1 0 1 C0 0.67 0 0.34 0 0 Z " fill="#87162B" transform="translate(136,301)"/>
<path d="M0 0 C0.33 0 0.66 0 1 0 C1 4.95 1 9.9 1 15 C0.67 15 0.34 15 0 15 C0 10.05 0 5.1 0 0 Z " fill="#87162B" transform="translate(172,73)"/>
<path d="M0 0 C3.96 0 7.92 0 12 0 C12 0.33 12 0.66 12 1 C8.04 1 4.08 1 0 1 C0 0.67 0 0.34 0 0 Z " fill="#87162B" transform="translate(684,203)"/>
<path d="M0 0 C0.33 0 0.66 0 1 0 C1 2.64 1 5.28 1 8 C0.67 8 0.34 8 0 8 C0 5.36 0 2.72 0 0 Z " fill="#87162B" transform="translate(721,198)"/>
<path d="M0 0 C2.31 0 4.62 0 7 0 C7 0.33 7 0.66 7 1 C4.69 1 2.38 1 0 1 C0 0.67 0 0.34 0 0 Z " fill="#87162B" transform="translate(783,55)"/>
<path d="M0 0 C0.33 0 0.66 0 1 0 C1 1.98 1 3.96 1 6 C0.67 6 0.34 6 0 6 C0 4.02 0 2.04 0 0 Z " fill="#87162B" transform="translate(779,199)"/>
<path d="M0 0 C1.98 0 3.96 0 6 0 C6 0.33 6 0.66 6 1 C4.02 1 2.04 1 0 1 C0 0.67 0 0.34 0 0 Z " fill="#87162B" transform="translate(1148,55)"/>
<path d="M0 0 C1.98 0 3.96 0 6 0 C6 0.33 6 0.66 6 1 C4.02 1 2.04 1 0 1 C0 0.67 0 0.34 0 0 Z " fill="#87162B" transform="translate(880,55)"/>
<path d="M0 0 C0.33 0 0.66 0 1 0 C1 1.65 1 3.3 1 5 C0.67 5 0.34 5 0 5 C0 3.35 0 1.7 0 0 Z " fill="#87162B" transform="translate(715,291)"/>
<path d="M0 0 C1.65 0 3.3 0 5 0 C5 0.33 5 0.66 5 1 C3.35 1 1.7 1 0 1 C0 0.67 0 0.34 0 0 Z " fill="#87162B" transform="translate(427,264)"/>
<path d="M0 0 C1.65 0 3.3 0 5 0 C5 0.33 5 0.66 5 1 C3.35 1 1.7 1 0 1 C0 0.67 0 0.34 0 0 Z " fill="#87162B" transform="translate(974,55)"/>
<path d="M0 0 C1 4 1 4 1 4 Z " fill="#87162B" transform="translate(860,291)"/>
<path d="M0 0 C4 1 4 1 4 1 Z " fill="#87162B" transform="translate(926,170)"/>
<path d="M0 0 C4 1 4 1 4 1 Z " fill="#87162B" transform="translate(754,170)"/>
<path d="M0 0 C0.33 0.66 0.66 1.32 1 2 C0.34 1.67 -0.32 1.34 -1 1 C-0.67 0.67 -0.34 0.34 0 0 Z " fill="#6B0B20" transform="translate(846,304)"/>
<path d="M0 0 C0.66 0 1.32 0 2 0 C1.67 0.66 1.34 1.32 1 2 C0.67 1.34 0.34 0.68 0 0 Z " fill="#5E061B" transform="translate(1190,302)"/>
<path d="M0 0 C3 1 3 1 3 1 Z " fill="#87162B" transform="translate(808,170)"/>
<path d="" fill="#87162B" transform="translate(0,0)"/>
<path d="" fill="#87162B" transform="translate(0,0)"/>
<path d="" fill="#87162B" transform="translate(0,0)"/>
<path d="" fill="#87162B" transform="translate(0,0)"/>
<path d="" fill="#5E061B" transform="translate(0,0)"/>
<path d="" fill="#87162B" transform="translate(0,0)"/>
<path d="" fill="#87162B" transform="translate(0,0)"/>
<path d="" fill="#87162B" transform="translate(0,0)"/>
<path d="" fill="#87162B" transform="translate(0,0)"/>
<path d="" fill="#87162B" transform="translate(0,0)"/>
<path d="" fill="#87162B" transform="translate(0,0)"/>
<path d="" fill="#87162B" transform="translate(0,0)"/>
<path d="" fill="#87162B" transform="translate(0,0)"/>
</svg>
