<?xml version="1.0" encoding="UTF-8"?>
<!DOCTYPE svg PUBLIC "-//W3C//DTD SVG 1.1//EN" "http://www.w3.org/Graphics/SVG/1.1/DTD/svg11.dtd">
<svg xmlns="http://www.w3.org/2000/svg" version="1.1" width="787px" height="285px" style="shape-rendering:geometricPrecision; text-rendering:geometricPrecision; image-rendering:optimizeQuality; fill-rule:evenodd; clip-rule:evenodd" xmlns:xlink="http://www.w3.org/1999/xlink">
<g><path style="opacity:0.974" fill="#c99750" d="M 231.5,199.5 C 228.757,197.761 226.757,195.427 225.5,192.5C 225.666,183.161 225.5,173.827 225,164.5C 220.952,168.216 216.618,171.55 212,174.5C 211.506,176.134 211.34,177.801 211.5,179.5C 207.102,176.105 203.436,172.105 200.5,167.5C 219.603,154.244 238.603,140.744 257.5,127C 258.609,126.362 259.775,125.862 261,125.5C 262.662,126.997 264.162,128.663 265.5,130.5C 268.493,124.535 271.493,118.535 274.5,112.5C 267.485,111.879 260.485,112.379 253.5,114C 254.64,115.973 255.973,117.807 257.5,119.5C 237.667,134.911 217.334,149.578 196.5,163.5C 187.22,155.556 178.22,147.223 169.5,138.5C 168.567,117.459 175.234,99.2919 189.5,84C 188.944,83.6174 188.611,83.1174 188.5,82.5C 213.477,59.071 242.143,53.2377 274.5,65C 308.688,82.8722 323.188,111.039 318,149.5C 310.926,177.668 293.759,196.668 266.5,206.5C 265.667,182.84 265.167,159.174 265,135.5C 260.745,138.377 256.578,141.377 252.5,144.5C 251.5,166.156 251.167,187.823 251.5,209.5C 249.5,209.5 247.5,209.5 245.5,209.5C 245.833,189.822 245.5,170.155 244.5,150.5C 240.165,153.674 235.998,157.007 232,160.5C 231.5,173.496 231.333,186.496 231.5,199.5 Z"/></g>
<g><path style="opacity:0.977" fill="#88d8d8" d="M 188.5,82.5 C 188.611,83.1174 188.944,83.6174 189.5,84C 175.234,99.2919 168.567,117.459 169.5,138.5C 155.407,121.803 137.74,116.136 116.5,121.5C 127.59,96.1821 147.09,82.8488 175,81.5C 179.502,81.8816 184.002,82.2149 188.5,82.5 Z"/></g>
<g><path style="opacity:0.807" fill="#89d9d8" d="M 364.5,102.5 C 371.877,101.123 378.21,102.956 383.5,108C 382.601,109.236 381.434,110.07 380,110.5C 369.888,104.204 362.554,106.538 358,117.5C 357.169,126.338 361.169,131.338 370,132.5C 373.953,132.072 377.453,130.905 380.5,129C 381.5,130 382.5,131 383.5,132C 377.315,137.467 370.315,138.8 362.5,136C 351.9,128.895 349.733,119.729 356,108.5C 358.671,106.098 361.505,104.098 364.5,102.5 Z"/></g>
<g><path style="opacity:0.815" fill="#89d9d8" d="M 386.5,102.5 C 388.167,102.5 389.833,102.5 391.5,102.5C 391.5,112.5 391.5,122.5 391.5,132.5C 395.5,132.5 399.5,132.5 403.5,132.5C 403.5,134.167 403.5,135.833 403.5,137.5C 397.833,137.5 392.167,137.5 386.5,137.5C 386.5,125.833 386.5,114.167 386.5,102.5 Z"/></g>
<g><path style="opacity:0.818" fill="#89d9d8" d="M 415.5,102.5 C 433.285,101.142 440.785,109.142 438,126.5C 432.505,136.335 424.338,139.502 413.5,136C 402.9,128.895 400.733,119.729 407,108.5C 409.671,106.098 412.505,104.098 415.5,102.5 Z M 419.5,106.5 C 430.544,107.588 435.044,113.588 433,124.5C 428.358,132.812 421.858,134.646 413.5,130C 405.97,119.755 407.97,111.922 419.5,106.5 Z"/></g>
<g><path style="opacity:0.841" fill="#89d9d8" d="M 442.5,102.5 C 444.167,102.5 445.833,102.5 447.5,102.5C 447.334,110.84 447.5,119.173 448,127.5C 450.196,132.54 453.696,133.707 458.5,131C 459.893,129.829 460.727,128.329 461,126.5C 461.5,118.507 461.666,110.507 461.5,102.5C 463.167,102.5 464.833,102.5 466.5,102.5C 466.92,112.247 466.42,121.914 465,131.5C 457.263,139.654 449.93,139.32 443,130.5C 442.5,121.173 442.334,111.839 442.5,102.5 Z"/></g>
<g><path style="opacity:0.848" fill="#89d9d8" d="M 470.5,102.5 C 490.194,100.024 498.361,108.357 495,127.5C 492.778,131.388 489.612,134.221 485.5,136C 480.552,137.05 475.552,137.55 470.5,137.5C 470.5,125.833 470.5,114.167 470.5,102.5 Z M 475.5,107.5 C 484.776,106.609 490.11,110.776 491.5,120C 489.798,128.696 484.464,132.863 475.5,132.5C 475.5,124.167 475.5,115.833 475.5,107.5 Z"/></g>
<g><path style="opacity:0.8" fill="#c9974f" d="M 505.5,102.5 C 512.069,100.776 516.069,103.109 517.5,109.5C 516.07,109.421 514.736,109.754 513.5,110.5C 510.867,105.305 508.533,105.305 506.5,110.5C 506.529,112.029 507.196,113.196 508.5,114C 518.398,116.636 521.898,122.803 519,132.5C 513.123,138.651 506.957,138.984 500.5,133.5C 499.054,131.382 498.387,129.049 498.5,126.5C 499.93,126.579 501.264,126.246 502.5,125.5C 503.915,132.112 507.582,133.945 513.5,131C 516.142,126.554 515.142,122.887 510.5,120C 499.687,116.299 498.02,110.466 505.5,102.5 Z"/></g>
<g><path style="opacity:0.831" fill="#c9974f" d="M 521.5,102.5 C 528.5,102.5 535.5,102.5 542.5,102.5C 542.5,104.167 542.5,105.833 542.5,107.5C 539.833,107.5 537.167,107.5 534.5,107.5C 534.5,117.5 534.5,127.5 534.5,137.5C 532.833,137.5 531.167,137.5 529.5,137.5C 529.5,127.5 529.5,117.5 529.5,107.5C 526.833,107.5 524.167,107.5 521.5,107.5C 521.5,105.833 521.5,104.167 521.5,102.5 Z"/></g>
<g><path style="opacity:0.805" fill="#c9974f" d="M 544.5,102.5 C 546.5,102.5 548.5,102.5 550.5,102.5C 550.334,111.173 550.5,119.84 551,128.5C 554.902,133.804 558.902,133.804 563,128.5C 563.5,119.84 563.666,111.173 563.5,102.5C 565.167,102.5 566.833,102.5 568.5,102.5C 568.666,111.839 568.5,121.173 568,130.5C 563.8,137.343 557.967,139.176 550.5,136C 548.622,134.457 547.122,132.624 546,130.5C 544.583,121.248 544.083,111.915 544.5,102.5 Z"/></g>
<g><path style="opacity:0.845" fill="#c9974f" d="M 573.5,102.5 C 588.254,99.6886 596.921,105.522 599.5,120C 599.039,127.602 595.373,132.936 588.5,136C 583.536,136.912 578.536,137.412 573.5,137.5C 573.5,125.833 573.5,114.167 573.5,102.5 Z M 578.5,107.5 C 590.307,107.144 595.14,112.81 593,124.5C 589.86,130.155 585.026,132.822 578.5,132.5C 578.5,124.167 578.5,115.833 578.5,107.5 Z"/></g>
<g><path style="opacity:0.868" fill="#c9974f" d="M 602.5,102.5 C 604.167,102.5 605.833,102.5 607.5,102.5C 607.5,114.167 607.5,125.833 607.5,137.5C 605.833,137.5 604.167,137.5 602.5,137.5C 602.5,125.833 602.5,114.167 602.5,102.5 Z"/></g>
<g><path style="opacity:0.82" fill="#c9974f" d="M 622.5,102.5 C 642.597,101.417 649.764,110.417 644,129.5C 636.461,138.266 627.628,139.766 617.5,134C 610.518,127.236 609.018,119.402 613,110.5C 615.772,107.217 618.939,104.55 622.5,102.5 Z M 626.5,106.5 C 639.436,108.379 643.602,115.379 639,127.5C 630.482,134.936 623.149,133.936 617,124.5C 615.224,115.712 618.391,109.712 626.5,106.5 Z"/></g>
<g><path style="opacity:0.988" fill="#4b7c80" d="M 169.5,138.5 C 169.5,162.167 169.5,185.833 169.5,209.5C 152.785,209.925 136.118,209.425 119.5,208C 94.5166,198.881 83.6833,181.047 87,154.5C 91.0843,138.254 100.918,127.254 116.5,121.5C 137.74,116.136 155.407,121.803 169.5,138.5 Z"/></g>
<g><path style="opacity:0.974" fill="#395d5f" d="M 169.5,138.5 C 178.22,147.223 187.22,155.556 196.5,163.5C 197.5,165.167 198.833,166.5 200.5,167.5C 203.436,172.105 207.102,176.105 211.5,179.5C 216.167,183.833 220.833,188.167 225.5,192.5C 226.757,195.427 228.757,197.761 231.5,199.5C 234.812,202.146 237.812,205.146 240.5,208.5C 216.843,209.5 193.176,209.833 169.5,209.5C 169.5,185.833 169.5,162.167 169.5,138.5 Z"/></g>
<g><path style="opacity:0.58" fill="#fefffe" d="M 405.5,155.5 C 408.346,155.03 410.679,155.863 412.5,158C 412,158.5 411.5,159 411,159.5C 409.89,157.963 408.39,157.297 406.5,157.5C 405.79,160.86 407.124,162.693 410.5,163C 412.049,164.214 413.215,165.714 414,167.5C 417.092,160.93 421.426,159.93 427,164.5C 429.167,173 426,176.167 417.5,174C 416.382,172.926 415.382,171.76 414.5,170.5C 412.171,174.252 408.837,175.418 404.5,174C 402.464,172.181 402.297,170.347 404,168.5C 406.663,173.55 409.496,173.717 412.5,169C 410.548,166.263 408.048,164.096 405,162.5C 403.196,160.076 403.362,157.743 405.5,155.5 Z M 419.5,163.5 C 425.651,164.103 426.984,166.936 423.5,172C 416.368,171.903 415.035,169.07 419.5,163.5 Z"/></g>
<g><path style="opacity:0.57" fill="#fefffe" d="M 496.5,155.5 C 499.346,155.03 501.679,155.863 503.5,158C 503,158.5 502.5,159 502,159.5C 499.885,156.682 498.052,156.849 496.5,160C 497.685,161.353 499.019,162.52 500.5,163.5C 499.086,164.624 497.586,165.624 496,166.5C 494.417,171.1 495.917,172.934 500.5,172C 499.552,171.517 498.552,171.351 497.5,171.5C 496.831,167.324 498.331,165.991 502,167.5C 503.049,165.893 504.549,165.227 506.5,165.5C 506.785,167.288 506.452,168.955 505.5,170.5C 504.155,171.347 503.155,172.513 502.5,174C 496.992,175.924 493.659,174.091 492.5,168.5C 493.38,166.571 494.38,164.737 495.5,163C 493.996,160.202 494.329,157.702 496.5,155.5 Z"/></g>
<g><path style="opacity:0.613" fill="#fefffe" d="M 514.5,155.5 C 524.988,154.487 529.488,159.154 528,169.5C 524.614,173.92 520.114,175.586 514.5,174.5C 514.5,168.167 514.5,161.833 514.5,155.5 Z M 516.5,157.5 C 526.173,158.347 528.506,162.847 523.5,171C 521.323,172.202 518.989,172.702 516.5,172.5C 516.5,167.5 516.5,162.5 516.5,157.5 Z"/></g>
<g><path style="opacity:0.601" fill="#fefffe" d="M 566.5,155.5 C 567.818,158.258 568.485,161.424 568.5,165C 568.167,168.167 567.833,171.333 567.5,174.5C 566.504,168.202 566.17,161.868 566.5,155.5 Z"/></g>
<g><path style="opacity:0.6" fill="#fefffe" d="M 453.5,166.5 C 452.372,169.185 451.038,171.852 449.5,174.5C 448.5,173.167 447.5,171.833 446.5,170.5C 445.852,172.149 444.852,173.482 443.5,174.5C 441.833,171.167 440.167,167.833 438.5,164.5C 436.854,177.769 435.854,177.769 435.5,164.5C 434.167,164.5 432.833,164.5 431.5,164.5C 431.82,167.898 431.487,171.232 430.5,174.5C 428.638,168.52 428.638,162.687 430.5,157C 434.668,156.45 435.168,157.283 432,159.5C 431.517,160.448 431.351,161.448 431.5,162.5C 432.833,162.5 434.167,162.5 435.5,162.5C 436.167,155.833 436.833,155.833 437.5,162.5C 438.978,162.238 440.311,162.571 441.5,163.5C 442.035,165.661 442.868,167.661 444,169.5C 445.667,162.833 447.333,162.833 449,169.5C 450.258,167.236 451.425,164.902 452.5,162.5C 453.429,163.689 453.762,165.022 453.5,166.5 Z"/></g>
<g><path style="opacity:0.583" fill="#fefffe" d="M 638.5,157.5 C 640.256,158.552 640.923,160.219 640.5,162.5C 644.5,163.167 644.5,163.833 640.5,164.5C 640.82,167.898 640.487,171.232 639.5,174.5C 638.998,170.634 637.998,166.967 636.5,163.5C 638.104,161.821 638.771,159.821 638.5,157.5 Z"/></g>
<g><path style="opacity:0.568" fill="#fefffe" d="M 453.5,166.5 C 456.863,161.365 461.53,160.032 467.5,162.5C 467.824,166.555 467.491,170.555 466.5,174.5C 463.335,174.449 460.002,174.282 456.5,174C 454.623,171.874 453.623,169.374 453.5,166.5 Z M 459.5,163.5 C 462.665,163.752 464.665,165.418 465.5,168.5C 461.917,174.004 458.917,173.837 456.5,168C 456.557,165.791 457.557,164.291 459.5,163.5 Z"/></g>
<g><path style="opacity:0.589" fill="#fefffe" d="M 473.5,164.5 C 476.993,160.949 480.826,160.616 485,163.5C 486.009,165.025 486.509,166.692 486.5,168.5C 482.774,168.177 479.107,168.511 475.5,169.5C 477.859,173.125 480.693,173.458 484,170.5C 485.824,171.749 485.657,172.915 483.5,174C 475.166,176.167 471.833,173 473.5,164.5 Z M 478.5,163.5 C 480.681,163.284 482.347,164.117 483.5,166C 480.833,166.667 478.167,166.667 475.5,166C 476.571,165.148 477.571,164.315 478.5,163.5 Z"/></g>
<g><path style="opacity:0.587" fill="#fefffe" d="M 553.5,163.5 C 552.662,163.842 552.328,164.508 552.5,165.5C 551.129,168.567 549.462,171.567 547.5,174.5C 545.355,172.268 543.855,169.601 543,166.5C 539.445,168.065 535.612,169.065 531.5,169.5C 533.944,173.021 536.778,173.355 540,170.5C 541.824,171.749 541.657,172.915 539.5,174C 531.333,175.833 528.167,172.667 530,164.5C 533.315,160.895 536.982,160.561 541,163.5C 542.011,162.663 543.178,162.33 544.5,162.5C 545.895,170.966 547.895,171.299 550.5,163.5C 551.614,162.224 552.614,162.224 553.5,163.5 Z M 534.5,163.5 C 536.681,163.284 538.347,164.117 539.5,166C 536.833,166.667 534.167,166.667 531.5,166C 532.571,165.148 533.571,164.315 534.5,163.5 Z"/></g>
<g><path style="opacity:0.593" fill="#fefffe" d="M 552.5,165.5 C 553.338,165.158 553.672,164.492 553.5,163.5C 560.113,159.571 564.113,161.238 565.5,168.5C 561.818,168.335 558.152,168.501 554.5,169C 556.968,172.869 559.968,173.369 563.5,170.5C 564.731,171.651 564.731,172.817 563.5,174C 555.883,176.212 552.216,173.379 552.5,165.5 Z M 557.5,163.5 C 559.842,163.504 561.842,164.337 563.5,166C 560.833,166.667 558.167,166.667 555.5,166C 556.381,165.292 557.047,164.458 557.5,163.5 Z"/></g>
<g><path style="opacity:0.581" fill="#fefffe" d="M 573.5,161.5 C 579.093,160.451 582.426,162.617 583.5,168C 582.306,174.149 578.639,176.149 572.5,174C 568.743,169.617 569.076,165.451 573.5,161.5 Z M 575.5,163.5 C 578.669,163.662 580.669,165.328 581.5,168.5C 579.422,172.729 576.589,173.395 573,170.5C 571.916,167.341 572.75,165.008 575.5,163.5 Z"/></g>
<g><path style="opacity:0.637" fill="#fefffe" d="M 588.5,161.5 C 595.771,161.036 598.604,164.369 597,171.5C 594.177,174.571 590.844,175.238 587,173.5C 586.798,175.256 586.298,176.922 585.5,178.5C 584.505,173.208 584.172,167.875 584.5,162.5C 586.099,162.768 587.432,162.434 588.5,161.5 Z M 589.5,163.5 C 595.238,164.381 596.571,167.214 593.5,172C 588.502,173.33 586.336,171.496 587,166.5C 587.698,165.309 588.531,164.309 589.5,163.5 Z"/></g>
<g><path style="opacity:0.597" fill="#fefffe" d="M 601.5,161.5 C 603.663,162.72 605.83,162.72 608,161.5C 609.261,161.759 610.261,162.426 611,163.5C 611.825,167.211 611.659,170.878 610.5,174.5C 609.513,171.232 609.18,167.898 609.5,164.5C 608.5,164.5 607.5,164.5 606.5,164.5C 606.167,176.862 605.334,177.196 604,165.5C 602.989,164.663 601.822,164.33 600.5,164.5C 600.82,167.898 600.487,171.232 599.5,174.5C 598.509,170.555 598.176,166.555 598.5,162.5C 599.791,162.737 600.791,162.404 601.5,161.5 Z"/></g>
<g><path style="opacity:0.589" fill="#fefffe" d="M 616.5,161.5 C 622.188,160.531 625.188,162.864 625.5,168.5C 621.818,168.335 618.152,168.501 614.5,169C 616.821,173.029 619.821,173.529 623.5,170.5C 624.739,172.007 624.405,173.174 622.5,174C 613.752,175.254 610.919,171.754 614,163.5C 614.995,162.934 615.828,162.267 616.5,161.5 Z M 617.5,163.5 C 619.484,163.383 621.15,164.05 622.5,165.5C 620.235,166.647 617.902,166.814 615.5,166C 616.381,165.292 617.047,164.458 617.5,163.5 Z"/></g>
<g><path style="opacity:0.592" fill="#fefffe" d="M 629.5,161.5 C 632.561,161.444 634.728,162.778 636,165.5C 636.234,177.084 635.401,177.25 633.5,166C 632.114,163.217 630.614,163.05 629,165.5C 628.821,168.553 628.321,171.553 627.5,174.5C 626.509,170.555 626.176,166.555 626.5,162.5C 627.791,162.737 628.791,162.404 629.5,161.5 Z"/></g>
<g><path style="opacity:0.595" fill="#fefffe" d="M 473.5,164.5 C 472.542,164.953 471.708,165.619 471,166.5C 470.818,169.226 470.318,171.893 469.5,174.5C 468.509,170.555 468.176,166.555 468.5,162.5C 470.781,162.077 472.448,162.744 473.5,164.5 Z"/></g>
</svg>
